<svg width="436" height="292" viewBox="0 0 436 292" fill="none" xmlns="http://www.w3.org/2000/svg">
<g clip-path="url(#clip0_5023_48900)">
<path d="M351.241 287.752C352.784 287.849 353.636 285.926 352.469 284.805L352.353 284.342C352.368 284.305 352.384 284.268 352.399 284.231C353.959 280.5 359.245 280.525 360.792 284.263C362.164 287.579 363.912 290.902 364.342 294.409C364.535 295.957 364.448 297.534 364.106 299.053C367.322 292.005 369.015 284.307 369.015 276.567C369.015 274.622 368.909 272.677 368.692 270.737C368.513 269.15 368.268 267.573 367.949 266.01C366.228 257.563 362.5 249.518 357.124 242.798C354.539 241.38 352.384 239.164 351.082 236.508C350.614 235.55 350.248 234.52 350.074 233.47C350.368 233.509 351.183 229.014 350.961 228.739C351.371 228.114 352.105 227.804 352.552 227.195C354.779 224.167 357.847 224.695 359.448 228.811C362.869 230.543 362.902 233.416 360.803 236.179C359.468 237.937 359.284 240.316 358.112 242.198C358.233 242.353 358.358 242.503 358.479 242.657C360.689 245.502 362.601 248.56 364.213 251.772C363.758 248.202 364.43 243.901 365.577 241.129C366.882 237.97 369.328 235.309 371.483 232.578C374.07 229.298 379.376 230.73 379.832 234.888C379.837 234.928 379.841 234.968 379.845 235.009C379.525 235.19 379.212 235.382 378.906 235.585C377.159 236.744 377.763 239.461 379.832 239.781L379.879 239.788C379.763 240.945 379.566 242.091 379.276 243.219C382.04 253.942 376.073 257.847 367.554 258.023C367.366 258.119 367.183 258.216 366.994 258.308C367.858 260.746 368.547 263.248 369.058 265.783C369.516 268.023 369.835 270.287 370.013 272.561C370.235 275.43 370.216 278.313 369.974 281.177L369.989 281.076C370.601 277.921 372.308 274.975 374.787 272.933C378.479 269.89 383.696 268.77 387.679 266.324C389.596 265.146 392.054 266.668 391.719 268.898L391.703 269.005C391.109 269.247 390.531 269.527 389.971 269.842C389.651 270.023 389.338 270.215 389.032 270.419C387.285 271.577 387.889 274.294 389.958 274.615L390.005 274.622C390.039 274.627 390.068 274.631 390.102 274.636C389.084 277.06 387.667 279.31 385.892 281.25C384.164 290.611 376.742 291.499 368.803 288.773H368.798C367.93 292.566 366.662 296.272 365.032 299.803H351.578C351.53 299.653 351.487 299.498 351.443 299.348C352.688 299.426 353.941 299.353 355.166 299.126C354.168 297.897 353.17 296.659 352.172 295.43C352.147 295.406 352.128 295.381 352.109 295.357C351.603 294.728 351.091 294.104 350.585 293.475L350.585 293.475C350.553 291.544 350.784 289.619 351.241 287.752Z" fill="#F2F2F2"/>
<path d="M426.227 0H9.78012C4.38977 0 0 4.39677 0 9.80493V149.733C0 154.917 4.03891 159.186 9.12313 159.516C9.33966 159.538 9.5562 159.546 9.78012 159.546H248.986V158.048H9.78012C9.5562 158.048 9.33967 158.04 9.12314 158.018C4.86022 157.681 1.49316 154.093 1.49316 149.733V9.80493C1.49315 5.2208 5.21108 1.49808 9.78012 1.49808H426.227C430.796 1.49808 434.507 5.2208 434.507 9.80493V149.733C434.507 154.318 430.796 158.048 426.227 158.048H332.863V159.546H426.227C431.618 159.546 436 155.141 436 149.733V9.80493C436 4.39678 431.618 0 426.227 0Z" fill="#377E7F"/>
<path d="M32.3048 99.5184C37.4437 99.5184 41.6096 95.4268 41.6096 90.3795C41.6096 85.3323 37.4437 81.2407 32.3048 81.2407C27.1659 81.2407 23 85.3323 23 90.3795C23 95.4268 27.1659 99.5184 32.3048 99.5184Z" fill="#377E7F"/>
<path d="M106.897 87.2529H56.8133C55.0951 87.2529 53.6971 85.8503 53.6971 84.1264C53.6971 82.4026 55.0951 81 56.8133 81H106.897C108.615 81 110.013 82.4026 110.013 84.1264C110.013 85.8503 108.615 87.2529 106.897 87.2529Z" fill="#377E7F"/>
<path d="M145.983 97.8349H56.8133C55.0951 97.8349 53.6971 96.4323 53.6971 94.7085C53.6971 92.9846 55.0951 91.582 56.8133 91.582H145.983C147.701 91.582 149.099 92.9846 149.099 94.7085C149.099 96.4323 147.701 97.8349 145.983 97.8349Z" fill="#377E7F"/>
<path d="M294.381 80.923C288.468 80.923 283.658 76.0967 283.658 70.164C283.658 64.2316 288.468 59.4053 294.381 59.4053C300.294 59.4053 305.104 64.2316 305.104 70.164C305.104 76.0967 300.294 80.923 294.381 80.923ZM294.381 60.9034C289.291 60.9034 285.151 65.0578 285.151 70.164C285.151 75.2705 289.291 79.4249 294.381 79.4249C299.47 79.4249 303.611 75.2705 303.611 70.164C303.611 65.0578 299.47 60.9034 294.381 60.9034Z" fill="#3F3D56"/>
<path d="M331.438 80.923C325.525 80.923 320.715 76.0967 320.715 70.164C320.715 64.2316 325.525 59.4053 331.438 59.4053C337.352 59.4053 342.162 64.2316 342.162 70.164C342.162 76.0967 337.352 80.923 331.438 80.923ZM331.438 60.9034C326.349 60.9034 322.208 65.0578 322.208 70.164C322.208 75.2705 326.349 79.4249 331.438 79.4249C336.528 79.4249 340.669 75.2705 340.669 70.164C340.669 65.0578 336.528 60.9034 331.438 60.9034Z" fill="#3F3D56"/>
<path d="M331.438 75.8842C334.587 75.8842 337.139 73.3233 337.139 70.1643C337.139 67.0052 334.587 64.4443 331.438 64.4443C328.29 64.4443 325.737 67.0052 325.737 70.1643C325.737 73.3233 328.29 75.8842 331.438 75.8842Z" fill="#3DB07A"/>
<path d="M368.495 80.923C362.583 80.923 357.772 76.0967 357.772 70.164C357.772 64.2316 362.583 59.4053 368.495 59.4053C374.409 59.4053 379.219 64.2316 379.219 70.164C379.219 76.0967 374.409 80.923 368.495 80.923ZM368.495 60.9034C363.406 60.9034 359.265 65.0578 359.265 70.164C359.265 75.2705 363.406 79.4249 368.495 79.4249C373.585 79.4249 377.726 75.2705 377.726 70.164C377.726 65.0578 373.585 60.9034 368.495 60.9034Z" fill="#3F3D56"/>
<path d="M235.75 103.583V60.4167C235.75 57.025 232.975 54.25 229.583 54.25H186.417C183.025 54.25 180.25 57.025 180.25 60.4167V103.583C180.25 106.975 183.025 109.75 186.417 109.75H229.583C232.975 109.75 235.75 106.975 235.75 103.583ZM197.208 86.625L204.917 95.9058L215.708 82L229.583 100.5H186.417L197.208 86.625Z" fill="#377E7F"/>
<path d="M272.885 213.812L280.767 276.747L285.059 331.875H294.98L300.084 275.885L299.225 234.97L305.235 274.163L304.065 331.875H315.098L324.552 275.024L323.761 209.91L272.885 213.812Z" fill="#2F2E41"/>
<path d="M306.093 113.947H289.058L283.771 121.158L270.035 127.567L278.191 177.642L272.61 214.897C272.61 214.897 311.674 226.915 324.552 212.093C325.964 210.223 326.125 208.12 324.011 205.596L321.547 176.039L321.976 124.763L308.669 119.956L306.093 113.947Z" fill="#64D9DA"/>
<path d="M260.351 211.13L263.905 196.751L272.376 197.642L268.079 212.71C268.284 213.142 268.431 213.611 268.506 214.109C268.911 216.817 267.052 219.343 264.353 219.75C261.654 220.157 259.137 218.292 258.731 215.583C258.472 213.856 259.137 212.206 260.351 211.13Z" fill="#FFB6B6"/>
<path d="M274.574 126.39L268.275 128.012C266.091 128.199 262.398 142.639 264.195 145.768C264.195 145.768 261.422 171.113 262.939 173.501C264.457 175.889 261.143 204.822 261.143 204.822L272.606 204.882L281.522 149.272L273.548 132.713C273.458 129.919 277.349 126.151 274.574 126.39Z" fill="#64D9DA"/>
<path d="M326.004 78.833L329.771 92.3798L337.785 91.3005L333.294 77.1202C333.477 76.7045 333.604 76.2557 333.661 75.7811C333.972 73.2 332.138 70.8547 329.566 70.5428C326.993 70.2308 324.656 72.0704 324.345 74.6515C324.146 76.2976 324.823 77.845 326.004 78.833Z" fill="#FFB6B6"/>
<path d="M309.267 134.518C310.117 137.77 313.284 139.851 316.592 139.317C321.773 138.48 329.001 136.662 332.378 132.825L342.644 125.716L345.772 122.954C347.486 121.44 348.11 119.032 347.347 116.872L335.068 82.0806L325.558 84.9642L333.939 109.89L334.425 110.136C329.993 111.211 322.986 117.39 320.986 120.622C316.757 120.131 313.971 123.295 311.649 127.636C309.537 129.232 308.595 131.952 309.267 134.518Z" fill="#64D9DA"/>
<path d="M297.474 111.946C305.54 111.946 312.079 105.385 312.079 97.2924C312.079 89.1997 305.54 82.6392 297.474 82.6392C289.408 82.6392 282.869 89.1997 282.869 97.2924C282.869 105.385 289.408 111.946 297.474 111.946Z" fill="#FFB6B6"/>
<path d="M308.668 88.1065C308.227 90.2338 311.079 92.9379 310.639 95.0577C310.348 96.4958 310.004 98.0089 308.914 99.0875C307.899 100.084 306.383 100.541 305.271 101.447C303.77 102.668 303.151 104.69 303.74 106.428C304.136 107.574 305.002 108.78 304.927 109.889C304.912 110.166 304.838 110.443 304.674 110.705C304.002 111.836 302.299 111.971 300.881 111.971H293.781C288.6 111.964 284.076 108.54 282.553 103.567C282.321 102.825 282.082 102.129 281.828 101.522C280.806 99.08 280.059 96.5408 279.611 93.964C279.185 91.5597 281.492 90.3762 282.485 88.1065C283.568 85.6123 283.478 82.3539 286.129 81.1555C288.779 79.9495 291.586 81.7022 294.505 81.2154L294.617 81.1929C298.104 80.5637 301.859 77.8222 305.271 78.6536C307.234 79.133 309.116 80.1442 310.445 81.515C309.504 82.0094 308.496 82.3539 307.458 82.5412C308.854 82.5187 310.265 82.706 311.617 83.0955C311.975 83.7471 312.214 84.4587 312.296 85.2003C312.423 86.3089 309.22 86.9006 308.72 87.9493C308.698 88.0017 308.675 88.0541 308.668 88.1065Z" fill="#2F2E41"/>
<path d="M366.346 75.123C366.143 75.123 365.94 75.04 365.793 74.8768C365.516 74.57 365.539 74.0964 365.845 73.8188L369.988 70.0553L366.237 65.899C365.96 65.5925 365.985 65.1188 366.29 64.8412C366.595 64.5636 367.068 64.587 367.344 64.8939L371.595 69.6054C371.873 69.9119 371.849 70.3855 371.543 70.6631L366.847 74.9291C366.704 75.059 366.525 75.123 366.346 75.123Z" fill="#3F3D56"/>
<path d="M296.613 75.123C296.434 75.123 296.255 75.059 296.112 74.9291L291.416 70.6631C291.11 70.3855 291.086 69.9119 291.363 69.6054L295.615 64.8939C295.891 64.587 296.363 64.5636 296.669 64.8412C296.974 65.1188 296.998 65.5925 296.721 65.899L292.971 70.0553L297.114 73.8188C297.42 74.0964 297.443 74.57 297.166 74.8768C297.019 75.04 296.816 75.123 296.613 75.123Z" fill="#3F3D56"/>
<path d="M62.6619 190.16V206H61.3529C61.1549 206 60.9863 205.967 60.8469 205.901C60.7076 205.828 60.5756 205.71 60.4509 205.549L51.7499 194.373C51.7719 194.586 51.7866 194.798 51.7939 195.011C51.8086 195.216 51.8159 195.407 51.8159 195.583V206H49.5499V190.16H50.8919C51.0019 190.16 51.0936 190.167 51.1669 190.182C51.2476 190.189 51.3209 190.208 51.3869 190.237C51.4529 190.266 51.5153 190.31 51.5739 190.369C51.6326 190.428 51.6949 190.501 51.7609 190.589L60.4729 201.776C60.4509 201.549 60.4326 201.325 60.4179 201.105C60.4106 200.885 60.4069 200.68 60.4069 200.489V190.16H62.6619ZM70.5039 194.604C71.3326 194.604 72.0806 194.74 72.7479 195.011C73.4226 195.282 73.9946 195.667 74.4639 196.166C74.9406 196.665 75.3072 197.27 75.5639 197.981C75.8206 198.692 75.9489 199.492 75.9489 200.379C75.9489 201.266 75.8206 202.066 75.5639 202.777C75.3072 203.488 74.9406 204.097 74.4639 204.603C73.9946 205.102 73.4226 205.487 72.7479 205.758C72.0806 206.029 71.3326 206.165 70.5039 206.165C69.6679 206.165 68.9126 206.029 68.2379 205.758C67.5706 205.487 66.9986 205.102 66.5219 204.603C66.0452 204.097 65.6786 203.488 65.4219 202.777C65.1652 202.066 65.0369 201.266 65.0369 200.379C65.0369 199.492 65.1652 198.692 65.4219 197.981C65.6786 197.27 66.0452 196.665 66.5219 196.166C66.9986 195.667 67.5706 195.282 68.2379 195.011C68.9126 194.74 69.6679 194.604 70.5039 194.604ZM70.5039 204.317C71.5159 204.317 72.2676 203.98 72.7589 203.305C73.2576 202.623 73.5069 201.651 73.5069 200.39C73.5069 199.129 73.2576 198.157 72.7589 197.475C72.2676 196.786 71.5159 196.441 70.5039 196.441C69.4772 196.441 68.7146 196.786 68.2159 197.475C67.7172 198.157 67.4679 199.129 67.4679 200.39C67.4679 201.651 67.7172 202.623 68.2159 203.305C68.7146 203.98 69.4772 204.317 70.5039 204.317ZM98.0438 198.08C98.0438 199.253 97.8531 200.328 97.4718 201.303C97.0905 202.271 96.5515 203.103 95.8548 203.8C95.1655 204.497 94.3331 205.039 93.3578 205.428C92.3898 205.809 91.3118 206 90.1238 206H84.1398V190.16H90.1238C91.3118 190.16 92.3898 190.354 93.3578 190.743C94.3331 191.124 95.1655 191.663 95.8548 192.36C96.5515 193.057 97.0905 193.893 97.4718 194.868C97.8531 195.836 98.0438 196.907 98.0438 198.08ZM95.4148 198.08C95.4148 197.171 95.2901 196.353 95.0408 195.627C94.7988 194.901 94.4468 194.289 93.9848 193.79C93.5301 193.291 92.9765 192.91 92.3238 192.646C91.6711 192.375 90.9378 192.239 90.1238 192.239H86.7248V203.921H90.1238C90.9378 203.921 91.6711 203.789 92.3238 203.525C92.9765 203.261 93.5301 202.88 93.9848 202.381C94.4468 201.875 94.7988 201.263 95.0408 200.544C95.2901 199.818 95.4148 198.997 95.4148 198.08ZM106.152 201.094C105.308 201.123 104.597 201.193 104.018 201.303C103.438 201.406 102.969 201.541 102.61 201.71C102.25 201.871 101.99 202.066 101.829 202.293C101.675 202.52 101.598 202.77 101.598 203.041C101.598 203.305 101.638 203.532 101.719 203.723C101.807 203.906 101.924 204.06 102.071 204.185C102.225 204.302 102.401 204.39 102.599 204.449C102.804 204.5 103.028 204.526 103.27 204.526C103.886 204.526 104.414 204.412 104.854 204.185C105.301 203.95 105.734 203.613 106.152 203.173V201.094ZM99.8818 196.342C101.15 195.161 102.661 194.571 104.414 194.571C105.059 194.571 105.631 194.677 106.13 194.89C106.636 195.095 107.057 195.389 107.395 195.77C107.739 196.151 108 196.606 108.176 197.134C108.359 197.655 108.451 198.234 108.451 198.872V206H107.395C107.167 206 106.995 205.967 106.878 205.901C106.76 205.828 106.661 205.685 106.581 205.472L106.35 204.559C106.064 204.816 105.781 205.047 105.503 205.252C105.224 205.45 104.934 205.619 104.634 205.758C104.34 205.897 104.021 206 103.677 206.066C103.339 206.139 102.965 206.176 102.555 206.176C102.1 206.176 101.675 206.114 101.279 205.989C100.89 205.864 100.553 205.677 100.267 205.428C99.9808 205.171 99.7535 204.856 99.5848 204.482C99.4235 204.108 99.3428 203.668 99.3428 203.162C99.3428 202.729 99.4565 202.308 99.6838 201.897C99.9185 201.486 100.3 201.12 100.828 200.797C101.363 200.467 102.063 200.196 102.929 199.983C103.801 199.77 104.876 199.649 106.152 199.62V198.872C106.152 198.065 105.979 197.464 105.635 197.068C105.29 196.672 104.784 196.474 104.117 196.474C103.662 196.474 103.281 196.533 102.973 196.65C102.665 196.76 102.397 196.881 102.17 197.013C101.942 197.145 101.741 197.27 101.565 197.387C101.389 197.497 101.202 197.552 101.004 197.552C100.842 197.552 100.703 197.512 100.586 197.431C100.476 197.343 100.384 197.237 100.311 197.112L99.8818 196.342ZM114.668 206.176C113.737 206.176 113.018 205.916 112.512 205.395C112.013 204.867 111.764 204.126 111.764 203.173V196.639H110.532C110.4 196.639 110.286 196.599 110.191 196.518C110.096 196.43 110.048 196.302 110.048 196.133V195.176L111.863 194.912L112.38 191.667C112.417 191.542 112.479 191.443 112.567 191.37C112.655 191.289 112.772 191.249 112.919 191.249H114.129V194.934H117.242V196.639H114.129V203.008C114.129 203.411 114.228 203.719 114.426 203.932C114.624 204.145 114.888 204.251 115.218 204.251C115.401 204.251 115.559 204.229 115.691 204.185C115.823 204.134 115.937 204.082 116.032 204.031C116.127 203.972 116.208 203.921 116.274 203.877C116.347 203.826 116.417 203.8 116.483 203.8C116.615 203.8 116.721 203.873 116.802 204.02L117.506 205.175C117.139 205.498 116.707 205.747 116.208 205.923C115.709 206.092 115.196 206.176 114.668 206.176ZM125.101 201.094C124.258 201.123 123.546 201.193 122.967 201.303C122.388 201.406 121.918 201.541 121.559 201.71C121.2 201.871 120.939 202.066 120.778 202.293C120.624 202.52 120.547 202.77 120.547 203.041C120.547 203.305 120.587 203.532 120.668 203.723C120.756 203.906 120.873 204.06 121.02 204.185C121.174 204.302 121.35 204.39 121.548 204.449C121.753 204.5 121.977 204.526 122.219 204.526C122.835 204.526 123.363 204.412 123.803 204.185C124.25 203.95 124.683 203.613 125.101 203.173V201.094ZM118.831 196.342C120.1 195.161 121.61 194.571 123.363 194.571C124.008 194.571 124.58 194.677 125.079 194.89C125.585 195.095 126.007 195.389 126.344 195.77C126.689 196.151 126.949 196.606 127.125 197.134C127.308 197.655 127.4 198.234 127.4 198.872V206H126.344C126.117 206 125.944 205.967 125.827 205.901C125.71 205.828 125.611 205.685 125.53 205.472L125.299 204.559C125.013 204.816 124.731 205.047 124.452 205.252C124.173 205.45 123.884 205.619 123.583 205.758C123.29 205.897 122.971 206 122.626 206.066C122.289 206.139 121.915 206.176 121.504 206.176C121.049 206.176 120.624 206.114 120.228 205.989C119.839 205.864 119.502 205.677 119.216 205.428C118.93 205.171 118.703 204.856 118.534 204.482C118.373 204.108 118.292 203.668 118.292 203.162C118.292 202.729 118.406 202.308 118.633 201.897C118.868 201.486 119.249 201.12 119.777 200.797C120.312 200.467 121.013 200.196 121.878 199.983C122.751 199.77 123.825 199.649 125.101 199.62V198.872C125.101 198.065 124.929 197.464 124.584 197.068C124.239 196.672 123.733 196.474 123.066 196.474C122.611 196.474 122.23 196.533 121.922 196.65C121.614 196.76 121.346 196.881 121.119 197.013C120.892 197.145 120.69 197.27 120.514 197.387C120.338 197.497 120.151 197.552 119.953 197.552C119.792 197.552 119.652 197.512 119.535 197.431C119.425 197.343 119.333 197.237 119.26 197.112L118.831 196.342ZM138.674 192.239V197.31H144.867V199.389H138.674V206H136.089V190.16H145.967V192.239H138.674ZM151.973 194.604C152.801 194.604 153.549 194.74 154.217 195.011C154.891 195.282 155.463 195.667 155.933 196.166C156.409 196.665 156.776 197.27 157.033 197.981C157.289 198.692 157.418 199.492 157.418 200.379C157.418 201.266 157.289 202.066 157.033 202.777C156.776 203.488 156.409 204.097 155.933 204.603C155.463 205.102 154.891 205.487 154.217 205.758C153.549 206.029 152.801 206.165 151.973 206.165C151.137 206.165 150.381 206.029 149.707 205.758C149.039 205.487 148.467 205.102 147.991 204.603C147.514 204.097 147.147 203.488 146.891 202.777C146.634 202.066 146.506 201.266 146.506 200.379C146.506 199.492 146.634 198.692 146.891 197.981C147.147 197.27 147.514 196.665 147.991 196.166C148.467 195.667 149.039 195.282 149.707 195.011C150.381 194.74 151.137 194.604 151.973 194.604ZM151.973 204.317C152.985 204.317 153.736 203.98 154.228 203.305C154.726 202.623 154.976 201.651 154.976 200.39C154.976 199.129 154.726 198.157 154.228 197.475C153.736 196.786 152.985 196.441 151.973 196.441C150.946 196.441 150.183 196.786 149.685 197.475C149.186 198.157 148.937 199.129 148.937 200.39C148.937 201.651 149.186 202.623 149.685 203.305C150.183 203.98 150.946 204.317 151.973 204.317ZM169.15 194.78V206H167.72C167.405 206 167.203 205.85 167.115 205.549L166.939 204.504C166.704 204.753 166.455 204.981 166.191 205.186C165.934 205.391 165.659 205.567 165.366 205.714C165.073 205.861 164.757 205.974 164.42 206.055C164.09 206.136 163.734 206.176 163.353 206.176C162.737 206.176 162.194 206.073 161.725 205.868C161.256 205.663 160.86 205.373 160.537 204.999C160.222 204.625 159.983 204.178 159.822 203.657C159.661 203.129 159.58 202.55 159.58 201.919V194.78H161.945V201.919C161.945 202.674 162.117 203.261 162.462 203.679C162.814 204.097 163.346 204.306 164.057 204.306C164.578 204.306 165.062 204.189 165.509 203.954C165.964 203.712 166.389 203.382 166.785 202.964V194.78H169.15ZM174.233 196.265C174.475 196.016 174.724 195.792 174.981 195.594C175.245 195.389 175.524 195.213 175.817 195.066C176.11 194.919 176.422 194.806 176.752 194.725C177.082 194.644 177.441 194.604 177.83 194.604C178.446 194.604 178.985 194.707 179.447 194.912C179.916 195.117 180.309 195.407 180.624 195.781C180.947 196.155 181.189 196.606 181.35 197.134C181.511 197.655 181.592 198.23 181.592 198.861V206H179.238V198.861C179.238 198.106 179.062 197.519 178.71 197.101C178.365 196.683 177.837 196.474 177.126 196.474C176.598 196.474 176.107 196.595 175.652 196.837C175.205 197.079 174.783 197.409 174.387 197.827V206H172.022V194.78H173.452C173.775 194.78 173.98 194.93 174.068 195.231L174.233 196.265ZM191.515 197.541C191.185 197.116 190.822 196.819 190.426 196.65C190.03 196.481 189.601 196.397 189.139 196.397C188.215 196.397 187.493 196.738 186.972 197.42C186.451 198.095 186.191 199.096 186.191 200.423C186.191 201.112 186.25 201.703 186.367 202.194C186.484 202.678 186.653 203.074 186.873 203.382C187.093 203.69 187.361 203.914 187.676 204.053C187.991 204.192 188.347 204.262 188.743 204.262C189.344 204.262 189.861 204.134 190.294 203.877C190.734 203.613 191.141 203.243 191.515 202.766V197.541ZM193.88 189.72V206H192.45C192.135 206 191.933 205.85 191.845 205.549L191.636 204.328C191.167 204.878 190.631 205.322 190.03 205.659C189.436 205.996 188.743 206.165 187.951 206.165C187.32 206.165 186.748 206.04 186.235 205.791C185.722 205.534 185.282 205.164 184.915 204.68C184.548 204.196 184.262 203.598 184.057 202.887C183.859 202.168 183.76 201.347 183.76 200.423C183.76 199.587 183.87 198.813 184.09 198.102C184.317 197.391 184.64 196.775 185.058 196.254C185.476 195.726 185.982 195.315 186.576 195.022C187.177 194.721 187.848 194.571 188.589 194.571C189.249 194.571 189.81 194.677 190.272 194.89C190.734 195.095 191.148 195.385 191.515 195.759V189.72H193.88Z" fill="black"/>
</g>
<defs>
<clipPath id="clip0_5023_48900">
<rect width="436" height="351" fill="white"/>
</clipPath>
</defs>
</svg>
