<svg width="1031" height="374" viewBox="0 0 1031 374" fill="none" xmlns="http://www.w3.org/2000/svg">
<path d="M466.375 206.958V120.042C466.375 113.213 460.788 107.625 453.958 107.625H367.042C360.213 107.625 354.625 113.213 354.625 120.042V206.958C354.625 213.788 360.213 219.375 367.042 219.375H453.958C460.788 219.375 466.375 213.788 466.375 206.958ZM388.771 172.812L404.292 191.5L426.021 163.5L453.958 200.75H367.042L388.771 172.812Z" fill="#377E7F"/>
<path opacity="0.07" d="M403.425 240C437.589 240 465.285 237.87 465.285 235.243C465.285 232.616 437.589 230.486 403.425 230.486C369.26 230.486 341.565 232.616 341.565 235.243C341.565 237.87 369.26 240 403.425 240Z" fill="black"/>
<path d="M291.282 69.4199L261.143 69.6071C261.143 69.6071 211.535 95.9954 246.354 150.644C246.354 150.644 260.581 147.275 276.306 158.878C276.306 158.878 285.479 71.4786 291.282 69.4199Z" fill="#377E7F"/>
<path opacity="0.2" d="M282.316 69.6934C276.917 92.2425 270.813 150.401 270.813 150.401C256.764 140.034 243.919 141.617 241.339 142.073C242.861 145.085 244.535 148.019 246.354 150.862C246.354 150.862 260.581 147.493 276.306 159.096C276.306 159.096 285.479 71.6964 291.282 69.6377L282.316 69.6934Z" fill="black"/>
<path d="M246.167 97.6794L243.546 110.406L210.61 104.421L210.599 104.417L209.85 89.4448H216.215L246.167 97.6794Z" fill="#3F3D56"/>
<path opacity="0.2" d="M215.683 89.4448L210.61 104.421L210.599 104.417L209.85 89.4448H215.683Z" fill="black"/>
<path d="M245.043 111.903C247.111 111.903 248.787 108.049 248.787 103.294C248.787 98.5394 247.111 94.6851 245.043 94.6851C242.976 94.6851 241.299 98.5394 241.299 103.294C241.299 108.049 242.976 111.903 245.043 111.903Z" fill="#3F3D56"/>
<path d="M225.575 285.226C225.424 285.226 225.276 285.197 225.137 285.139C224.998 285.082 224.872 284.998 224.766 284.891C224.659 284.785 224.575 284.659 224.517 284.52C224.46 284.381 224.43 284.233 224.43 284.082V103.294C224.43 102.991 224.551 102.7 224.766 102.485C224.98 102.27 225.271 102.15 225.575 102.15C225.878 102.15 226.169 102.27 226.384 102.485C226.599 102.7 226.719 102.991 226.719 103.294V284.082C226.719 284.233 226.69 284.381 226.632 284.52C226.575 284.659 226.49 284.785 226.384 284.891C226.278 284.998 226.152 285.082 226.013 285.139C225.874 285.197 225.725 285.226 225.575 285.226Z" fill="#3F3D56"/>
<path d="M241.298 317.043C241.033 317.042 240.776 316.95 240.571 316.781C240.367 316.612 240.227 316.378 240.176 316.118L224.452 235.526C224.401 235.265 224.442 234.996 224.568 234.762C224.695 234.529 224.898 234.347 225.143 234.247C225.389 234.147 225.662 234.135 225.915 234.214C226.168 234.293 226.386 234.457 226.532 234.679L268.09 298.053C268.256 298.307 268.315 298.616 268.253 298.913C268.192 299.211 268.014 299.471 267.761 299.637C267.507 299.804 267.197 299.863 266.9 299.801C266.603 299.739 266.342 299.562 266.176 299.308L227.814 240.809L242.423 315.68C242.451 315.827 242.451 315.979 242.421 316.126C242.391 316.273 242.333 316.413 242.249 316.538C242.165 316.663 242.057 316.769 241.932 316.852C241.807 316.935 241.666 316.993 241.519 317.022C241.446 317.036 241.372 317.043 241.298 317.043Z" fill="#3F3D56"/>
<path d="M182.143 302.819C181.937 302.819 181.735 302.763 181.558 302.657C181.381 302.551 181.236 302.4 181.138 302.218C181.04 302.037 180.993 301.832 181.001 301.626C181.01 301.42 181.074 301.22 181.187 301.048L224.618 234.796C224.784 234.543 225.045 234.367 225.341 234.305C225.638 234.244 225.947 234.302 226.201 234.468C226.454 234.635 226.632 234.894 226.694 235.191C226.756 235.488 226.698 235.797 226.532 236.051L183.102 302.302C182.997 302.461 182.855 302.592 182.688 302.682C182.521 302.772 182.334 302.819 182.143 302.819Z" fill="#3F3D56"/>
<path d="M498.718 69.4199L528.857 69.6071C528.857 69.6071 578.465 95.9954 543.646 150.644C543.646 150.644 529.419 147.275 513.694 158.878C513.694 158.878 504.521 71.4786 498.718 69.4199Z" fill="#377E7F"/>
<path opacity="0.2" d="M507.684 69.6934C513.083 92.2425 519.187 150.401 519.187 150.401C533.236 140.034 546.081 141.617 548.661 142.073C547.139 145.085 545.465 148.019 543.646 150.862C543.646 150.862 529.419 147.493 513.694 159.096C513.694 159.096 504.521 71.6964 498.718 69.6377L507.684 69.6934Z" fill="black"/>
<path d="M543.833 97.6794L546.454 110.406L579.39 104.421L579.401 104.417L580.15 89.4448H573.785L543.833 97.6794Z" fill="#3F3D56"/>
<path opacity="0.2" d="M574.317 89.4448L579.39 104.421L579.401 104.417L580.15 89.4448H574.317Z" fill="black"/>
<path d="M544.957 111.903C547.024 111.903 548.701 108.049 548.701 103.294C548.701 98.5394 547.024 94.6851 544.957 94.6851C542.889 94.6851 541.213 98.5394 541.213 103.294C541.213 108.049 542.889 111.903 544.957 111.903Z" fill="#3F3D56"/>
<path d="M564.425 285.226C564.275 285.226 564.126 285.197 563.987 285.139C563.848 285.082 563.722 284.998 563.616 284.891C563.51 284.785 563.425 284.659 563.368 284.52C563.31 284.381 563.281 284.233 563.281 284.082V103.294C563.281 102.991 563.401 102.7 563.616 102.485C563.831 102.27 564.122 102.15 564.425 102.15C564.729 102.15 565.02 102.27 565.234 102.485C565.449 102.7 565.57 102.991 565.57 103.294V284.082C565.57 284.233 565.54 284.381 565.483 284.52C565.425 284.659 565.341 284.785 565.234 284.891C565.128 284.998 565.002 285.082 564.863 285.139C564.724 285.197 564.576 285.226 564.425 285.226Z" fill="#3F3D56"/>
<path d="M548.702 317.043C548.628 317.043 548.554 317.036 548.482 317.022C548.184 316.964 547.921 316.79 547.751 316.538C547.582 316.286 547.519 315.977 547.577 315.68L562.186 240.808L523.824 299.308C523.742 299.434 523.635 299.542 523.511 299.626C523.387 299.711 523.247 299.77 523.1 299.801C522.953 299.831 522.801 299.833 522.653 299.805C522.506 299.777 522.365 299.72 522.239 299.637C522.114 299.555 522.006 299.449 521.921 299.324C521.836 299.2 521.777 299.06 521.746 298.913C521.716 298.766 521.715 298.615 521.743 298.467C521.771 298.319 521.828 298.179 521.91 298.053L563.468 234.679C563.614 234.457 563.832 234.293 564.085 234.214C564.338 234.135 564.611 234.147 564.857 234.247C565.102 234.347 565.306 234.529 565.432 234.762C565.558 234.996 565.599 235.265 565.549 235.526L549.824 316.118C549.773 316.378 549.633 316.612 549.429 316.781C549.224 316.95 548.967 317.042 548.702 317.043Z" fill="#3F3D56"/>
<path d="M607.856 302.819C607.666 302.819 607.479 302.772 607.312 302.682C607.145 302.592 607.002 302.461 606.898 302.302L563.468 236.051C563.302 235.797 563.244 235.488 563.306 235.191C563.368 234.894 563.546 234.635 563.799 234.468C564.053 234.302 564.362 234.244 564.659 234.305C564.955 234.367 565.216 234.543 565.382 234.796L608.813 301.048C608.926 301.22 608.99 301.42 608.999 301.626C609.007 301.832 608.96 302.037 608.862 302.218C608.764 302.4 608.619 302.551 608.442 302.657C608.265 302.763 608.063 302.819 607.856 302.819Z" fill="#3F3D56"/>
<path d="M360.184 189.436C360.284 189.04 359.891 188.6 359.306 188.454C358.722 188.307 358.168 188.51 358.069 188.906C357.97 189.303 358.363 189.743 358.947 189.889C359.531 190.035 360.085 189.832 360.184 189.436Z" fill="#377E7F"/>
<path d="M368.511 200.431C368.611 200.034 368.217 199.594 367.633 199.448C367.049 199.302 366.495 199.505 366.396 199.901C366.297 200.297 366.69 200.737 367.274 200.883C367.858 201.03 368.412 200.827 368.511 200.431Z" fill="#377E7F"/>
<path d="M325.623 316.367L314.179 307.071C314.179 307.071 316.325 318.512 313.464 320.657L312.157 324.477L315.816 327.47C315.816 327.47 327.053 325.663 325.623 316.367Z" fill="#2F2E41"/>
<path d="M343.778 197.742L351.977 195.459C351.977 195.459 355.189 194.818 353.226 188.547C351.264 182.277 347.372 184.032 347.372 184.032L340.098 186.144L337.226 187.031L341.267 192.698L341.606 196.475L343.778 197.742Z" fill="#3F3D56"/>
<path d="M327.934 181.173L325.362 191.446L338.543 204.218L339.676 204.502L342.699 203.653L345.272 193.38L342.666 190.64L345.329 189.943L339.645 184.426L336.679 185.048L334.3 182.687L335.906 182.045L336.057 181.441L334.112 179.91L327.934 181.173Z" fill="#3F3D56"/>
<path d="M340.284 195.663L338.581 202.461L330.725 195.036L332.692 188.144L340.284 195.663Z" fill="#62C2C3"/>
<path d="M327.934 181.173L327.573 182.614L340.68 195.361L341.814 195.645L344.742 194.853L344.904 194.849L345.272 193.38L342.666 190.64L345.329 189.943L339.645 184.426L336.679 185.048L334.3 182.687L335.906 182.045L336.057 181.441L334.112 179.91L327.934 181.173Z" stroke="#3F3D56" stroke-miterlimit="10"/>
<path d="M316.027 198.721C323.873 198.721 330.233 192.363 330.233 184.519C330.233 176.676 323.873 170.317 316.027 170.317C308.182 170.317 301.822 176.676 301.822 184.519C301.822 192.363 308.182 198.721 316.027 198.721Z" fill="#FFB6B6"/>
<path d="M320.623 194.544C320.623 194.544 321.459 204.987 323.548 205.822C325.637 206.658 300.986 212.506 300.986 212.506L307.253 205.405C307.253 205.405 308.507 194.544 305.582 192.038L320.623 194.544Z" fill="#FFB6B6"/>
<path d="M343.861 264.168C343.861 264.168 356.378 252.37 359.954 253.085C363.53 253.8 370.682 254.873 370.682 260.235C370.682 265.598 358.881 278.112 358.881 278.112C358.881 278.112 349.941 297.776 341.358 298.491C335.712 299.003 330.1 299.838 324.55 300.993C324.55 300.993 328.484 315.295 326.338 319.227C324.192 323.16 315.967 327.808 315.252 327.45C314.537 327.093 304.523 317.797 300.232 304.569C295.94 291.34 293.079 281.33 297.013 280.614C300.947 279.899 343.861 264.168 343.861 264.168Z" fill="#2F2E41"/>
<path d="M369.61 259.163C369.61 259.163 372.113 258.805 371.755 264.883C371.398 270.961 370.325 292.77 368.537 297.06C366.749 301.351 366.391 306.356 367.106 308.144C367.822 309.931 369.252 312.792 366.749 313.149C364.245 313.507 353.874 312.077 352.802 311.719C351.729 311.361 350.656 305.284 351.371 305.284C352.086 305.284 353.874 304.926 353.159 302.423C352.444 299.921 352.086 299.921 353.159 299.206C354.232 298.491 357.093 297.418 356.378 296.703C355.663 295.988 354.947 279.184 354.947 279.184L369.61 259.163Z" fill="#2F2E41"/>
<path d="M366.033 312.077C366.033 312.077 372.113 310.289 372.828 314.222C372.828 314.222 373.901 320.3 369.252 322.445C366.252 323.862 363.38 325.537 360.669 327.45C360.669 327.45 353.159 330.311 352.802 326.735C352.444 323.16 354.232 310.289 354.232 310.289L366.033 312.077Z" fill="#2F2E41"/>
<path d="M309.53 300.636C309.53 300.636 317.04 302.781 315.967 310.289C314.894 317.797 313.519 325.954 313.519 325.954C313.519 325.954 313.106 346.042 307.742 347.472C302.378 348.902 300.947 346.042 300.947 346.042C300.947 346.042 294.849 330.345 296.656 325.663C298.842 319.996 301.992 313.632 300.947 311.719C299.918 309.837 301.662 299.563 309.53 300.636Z" fill="#2F2E41"/>
<path d="M305.238 201.959C305.238 201.959 308.099 202.316 312.748 203.031C317.397 203.746 320.616 200.171 323.119 200.886C325.623 201.601 346.364 206.607 346.364 206.607L343.146 231.276C343.146 231.276 347.08 259.878 346.364 264.883C345.649 269.889 354.947 269.174 349.583 275.252C344.219 281.329 334.921 286.692 315.967 284.905C297.013 283.117 294.51 283.475 294.51 280.614C294.51 277.754 298.801 253.442 297.371 251.297C295.94 249.152 293.079 246.649 294.51 244.147C295.94 241.644 297.371 240.214 295.225 238.069C293.079 235.924 292.007 233.779 292.007 232.706C292.007 231.633 287 214.115 287 214.115C287 214.115 289.146 205.534 291.649 205.176C294.152 204.819 296.298 203.031 298.086 203.031C299.874 203.031 300.947 203.389 302.02 203.031L305.238 201.959Z" fill="#64D9DA"/>
<path d="M339.532 179.538C339.348 178.712 338.448 175.949 336.617 175.275C335.277 174.782 332.784 175.824 331.543 175.651L331.383 175.196C331.277 174.301 331.053 173.424 330.719 172.587C330.063 170.913 329.076 169.388 327.817 168.105C326.557 166.821 325.052 165.805 323.39 165.118C319.301 163.409 312.833 161.996 307.221 166.474C299.514 172.625 300.872 181.828 301.432 184.382C301.525 184.808 301.605 185.237 301.672 185.668C302.017 187.918 303.013 188.186 303.013 188.186C303.013 188.186 302.991 188.121 302.956 188.003L309.918 188.68L313.682 188.038C313.745 188.406 313.77 188.624 313.77 188.624C324.753 186.945 331.145 181.161 332.183 180.158C333.095 180.763 334.795 181.751 336.443 181.967C338.856 182.285 339.716 180.365 339.532 179.538ZM311.232 185.068L302.388 184.746C302.262 182.333 302.886 179.51 306.441 179.366C309.869 179.227 311.74 182.014 312.731 184.565L311.232 185.068Z" fill="#2F2E41"/>
<path d="M349.225 210.539L347.437 204.461C347.437 204.461 352.086 193.378 346.722 192.305C341.358 191.233 341 202.674 341 202.674L343.146 209.467L349.225 210.539Z" fill="#FFB6B6"/>
<path d="M313.543 164.43C314.395 164.285 315.041 163.906 314.986 163.583C314.931 163.261 314.196 163.118 313.344 163.263C312.492 163.409 311.846 163.788 311.901 164.11C311.956 164.432 312.692 164.575 313.543 164.43Z" fill="#2F2E41"/>
<path d="M340.643 207.321L346.364 206.606C346.364 206.606 353.159 210.182 353.159 214.83C353.159 219.477 357.093 226.985 357.093 226.985C357.093 226.985 359.954 236.996 353.517 237.711C347.08 238.426 341.358 226.985 341.358 226.985L340.643 207.321Z" fill="#64D9DA"/>
<path d="M721.662 179.16V195H720.353C720.155 195 719.986 194.967 719.847 194.901C719.708 194.828 719.576 194.71 719.451 194.549L710.75 183.373C710.772 183.586 710.787 183.798 710.794 184.011C710.809 184.216 710.816 184.407 710.816 184.583V195H708.55V179.16H709.892C710.002 179.16 710.094 179.167 710.167 179.182C710.248 179.189 710.321 179.208 710.387 179.237C710.453 179.266 710.515 179.31 710.574 179.369C710.633 179.428 710.695 179.501 710.761 179.589L719.473 190.776C719.451 190.549 719.433 190.325 719.418 190.105C719.411 189.885 719.407 189.68 719.407 189.489V179.16H721.662ZM729.504 183.604C730.333 183.604 731.081 183.74 731.748 184.011C732.423 184.282 732.995 184.667 733.464 185.166C733.941 185.665 734.307 186.27 734.564 186.981C734.821 187.692 734.949 188.492 734.949 189.379C734.949 190.266 734.821 191.066 734.564 191.777C734.307 192.488 733.941 193.097 733.464 193.603C732.995 194.102 732.423 194.487 731.748 194.758C731.081 195.029 730.333 195.165 729.504 195.165C728.668 195.165 727.913 195.029 727.238 194.758C726.571 194.487 725.999 194.102 725.522 193.603C725.045 193.097 724.679 192.488 724.422 191.777C724.165 191.066 724.037 190.266 724.037 189.379C724.037 188.492 724.165 187.692 724.422 186.981C724.679 186.27 725.045 185.665 725.522 185.166C725.999 184.667 726.571 184.282 727.238 184.011C727.913 183.74 728.668 183.604 729.504 183.604ZM729.504 193.317C730.516 193.317 731.268 192.98 731.759 192.305C732.258 191.623 732.507 190.651 732.507 189.39C732.507 188.129 732.258 187.157 731.759 186.475C731.268 185.786 730.516 185.441 729.504 185.441C728.477 185.441 727.715 185.786 727.216 186.475C726.717 187.157 726.468 188.129 726.468 189.39C726.468 190.651 726.717 191.623 727.216 192.305C727.715 192.98 728.477 193.317 729.504 193.317ZM757.044 187.08C757.044 188.253 756.853 189.328 756.472 190.303C756.09 191.271 755.551 192.103 754.855 192.8C754.165 193.497 753.333 194.039 752.358 194.428C751.39 194.809 750.312 195 749.124 195H743.14V179.16H749.124C750.312 179.16 751.39 179.354 752.358 179.743C753.333 180.124 754.165 180.663 754.855 181.36C755.551 182.057 756.09 182.893 756.472 183.868C756.853 184.836 757.044 185.907 757.044 187.08ZM754.415 187.08C754.415 186.171 754.29 185.353 754.041 184.627C753.799 183.901 753.447 183.289 752.985 182.79C752.53 182.291 751.976 181.91 751.324 181.646C750.671 181.375 749.938 181.239 749.124 181.239H745.725V192.921H749.124C749.938 192.921 750.671 192.789 751.324 192.525C751.976 192.261 752.53 191.88 752.985 191.381C753.447 190.875 753.799 190.263 754.041 189.544C754.29 188.818 754.415 187.997 754.415 187.08ZM765.152 190.094C764.308 190.123 763.597 190.193 763.018 190.303C762.438 190.406 761.969 190.541 761.61 190.71C761.25 190.871 760.99 191.066 760.829 191.293C760.675 191.52 760.598 191.77 760.598 192.041C760.598 192.305 760.638 192.532 760.719 192.723C760.807 192.906 760.924 193.06 761.071 193.185C761.225 193.302 761.401 193.39 761.599 193.449C761.804 193.5 762.028 193.526 762.27 193.526C762.886 193.526 763.414 193.412 763.854 193.185C764.301 192.95 764.734 192.613 765.152 192.173V190.094ZM758.882 185.342C760.15 184.161 761.661 183.571 763.414 183.571C764.059 183.571 764.631 183.677 765.13 183.89C765.636 184.095 766.057 184.389 766.395 184.77C766.739 185.151 767 185.606 767.176 186.134C767.359 186.655 767.451 187.234 767.451 187.872V195H766.395C766.167 195 765.995 194.967 765.878 194.901C765.76 194.828 765.661 194.685 765.581 194.472L765.35 193.559C765.064 193.816 764.781 194.047 764.503 194.252C764.224 194.45 763.934 194.619 763.634 194.758C763.34 194.897 763.021 195 762.677 195.066C762.339 195.139 761.965 195.176 761.555 195.176C761.1 195.176 760.675 195.114 760.279 194.989C759.89 194.864 759.553 194.677 759.267 194.428C758.981 194.171 758.753 193.856 758.585 193.482C758.423 193.108 758.343 192.668 758.343 192.162C758.343 191.729 758.456 191.308 758.684 190.897C758.918 190.486 759.3 190.12 759.828 189.797C760.363 189.467 761.063 189.196 761.929 188.983C762.801 188.77 763.876 188.649 765.152 188.62V187.872C765.152 187.065 764.979 186.464 764.635 186.068C764.29 185.672 763.784 185.474 763.117 185.474C762.662 185.474 762.281 185.533 761.973 185.65C761.665 185.76 761.397 185.881 761.17 186.013C760.942 186.145 760.741 186.27 760.565 186.387C760.389 186.497 760.202 186.552 760.004 186.552C759.842 186.552 759.703 186.512 759.586 186.431C759.476 186.343 759.384 186.237 759.311 186.112L758.882 185.342ZM773.668 195.176C772.737 195.176 772.018 194.916 771.512 194.395C771.013 193.867 770.764 193.126 770.764 192.173V185.639H769.532C769.4 185.639 769.286 185.599 769.191 185.518C769.096 185.43 769.048 185.302 769.048 185.133V184.176L770.863 183.912L771.38 180.667C771.417 180.542 771.479 180.443 771.567 180.37C771.655 180.289 771.772 180.249 771.919 180.249H773.129V183.934H776.242V185.639H773.129V192.008C773.129 192.411 773.228 192.719 773.426 192.932C773.624 193.145 773.888 193.251 774.218 193.251C774.401 193.251 774.559 193.229 774.691 193.185C774.823 193.134 774.937 193.082 775.032 193.031C775.127 192.972 775.208 192.921 775.274 192.877C775.347 192.826 775.417 192.8 775.483 192.8C775.615 192.8 775.721 192.873 775.802 193.02L776.506 194.175C776.139 194.498 775.707 194.747 775.208 194.923C774.709 195.092 774.196 195.176 773.668 195.176ZM784.101 190.094C783.258 190.123 782.546 190.193 781.967 190.303C781.388 190.406 780.918 190.541 780.559 190.71C780.2 190.871 779.939 191.066 779.778 191.293C779.624 191.52 779.547 191.77 779.547 192.041C779.547 192.305 779.587 192.532 779.668 192.723C779.756 192.906 779.873 193.06 780.02 193.185C780.174 193.302 780.35 193.39 780.548 193.449C780.753 193.5 780.977 193.526 781.219 193.526C781.835 193.526 782.363 193.412 782.803 193.185C783.25 192.95 783.683 192.613 784.101 192.173V190.094ZM777.831 185.342C779.1 184.161 780.61 183.571 782.363 183.571C783.008 183.571 783.58 183.677 784.079 183.89C784.585 184.095 785.007 184.389 785.344 184.77C785.689 185.151 785.949 185.606 786.125 186.134C786.308 186.655 786.4 187.234 786.4 187.872V195H785.344C785.117 195 784.944 194.967 784.827 194.901C784.71 194.828 784.611 194.685 784.53 194.472L784.299 193.559C784.013 193.816 783.731 194.047 783.452 194.252C783.173 194.45 782.884 194.619 782.583 194.758C782.29 194.897 781.971 195 781.626 195.066C781.289 195.139 780.915 195.176 780.504 195.176C780.049 195.176 779.624 195.114 779.228 194.989C778.839 194.864 778.502 194.677 778.216 194.428C777.93 194.171 777.703 193.856 777.534 193.482C777.373 193.108 777.292 192.668 777.292 192.162C777.292 191.729 777.406 191.308 777.633 190.897C777.868 190.486 778.249 190.12 778.777 189.797C779.312 189.467 780.013 189.196 780.878 188.983C781.751 188.77 782.825 188.649 784.101 188.62V187.872C784.101 187.065 783.929 186.464 783.584 186.068C783.239 185.672 782.733 185.474 782.066 185.474C781.611 185.474 781.23 185.533 780.922 185.65C780.614 185.76 780.346 185.881 780.119 186.013C779.892 186.145 779.69 186.27 779.514 186.387C779.338 186.497 779.151 186.552 778.953 186.552C778.792 186.552 778.652 186.512 778.535 186.431C778.425 186.343 778.333 186.237 778.26 186.112L777.831 185.342ZM797.674 181.239V186.31H803.867V188.389H797.674V195H795.089V179.16H804.967V181.239H797.674ZM810.973 183.604C811.801 183.604 812.549 183.74 813.217 184.011C813.891 184.282 814.463 184.667 814.933 185.166C815.409 185.665 815.776 186.27 816.033 186.981C816.289 187.692 816.418 188.492 816.418 189.379C816.418 190.266 816.289 191.066 816.033 191.777C815.776 192.488 815.409 193.097 814.933 193.603C814.463 194.102 813.891 194.487 813.217 194.758C812.549 195.029 811.801 195.165 810.973 195.165C810.137 195.165 809.381 195.029 808.707 194.758C808.039 194.487 807.467 194.102 806.991 193.603C806.514 193.097 806.147 192.488 805.891 191.777C805.634 191.066 805.506 190.266 805.506 189.379C805.506 188.492 805.634 187.692 805.891 186.981C806.147 186.27 806.514 185.665 806.991 185.166C807.467 184.667 808.039 184.282 808.707 184.011C809.381 183.74 810.137 183.604 810.973 183.604ZM810.973 193.317C811.985 193.317 812.736 192.98 813.228 192.305C813.726 191.623 813.976 190.651 813.976 189.39C813.976 188.129 813.726 187.157 813.228 186.475C812.736 185.786 811.985 185.441 810.973 185.441C809.946 185.441 809.183 185.786 808.685 186.475C808.186 187.157 807.937 188.129 807.937 189.39C807.937 190.651 808.186 191.623 808.685 192.305C809.183 192.98 809.946 193.317 810.973 193.317ZM828.15 183.78V195H826.72C826.405 195 826.203 194.85 826.115 194.549L825.939 193.504C825.704 193.753 825.455 193.981 825.191 194.186C824.934 194.391 824.659 194.567 824.366 194.714C824.073 194.861 823.757 194.974 823.42 195.055C823.09 195.136 822.734 195.176 822.353 195.176C821.737 195.176 821.194 195.073 820.725 194.868C820.256 194.663 819.86 194.373 819.537 193.999C819.222 193.625 818.983 193.178 818.822 192.657C818.661 192.129 818.58 191.55 818.58 190.919V183.78H820.945V190.919C820.945 191.674 821.117 192.261 821.462 192.679C821.814 193.097 822.346 193.306 823.057 193.306C823.578 193.306 824.062 193.189 824.509 192.954C824.964 192.712 825.389 192.382 825.785 191.964V183.78H828.15ZM833.233 185.265C833.475 185.016 833.724 184.792 833.981 184.594C834.245 184.389 834.524 184.213 834.817 184.066C835.11 183.919 835.422 183.806 835.752 183.725C836.082 183.644 836.441 183.604 836.83 183.604C837.446 183.604 837.985 183.707 838.447 183.912C838.916 184.117 839.309 184.407 839.624 184.781C839.947 185.155 840.189 185.606 840.35 186.134C840.511 186.655 840.592 187.23 840.592 187.861V195H838.238V187.861C838.238 187.106 838.062 186.519 837.71 186.101C837.365 185.683 836.837 185.474 836.126 185.474C835.598 185.474 835.107 185.595 834.652 185.837C834.205 186.079 833.783 186.409 833.387 186.827V195H831.022V183.78H832.452C832.775 183.78 832.98 183.93 833.068 184.231L833.233 185.265ZM850.515 186.541C850.185 186.116 849.822 185.819 849.426 185.65C849.03 185.481 848.601 185.397 848.139 185.397C847.215 185.397 846.493 185.738 845.972 186.42C845.451 187.095 845.191 188.096 845.191 189.423C845.191 190.112 845.25 190.703 845.367 191.194C845.484 191.678 845.653 192.074 845.873 192.382C846.093 192.69 846.361 192.914 846.676 193.053C846.991 193.192 847.347 193.262 847.743 193.262C848.344 193.262 848.861 193.134 849.294 192.877C849.734 192.613 850.141 192.243 850.515 191.766V186.541ZM852.88 178.72V195H851.45C851.135 195 850.933 194.85 850.845 194.549L850.636 193.328C850.167 193.878 849.631 194.322 849.03 194.659C848.436 194.996 847.743 195.165 846.951 195.165C846.32 195.165 845.748 195.04 845.235 194.791C844.722 194.534 844.282 194.164 843.915 193.68C843.548 193.196 843.262 192.598 843.057 191.887C842.859 191.168 842.76 190.347 842.76 189.423C842.76 188.587 842.87 187.813 843.09 187.102C843.317 186.391 843.64 185.775 844.058 185.254C844.476 184.726 844.982 184.315 845.576 184.022C846.177 183.721 846.848 183.571 847.589 183.571C848.249 183.571 848.81 183.677 849.272 183.89C849.734 184.095 850.148 184.385 850.515 184.759V178.72H852.88Z" fill="black"/>
</svg>
