<svg width="491" height="338" viewBox="0 0 491 338" fill="none" xmlns="http://www.w3.org/2000/svg">
<path d="M186.662 294.16V310H185.353C185.155 310 184.986 309.967 184.847 309.901C184.708 309.828 184.576 309.71 184.451 309.549L175.75 298.373C175.772 298.586 175.787 298.798 175.794 299.011C175.809 299.216 175.816 299.407 175.816 299.583V310H173.55V294.16H174.892C175.002 294.16 175.094 294.167 175.167 294.182C175.248 294.189 175.321 294.208 175.387 294.237C175.453 294.266 175.515 294.31 175.574 294.369C175.633 294.428 175.695 294.501 175.761 294.589L184.473 305.776C184.451 305.549 184.433 305.325 184.418 305.105C184.411 304.885 184.407 304.68 184.407 304.489V294.16H186.662ZM194.504 298.604C195.333 298.604 196.081 298.74 196.748 299.011C197.423 299.282 197.995 299.667 198.464 300.166C198.941 300.665 199.307 301.27 199.564 301.981C199.821 302.692 199.949 303.492 199.949 304.379C199.949 305.266 199.821 306.066 199.564 306.777C199.307 307.488 198.941 308.097 198.464 308.603C197.995 309.102 197.423 309.487 196.748 309.758C196.081 310.029 195.333 310.165 194.504 310.165C193.668 310.165 192.913 310.029 192.238 309.758C191.571 309.487 190.999 309.102 190.522 308.603C190.045 308.097 189.679 307.488 189.422 306.777C189.165 306.066 189.037 305.266 189.037 304.379C189.037 303.492 189.165 302.692 189.422 301.981C189.679 301.27 190.045 300.665 190.522 300.166C190.999 299.667 191.571 299.282 192.238 299.011C192.913 298.74 193.668 298.604 194.504 298.604ZM194.504 308.317C195.516 308.317 196.268 307.98 196.759 307.305C197.258 306.623 197.507 305.651 197.507 304.39C197.507 303.129 197.258 302.157 196.759 301.475C196.268 300.786 195.516 300.441 194.504 300.441C193.477 300.441 192.715 300.786 192.216 301.475C191.717 302.157 191.468 303.129 191.468 304.39C191.468 305.651 191.717 306.623 192.216 307.305C192.715 307.98 193.477 308.317 194.504 308.317ZM222.044 302.08C222.044 303.253 221.853 304.328 221.472 305.303C221.09 306.271 220.551 307.103 219.855 307.8C219.165 308.497 218.333 309.039 217.358 309.428C216.39 309.809 215.312 310 214.124 310H208.14V294.16H214.124C215.312 294.16 216.39 294.354 217.358 294.743C218.333 295.124 219.165 295.663 219.855 296.36C220.551 297.057 221.09 297.893 221.472 298.868C221.853 299.836 222.044 300.907 222.044 302.08ZM219.415 302.08C219.415 301.171 219.29 300.353 219.041 299.627C218.799 298.901 218.447 298.289 217.985 297.79C217.53 297.291 216.976 296.91 216.324 296.646C215.671 296.375 214.938 296.239 214.124 296.239H210.725V307.921H214.124C214.938 307.921 215.671 307.789 216.324 307.525C216.976 307.261 217.53 306.88 217.985 306.381C218.447 305.875 218.799 305.263 219.041 304.544C219.29 303.818 219.415 302.997 219.415 302.08ZM230.152 305.094C229.308 305.123 228.597 305.193 228.018 305.303C227.438 305.406 226.969 305.541 226.61 305.71C226.25 305.871 225.99 306.066 225.829 306.293C225.675 306.52 225.598 306.77 225.598 307.041C225.598 307.305 225.638 307.532 225.719 307.723C225.807 307.906 225.924 308.06 226.071 308.185C226.225 308.302 226.401 308.39 226.599 308.449C226.804 308.5 227.028 308.526 227.27 308.526C227.886 308.526 228.414 308.412 228.854 308.185C229.301 307.95 229.734 307.613 230.152 307.173V305.094ZM223.882 300.342C225.15 299.161 226.661 298.571 228.414 298.571C229.059 298.571 229.631 298.677 230.13 298.89C230.636 299.095 231.057 299.389 231.395 299.77C231.739 300.151 232 300.606 232.176 301.134C232.359 301.655 232.451 302.234 232.451 302.872V310H231.395C231.167 310 230.995 309.967 230.878 309.901C230.76 309.828 230.661 309.685 230.581 309.472L230.35 308.559C230.064 308.816 229.781 309.047 229.503 309.252C229.224 309.45 228.934 309.619 228.634 309.758C228.34 309.897 228.021 310 227.677 310.066C227.339 310.139 226.965 310.176 226.555 310.176C226.1 310.176 225.675 310.114 225.279 309.989C224.89 309.864 224.553 309.677 224.267 309.428C223.981 309.171 223.753 308.856 223.585 308.482C223.423 308.108 223.343 307.668 223.343 307.162C223.343 306.729 223.456 306.308 223.684 305.897C223.918 305.486 224.3 305.12 224.828 304.797C225.363 304.467 226.063 304.196 226.929 303.983C227.801 303.77 228.876 303.649 230.152 303.62V302.872C230.152 302.065 229.979 301.464 229.635 301.068C229.29 300.672 228.784 300.474 228.117 300.474C227.662 300.474 227.281 300.533 226.973 300.65C226.665 300.76 226.397 300.881 226.17 301.013C225.942 301.145 225.741 301.27 225.565 301.387C225.389 301.497 225.202 301.552 225.004 301.552C224.842 301.552 224.703 301.512 224.586 301.431C224.476 301.343 224.384 301.237 224.311 301.112L223.882 300.342ZM238.668 310.176C237.737 310.176 237.018 309.916 236.512 309.395C236.013 308.867 235.764 308.126 235.764 307.173V300.639H234.532C234.4 300.639 234.286 300.599 234.191 300.518C234.096 300.43 234.048 300.302 234.048 300.133V299.176L235.863 298.912L236.38 295.667C236.417 295.542 236.479 295.443 236.567 295.37C236.655 295.289 236.772 295.249 236.919 295.249H238.129V298.934H241.242V300.639H238.129V307.008C238.129 307.411 238.228 307.719 238.426 307.932C238.624 308.145 238.888 308.251 239.218 308.251C239.401 308.251 239.559 308.229 239.691 308.185C239.823 308.134 239.937 308.082 240.032 308.031C240.127 307.972 240.208 307.921 240.274 307.877C240.347 307.826 240.417 307.8 240.483 307.8C240.615 307.8 240.721 307.873 240.802 308.02L241.506 309.175C241.139 309.498 240.707 309.747 240.208 309.923C239.709 310.092 239.196 310.176 238.668 310.176ZM249.101 305.094C248.258 305.123 247.546 305.193 246.967 305.303C246.388 305.406 245.918 305.541 245.559 305.71C245.2 305.871 244.939 306.066 244.778 306.293C244.624 306.52 244.547 306.77 244.547 307.041C244.547 307.305 244.587 307.532 244.668 307.723C244.756 307.906 244.873 308.06 245.02 308.185C245.174 308.302 245.35 308.39 245.548 308.449C245.753 308.5 245.977 308.526 246.219 308.526C246.835 308.526 247.363 308.412 247.803 308.185C248.25 307.95 248.683 307.613 249.101 307.173V305.094ZM242.831 300.342C244.1 299.161 245.61 298.571 247.363 298.571C248.008 298.571 248.58 298.677 249.079 298.89C249.585 299.095 250.007 299.389 250.344 299.77C250.689 300.151 250.949 300.606 251.125 301.134C251.308 301.655 251.4 302.234 251.4 302.872V310H250.344C250.117 310 249.944 309.967 249.827 309.901C249.71 309.828 249.611 309.685 249.53 309.472L249.299 308.559C249.013 308.816 248.731 309.047 248.452 309.252C248.173 309.45 247.884 309.619 247.583 309.758C247.29 309.897 246.971 310 246.626 310.066C246.289 310.139 245.915 310.176 245.504 310.176C245.049 310.176 244.624 310.114 244.228 309.989C243.839 309.864 243.502 309.677 243.216 309.428C242.93 309.171 242.703 308.856 242.534 308.482C242.373 308.108 242.292 307.668 242.292 307.162C242.292 306.729 242.406 306.308 242.633 305.897C242.868 305.486 243.249 305.12 243.777 304.797C244.312 304.467 245.013 304.196 245.878 303.983C246.751 303.77 247.825 303.649 249.101 303.62V302.872C249.101 302.065 248.929 301.464 248.584 301.068C248.239 300.672 247.733 300.474 247.066 300.474C246.611 300.474 246.23 300.533 245.922 300.65C245.614 300.76 245.346 300.881 245.119 301.013C244.892 301.145 244.69 301.27 244.514 301.387C244.338 301.497 244.151 301.552 243.953 301.552C243.792 301.552 243.652 301.512 243.535 301.431C243.425 301.343 243.333 301.237 243.26 301.112L242.831 300.342ZM262.674 296.239V301.31H268.867V303.389H262.674V310H260.089V294.16H269.967V296.239H262.674ZM275.973 298.604C276.801 298.604 277.549 298.74 278.217 299.011C278.891 299.282 279.463 299.667 279.933 300.166C280.409 300.665 280.776 301.27 281.033 301.981C281.289 302.692 281.418 303.492 281.418 304.379C281.418 305.266 281.289 306.066 281.033 306.777C280.776 307.488 280.409 308.097 279.933 308.603C279.463 309.102 278.891 309.487 278.217 309.758C277.549 310.029 276.801 310.165 275.973 310.165C275.137 310.165 274.381 310.029 273.707 309.758C273.039 309.487 272.467 309.102 271.991 308.603C271.514 308.097 271.147 307.488 270.891 306.777C270.634 306.066 270.506 305.266 270.506 304.379C270.506 303.492 270.634 302.692 270.891 301.981C271.147 301.27 271.514 300.665 271.991 300.166C272.467 299.667 273.039 299.282 273.707 299.011C274.381 298.74 275.137 298.604 275.973 298.604ZM275.973 308.317C276.985 308.317 277.736 307.98 278.228 307.305C278.726 306.623 278.976 305.651 278.976 304.39C278.976 303.129 278.726 302.157 278.228 301.475C277.736 300.786 276.985 300.441 275.973 300.441C274.946 300.441 274.183 300.786 273.685 301.475C273.186 302.157 272.937 303.129 272.937 304.39C272.937 305.651 273.186 306.623 273.685 307.305C274.183 307.98 274.946 308.317 275.973 308.317ZM293.15 298.78V310H291.72C291.405 310 291.203 309.85 291.115 309.549L290.939 308.504C290.704 308.753 290.455 308.981 290.191 309.186C289.934 309.391 289.659 309.567 289.366 309.714C289.073 309.861 288.757 309.974 288.42 310.055C288.09 310.136 287.734 310.176 287.353 310.176C286.737 310.176 286.194 310.073 285.725 309.868C285.256 309.663 284.86 309.373 284.537 308.999C284.222 308.625 283.983 308.178 283.822 307.657C283.661 307.129 283.58 306.55 283.58 305.919V298.78H285.945V305.919C285.945 306.674 286.117 307.261 286.462 307.679C286.814 308.097 287.346 308.306 288.057 308.306C288.578 308.306 289.062 308.189 289.509 307.954C289.964 307.712 290.389 307.382 290.785 306.964V298.78H293.15ZM298.233 300.265C298.475 300.016 298.724 299.792 298.981 299.594C299.245 299.389 299.524 299.213 299.817 299.066C300.11 298.919 300.422 298.806 300.752 298.725C301.082 298.644 301.441 298.604 301.83 298.604C302.446 298.604 302.985 298.707 303.447 298.912C303.916 299.117 304.309 299.407 304.624 299.781C304.947 300.155 305.189 300.606 305.35 301.134C305.511 301.655 305.592 302.23 305.592 302.861V310H303.238V302.861C303.238 302.106 303.062 301.519 302.71 301.101C302.365 300.683 301.837 300.474 301.126 300.474C300.598 300.474 300.107 300.595 299.652 300.837C299.205 301.079 298.783 301.409 298.387 301.827V310H296.022V298.78H297.452C297.775 298.78 297.98 298.93 298.068 299.231L298.233 300.265ZM315.515 301.541C315.185 301.116 314.822 300.819 314.426 300.65C314.03 300.481 313.601 300.397 313.139 300.397C312.215 300.397 311.493 300.738 310.972 301.42C310.451 302.095 310.191 303.096 310.191 304.423C310.191 305.112 310.25 305.703 310.367 306.194C310.484 306.678 310.653 307.074 310.873 307.382C311.093 307.69 311.361 307.914 311.676 308.053C311.991 308.192 312.347 308.262 312.743 308.262C313.344 308.262 313.861 308.134 314.294 307.877C314.734 307.613 315.141 307.243 315.515 306.766V301.541ZM317.88 293.72V310H316.45C316.135 310 315.933 309.85 315.845 309.549L315.636 308.328C315.167 308.878 314.631 309.322 314.03 309.659C313.436 309.996 312.743 310.165 311.951 310.165C311.32 310.165 310.748 310.04 310.235 309.791C309.722 309.534 309.282 309.164 308.915 308.68C308.548 308.196 308.262 307.598 308.057 306.887C307.859 306.168 307.76 305.347 307.76 304.423C307.76 303.587 307.87 302.813 308.09 302.102C308.317 301.391 308.64 300.775 309.058 300.254C309.476 299.726 309.982 299.315 310.576 299.022C311.177 298.721 311.848 298.571 312.589 298.571C313.249 298.571 313.81 298.677 314.272 298.89C314.734 299.095 315.148 299.385 315.515 299.759V293.72H317.88Z" fill="black"/>
<rect width="425" height="265" transform="translate(33 24)" fill="white"/>
<g clip-path="url(#clip0_1278_24503)">
<path d="M273.276 38.3302L63.1187 162.884C60.0156 164.723 58.9905 168.73 60.8291 171.833C62.6678 174.937 66.6739 175.961 69.777 174.122L279.935 49.5687C283.038 47.7296 284.063 43.7229 282.224 40.6194C280.385 37.516 276.379 36.4911 273.276 38.3302Z" fill="#F2F2F2" fill-opacity="0.55"/>
<path d="M321.396 49.3307L111.238 173.884C108.135 175.723 107.11 179.73 108.949 182.834C110.787 185.937 114.794 186.962 117.897 185.123L328.054 60.5692C331.157 58.7301 332.182 54.7234 330.344 51.6199C328.505 48.5165 324.499 47.4916 321.396 49.3307Z" fill="#F2F2F2" fill-opacity="0.55"/>
<path d="M364.016 61.3629L153.859 185.917C150.755 187.756 149.73 191.762 151.569 194.866C153.408 197.969 157.414 198.994 160.517 197.155L370.674 72.6015C373.778 70.7623 374.803 66.7556 372.964 63.6522C371.125 60.5487 367.119 59.5238 364.016 61.3629Z" fill="#F2F2F2" fill-opacity="0.55"/>
<path d="M201.706 188.814C239.988 188.814 271.022 157.775 271.022 119.485C271.022 81.1963 239.988 50.1567 201.706 50.1567C163.424 50.1567 132.39 81.1963 132.39 119.485C132.39 157.775 163.424 188.814 201.706 188.814Z" fill="white"/>
<path d="M131.875 119.485C131.875 80.9732 163.201 49.6411 201.706 49.6411C240.212 49.6411 271.538 80.9732 271.538 119.485C271.538 157.998 240.212 189.33 201.706 189.33C163.201 189.33 131.875 157.998 131.875 119.485ZM132.906 119.485C132.906 157.429 163.769 188.298 201.706 188.298C239.643 188.298 270.507 157.429 270.507 119.485C270.507 81.5419 239.643 50.6724 201.706 50.6724C163.769 50.6724 132.906 81.5419 132.906 119.485Z" fill="#3F3D56"/>
<path d="M189.35 119.787C189.35 117.343 190.075 114.953 191.432 112.921C192.79 110.888 194.72 109.304 196.978 108.369C199.235 107.434 201.72 107.189 204.117 107.666C206.514 108.143 208.715 109.32 210.443 111.048C212.172 112.776 213.348 114.978 213.825 117.376C214.302 119.773 214.057 122.258 213.122 124.516C212.187 126.775 210.603 128.705 208.571 130.063C206.539 131.421 204.15 132.145 201.706 132.145C198.429 132.145 195.286 130.843 192.969 128.526C190.652 126.208 189.35 123.065 189.35 119.787ZM201.706 108.031C198.59 108.035 195.602 109.274 193.399 111.478C191.196 113.682 189.956 116.67 189.953 119.787C189.953 122.112 190.642 124.385 191.933 126.318C193.225 128.251 195.061 129.758 197.208 130.648C199.356 131.538 201.719 131.77 203.999 131.317C206.279 130.863 208.374 129.743 210.017 128.099C211.661 126.455 212.78 124.361 213.234 122.08C213.688 119.8 213.455 117.436 212.565 115.288C211.676 113.14 210.169 111.304 208.236 110.012C206.303 108.721 204.031 108.031 201.706 108.031Z" fill="#3F3D56"/>
<path d="M178.199 119.787C178.199 115.137 179.578 110.591 182.161 106.725C184.744 102.858 188.415 99.8446 192.71 98.0651C197.006 96.2856 201.732 95.82 206.292 96.7272C210.852 97.6344 215.041 99.8736 218.328 103.162C221.616 106.45 223.855 110.639 224.762 115.2C225.669 119.761 225.203 124.488 223.424 128.784C221.645 133.08 218.632 136.752 214.766 139.336C210.9 141.919 206.355 143.298 201.706 143.298C198.619 143.298 195.562 142.69 192.71 141.509C189.858 140.327 187.267 138.595 185.084 136.412C182.901 134.229 181.17 131.637 179.988 128.784C178.807 125.932 178.199 122.874 178.199 119.787ZM201.706 96.8782C197.176 96.8782 192.748 98.2218 188.981 100.739C185.215 103.256 182.279 106.834 180.545 111.02C178.812 115.206 178.358 119.812 179.242 124.256C180.126 128.7 182.307 132.782 185.51 135.986C188.714 139.19 192.795 141.371 197.238 142.255C201.681 143.139 206.286 142.686 210.471 140.952C214.657 139.218 218.234 136.282 220.751 132.514C223.267 128.747 224.611 124.318 224.611 119.787C224.604 113.713 222.188 107.89 217.895 103.596C213.601 99.3009 207.779 96.8851 201.706 96.8782Z" fill="#CCCCCC"/>
<path d="M155.897 119.787C155.897 110.725 158.584 101.867 163.617 94.3323C168.651 86.7977 175.805 80.9252 184.176 77.4574C192.546 73.9896 201.757 73.0822 210.643 74.8501C219.529 76.618 227.692 80.9817 234.098 87.3893C240.505 93.797 244.867 101.961 246.635 110.848C248.403 119.736 247.495 128.948 244.028 137.32C240.561 145.692 234.69 152.848 227.156 157.883C219.623 162.917 210.766 165.604 201.706 165.604C189.561 165.59 177.917 160.759 169.33 152.169C160.742 143.58 155.911 131.934 155.897 119.787ZM201.706 74.5726C192.765 74.5726 184.025 77.2244 176.591 82.1926C169.157 87.1608 163.363 94.2224 159.941 102.484C156.52 110.746 155.624 119.837 157.369 128.608C159.113 137.379 163.418 145.435 169.741 151.758C176.063 158.082 184.118 162.388 192.887 164.133C201.656 165.877 210.746 164.982 219.006 161.56C227.266 158.137 234.327 152.342 239.294 144.907C244.261 137.471 246.912 128.73 246.912 119.787C246.899 107.8 242.132 96.307 233.657 87.8306C225.182 79.3542 213.692 74.5862 201.706 74.5726Z" fill="#CCCCCC"/>
<path d="M201.706 125.213C204.869 125.213 207.432 122.648 207.432 119.485C207.432 116.322 204.869 113.758 201.706 113.758C198.544 113.758 195.98 116.322 195.98 119.485C195.98 122.648 198.544 125.213 201.706 125.213Z" fill="#64D9DA"/>
<path d="M186.939 141.791C190.101 141.791 192.665 139.227 192.665 136.064C192.665 132.901 190.101 130.337 186.939 130.337C183.776 130.337 181.213 132.901 181.213 136.064C181.213 139.227 183.776 141.791 186.939 141.791Z" fill="#64D9DA"/>
<path d="M244.551 139.38C247.714 139.38 250.277 136.815 250.277 133.652C250.277 130.489 247.714 127.925 244.551 127.925C241.389 127.925 238.825 130.489 238.825 133.652C238.825 136.815 241.389 139.38 244.551 139.38Z" fill="#64D9DA"/>
<path d="M201.706 122.199C203.204 122.199 204.419 120.984 204.419 119.486C204.419 117.988 203.204 116.773 201.706 116.773C200.208 116.773 198.994 117.988 198.994 119.486C198.994 120.984 200.208 122.199 201.706 122.199Z" fill="#2F2E41"/>
<path d="M244.551 136.366C246.049 136.366 247.263 135.151 247.263 133.653C247.263 132.155 246.049 130.94 244.551 130.94C243.053 130.94 241.839 132.155 241.839 133.653C241.839 135.151 243.053 136.366 244.551 136.366Z" fill="#2F2E41"/>
<path d="M186.939 139.078C188.437 139.078 189.651 137.863 189.651 136.365C189.651 134.867 188.437 133.652 186.939 133.652C185.441 133.652 184.226 134.867 184.226 136.365C184.226 137.863 185.441 139.078 186.939 139.078Z" fill="#2F2E41"/>
<path d="M75.1289 91.7543C76.6269 91.7543 77.8412 90.5397 77.8412 89.0415C77.8412 87.5432 76.6269 86.3286 75.1289 86.3286C73.6309 86.3286 72.4165 87.5432 72.4165 89.0415C72.4165 90.5397 73.6309 91.7543 75.1289 91.7543Z" fill="#377E7F"/>
<path d="M201.555 89.1922H82.5123V88.5894H202.159V119.636H201.555V89.1922Z" fill="#2F2E41"/>
<path d="M67.2931 89.0413C67.2931 87.4912 67.7526 85.976 68.6136 84.6872C69.4747 83.3984 70.6984 82.3939 72.1302 81.8007C73.562 81.2075 75.1375 81.0523 76.6575 81.3547C78.1775 81.6571 79.5737 82.4035 80.6695 83.4995C81.7654 84.5956 82.5117 85.992 82.814 87.5123C83.1164 89.0326 82.9612 90.6084 82.3681 92.0404C81.7751 93.4725 80.7707 94.6965 79.4821 95.5576C78.1936 96.4188 76.6786 96.8784 75.1288 96.8784C74.0998 96.8784 73.0809 96.6757 72.1302 96.2819C71.1796 95.888 70.3157 95.3107 69.5881 94.583C68.8605 93.8552 68.2833 92.9913 67.8895 92.0404C67.4958 91.0896 67.2931 90.0705 67.2931 89.0413ZM75.1288 81.807C73.6983 81.807 72.2999 82.2313 71.1104 83.0262C69.9209 83.8211 68.9939 84.9509 68.4464 86.2728C67.899 87.5947 67.7557 89.0493 68.0348 90.4526C68.3139 91.8559 69.0028 93.145 70.0143 94.1567C71.0259 95.1684 72.3147 95.8574 73.7177 96.1366C75.1208 96.4157 76.5751 96.2725 77.8968 95.7249C79.2184 95.1774 80.3481 94.2501 81.1428 93.0604C81.9376 91.8708 82.3618 90.4721 82.3618 89.0413C82.3596 87.1233 81.5969 85.2845 80.2409 83.9283C78.8849 82.5721 77.0465 81.8092 75.1288 81.807Z" fill="#2F2E41"/>
<path d="M93.2113 169.824C94.7093 169.824 95.9237 168.61 95.9237 167.111C95.9237 165.613 94.7093 164.398 93.2113 164.398C91.7133 164.398 90.499 165.613 90.499 167.111C90.499 168.61 91.7133 169.824 93.2113 169.824Z" fill="#377E7F"/>
<path d="M85.3756 167.111C85.3756 165.561 85.8352 164.046 86.6962 162.757C87.5572 161.468 88.7809 160.464 90.2127 159.87C91.6445 159.277 93.22 159.122 94.74 159.425C96.26 159.727 97.6562 160.473 98.752 161.569C99.8479 162.665 100.594 164.062 100.897 165.582C101.199 167.102 101.044 168.678 100.451 170.11C99.8576 171.542 98.8532 172.766 97.5647 173.627C96.2761 174.489 94.7611 174.948 93.2113 174.948C91.1332 174.948 89.1401 174.123 87.6706 172.653C86.2012 171.183 85.3756 169.19 85.3756 167.111ZM93.2113 159.877C91.7808 159.877 90.3824 160.301 89.1929 161.096C88.0035 161.891 87.0764 163.021 86.5289 164.343C85.9815 165.665 85.8382 167.119 86.1173 168.522C86.3964 169.926 87.0853 171.215 88.0968 172.226C89.1084 173.238 90.3972 173.927 91.8002 174.206C93.2033 174.486 94.6576 174.342 95.9793 173.795C97.3009 173.247 98.4306 172.32 99.2253 171.13C100.02 169.941 100.444 168.542 100.444 167.111C100.442 165.193 99.6794 163.354 98.3234 161.998C96.9674 160.642 95.129 159.879 93.2113 159.877Z" fill="#2F2E41"/>
<path d="M328.635 104.414C330.133 104.414 331.347 103.199 331.347 101.701C331.347 100.203 330.133 98.9883 328.635 98.9883C327.137 98.9883 325.922 100.203 325.922 101.701C325.922 103.199 327.137 104.414 328.635 104.414Z" fill="#377E7F"/>
<path d="M320.799 101.701C320.799 100.151 321.258 98.6356 322.119 97.3468C322.98 96.058 324.204 95.0535 325.636 94.4603C327.068 93.8672 328.643 93.712 330.163 94.0144C331.683 94.3168 333.079 95.0632 334.175 96.1592C335.271 97.2553 336.017 98.6517 336.32 100.172C336.622 101.692 336.467 103.268 335.874 104.7C335.281 106.132 334.276 107.356 332.988 108.217C331.699 109.078 330.184 109.538 328.635 109.538C327.606 109.538 326.587 109.335 325.636 108.942C324.685 108.548 323.821 107.97 323.094 107.243C322.366 106.515 321.789 105.651 321.395 104.7C321.002 103.749 320.799 102.73 320.799 101.701ZM328.635 94.4667C326.717 94.4688 324.878 95.2317 323.522 96.5879C322.167 97.9442 321.404 99.783 321.402 101.701C321.402 103.132 321.826 104.53 322.621 105.72C323.415 106.91 324.545 107.837 325.867 108.385C327.188 108.932 328.643 109.075 330.046 108.796C331.449 108.517 332.738 107.828 333.749 106.816C334.761 105.805 335.45 104.516 335.729 103.112C336.008 101.709 335.864 100.254 335.317 98.9325C334.77 97.6106 333.842 96.4807 332.653 95.6858C331.464 94.8909 330.065 94.4666 328.635 94.4667Z" fill="#2F2E41"/>
<path d="M244.25 102.61L321.095 101.4L321.105 102.002L244.852 103.204V133.653H244.25V102.61Z" fill="#2F2E41"/>
<path d="M100.746 166.81H186.637V136.366H187.24V167.412H100.746V166.81Z" fill="#2F2E41"/>
<path d="M91.7044 103.208H58.5532V105.318H91.7044V103.208Z" fill="#CCCCCC"/>
<path d="M91.7044 109.237H58.5532V111.347H91.7044V109.237Z" fill="#CCCCCC"/>
<path d="M91.7044 115.266H58.5532V117.376H91.7044V115.266Z" fill="#CCCCCC"/>
<path d="M109.787 181.278H76.6357V183.388H109.787V181.278Z" fill="#CCCCCC"/>
<path d="M109.787 187.307H76.6357V189.417H109.787V187.307Z" fill="#CCCCCC"/>
<path d="M109.787 193.336H76.6357V195.446H109.787V193.336Z" fill="#CCCCCC"/>
<path d="M345.21 116.169H312.059V118.279H345.21V116.169Z" fill="#CCCCCC"/>
<path d="M345.21 122.198H312.059V124.308H345.21V122.198Z" fill="#CCCCCC"/>
<path d="M345.21 128.227H312.059V130.337H345.21V128.227Z" fill="#CCCCCC"/>
</g>
<rect width="101" height="82" transform="translate(247.5 151)" fill="white"/>
<path d="M264.925 170.85H252.95C252.3 170.849 251.677 170.591 251.218 170.133C250.759 169.674 250.501 169.052 250.5 168.404V156.446C250.501 155.797 250.759 155.176 251.218 154.717C251.677 154.259 252.3 154.001 252.95 154H264.925C265.574 154.001 266.197 154.259 266.656 154.717C267.115 155.176 267.374 155.797 267.374 156.446V168.404C267.374 169.052 267.115 169.674 266.656 170.133C266.197 170.591 265.574 170.849 264.925 170.85Z" fill="#377E7F"/>
<path d="M264.925 201.831H252.95C252.3 201.831 251.677 201.573 251.218 201.114C250.759 200.656 250.501 200.034 250.5 199.385V187.427C250.501 186.779 250.759 186.157 251.218 185.699C251.677 185.24 252.3 184.982 252.95 184.981H264.925C265.574 184.982 266.197 185.24 266.656 185.699C267.115 186.157 267.374 186.779 267.374 187.427V199.385C267.374 200.034 267.115 200.656 266.656 201.114C266.197 201.573 265.574 201.831 264.925 201.831Z" fill="#3F3D56"/>
<path d="M264.925 232.814H252.95C252.3 232.813 251.677 232.555 251.218 232.097C250.759 231.638 250.501 231.016 250.5 230.368V218.41C250.501 217.761 250.759 217.14 251.218 216.681C251.677 216.223 252.3 215.965 252.95 215.964H264.925C265.574 215.965 266.197 216.223 266.656 216.681C267.115 217.14 267.374 217.761 267.374 218.41V230.368C267.374 231.016 267.115 231.638 266.656 232.097C266.197 232.555 265.574 232.813 264.925 232.814Z" fill="#CCCCCC"/>
<path d="M343.309 164.87H285.61C284.96 164.87 284.337 164.613 283.877 164.154C283.418 163.695 283.16 163.073 283.16 162.424C283.16 161.776 283.418 161.154 283.877 160.695C284.337 160.236 284.96 159.979 285.61 159.979H343.309C343.959 159.979 344.582 160.236 345.041 160.695C345.5 161.154 345.758 161.776 345.758 162.424C345.758 163.073 345.5 163.695 345.041 164.154C344.582 164.613 343.959 164.87 343.309 164.87Z" fill="#CCCCCC"/>
<path d="M343.309 195.853H285.61C284.96 195.853 284.337 195.595 283.877 195.136C283.418 194.678 283.16 194.056 283.16 193.407C283.16 192.758 283.418 192.136 283.877 191.677C284.337 191.219 284.96 190.961 285.61 190.961H343.309C343.959 190.961 344.582 191.219 345.041 191.677C345.5 192.136 345.758 192.758 345.758 193.407C345.758 194.056 345.5 194.678 345.041 195.136C344.582 195.595 343.959 195.853 343.309 195.853Z" fill="#CCCCCC"/>
<path d="M343.309 226.834H285.61C284.96 226.834 284.337 226.577 283.877 226.118C283.418 225.659 283.16 225.037 283.16 224.388C283.16 223.74 283.418 223.117 283.877 222.659C284.337 222.2 284.96 221.942 285.61 221.942H343.309C343.959 221.942 344.582 222.2 345.041 222.659C345.5 223.117 345.758 223.74 345.758 224.388C345.758 225.037 345.5 225.659 345.041 226.118C344.582 226.577 343.959 226.834 343.309 226.834Z" fill="#CCCCCC"/>
<path d="M56 281C56 281.277 56.8334 281.5 57.8712 281.5H456.129C457.167 281.5 458 281.277 458 281C458 280.723 457.167 280.5 456.129 280.5H57.8712C56.8334 280.5 56 280.723 56 281Z" fill="#CCCCCC"/>
<path d="M337.457 153.424C337.614 153.606 337.757 153.799 337.884 154.003L359.601 154.531L362.428 150.042L369.716 153.305L364.292 164.083L337.399 159.495C337.272 159.639 337.138 159.775 336.995 159.902C336.311 160.484 335.47 160.85 334.578 160.956C333.686 161.062 332.782 160.901 331.98 160.496C331.179 160.09 330.514 159.457 330.071 158.675C329.628 157.894 329.426 157 329.489 156.104C329.553 155.209 329.88 154.353 330.43 153.643C330.979 152.934 331.727 152.402 332.578 152.116C333.429 151.83 334.346 151.801 335.214 152.034C336.082 152.267 336.862 152.75 337.457 153.424Z" fill="#FFB8B8"/>
<path d="M369.642 274.675L364.18 274.675L361.581 253.635L369.643 253.636L369.642 274.675Z" fill="#FFB8B8"/>
<path d="M360.278 273.116H370.813V279.739H353.645C353.645 278.869 353.816 278.008 354.149 277.205C354.483 276.401 354.971 275.671 355.587 275.056C356.203 274.441 356.934 273.953 357.739 273.62C358.544 273.287 359.407 273.116 360.278 273.116Z" fill="#2F2E41"/>
<path d="M390.887 273.134L385.451 273.669L380.798 252.985L388.822 252.196L390.887 273.134Z" fill="#FFB8B8"/>
<path d="M381.415 272.499L391.899 271.468L392.549 278.06L375.464 279.74C375.378 278.874 375.464 278 375.717 277.168C375.97 276.336 376.385 275.561 376.937 274.889C377.49 274.217 378.17 273.659 378.938 273.249C379.706 272.839 380.548 272.584 381.415 272.499Z" fill="#2F2E41"/>
<path d="M371.163 129.681C377.207 129.681 382.106 124.789 382.106 118.753C382.106 112.718 377.207 107.826 371.163 107.826C365.119 107.826 360.219 112.718 360.219 118.753C360.219 124.789 365.119 129.681 371.163 129.681Z" fill="#FFB8B8"/>
<path d="M362.959 270.421C362.489 270.422 362.035 270.257 361.675 269.956C361.315 269.655 361.073 269.237 360.992 268.776C358.164 253.103 348.922 201.857 348.701 200.438C348.696 200.405 348.694 200.372 348.694 200.339V196.518C348.694 196.379 348.737 196.243 348.819 196.13L350.04 194.422C350.098 194.34 350.174 194.273 350.262 194.224C350.35 194.176 350.449 194.149 350.549 194.144C357.51 193.818 380.306 192.863 381.407 194.237C382.513 195.618 382.123 199.802 382.033 200.627L382.037 200.713L392.279 266.114C392.359 266.635 392.23 267.168 391.921 267.595C391.611 268.023 391.145 268.311 390.624 268.398L384.227 269.451C383.75 269.527 383.262 269.43 382.851 269.178C382.441 268.925 382.134 268.534 381.988 268.075C380.009 261.762 373.375 240.526 371.076 232.309C371.062 232.257 371.029 232.212 370.984 232.182C370.939 232.153 370.884 232.14 370.831 232.148C370.777 232.156 370.728 232.182 370.693 232.223C370.658 232.264 370.639 232.317 370.639 232.371C370.754 240.204 371.032 260.189 371.127 267.091L371.138 267.834C371.142 268.338 370.957 268.824 370.62 269.198C370.282 269.572 369.816 269.805 369.314 269.853L363.146 270.412C363.083 270.418 363.021 270.421 362.959 270.421Z" fill="#2F2E41"/>
<path d="M364.217 133.978C362.308 135.112 361.165 137.195 360.509 139.315C359.295 143.24 358.564 147.298 358.333 151.399L357.64 163.679L349.06 196.234C356.496 202.517 360.785 201.089 370.795 195.95C380.805 190.811 381.949 197.663 381.949 197.663L383.95 169.963L386.81 139.694C386.168 138.922 385.442 138.225 384.644 137.614C382.001 135.562 378.925 134.135 375.649 133.442C372.374 132.749 368.983 132.807 365.733 133.612L364.217 133.978Z" fill="#64D9DA"/>
<path d="M361.431 171.996C361.661 172.083 361.885 172.187 362.099 172.309L381.859 162.433L382.187 157.083L390.339 156.521L390.775 168.718L364.368 177.438C364.153 178.362 363.661 179.198 362.958 179.835C362.255 180.473 361.374 180.881 360.433 181.007C359.491 181.132 358.534 180.968 357.688 180.537C356.842 180.106 356.148 179.428 355.697 178.594C355.247 177.759 355.061 176.807 355.166 175.864C355.27 174.922 355.659 174.033 356.282 173.317C356.904 172.601 357.73 172.091 358.65 171.855C359.57 171.619 360.54 171.668 361.431 171.996Z" fill="#FFB8B8"/>
<path d="M386.667 139.832C391.529 141.546 392.385 160.109 392.385 160.109C386.666 156.968 379.802 162.108 379.802 162.108C379.802 162.108 378.372 157.253 376.656 150.971C376.138 149.204 376.076 147.334 376.476 145.537C376.876 143.739 377.725 142.072 378.944 140.69C378.944 140.69 381.805 138.118 386.667 139.832Z" fill="#64D9DA"/>
<path d="M380.975 121.643C379.612 120.554 377.752 122.534 377.752 122.534L376.661 112.731C376.661 112.731 369.843 113.546 365.48 112.459C361.117 111.371 360.435 116.407 360.435 116.407C360.21 114.373 360.164 112.323 360.299 110.28C360.571 107.83 364.116 105.379 370.388 103.745C376.661 102.111 379.933 109.191 379.933 109.191C384.297 111.369 382.339 122.733 380.975 121.643Z" fill="#2F2E41"/>
<defs>
<clipPath id="clip0_1278_24503">
<rect width="312" height="174" fill="white" transform="translate(57.5 35)"/>
</clipPath>
</defs>
</svg>
