<svg width="314" height="356" viewBox="0 0 314 356" fill="none" xmlns="http://www.w3.org/2000/svg">
<path d="M7.76107 23.8348H0V18.1689H22.6438V23.8348H14.9123V43.4392H7.76107V23.8348Z" fill="black"/>
<path d="M117.105 24.5957V43.4426H124.256V25.0875L117.105 24.5957Z" fill="black"/>
<path d="M38.1558 36.7238H34.2506V43.4422H27.1093V18.1621H38.6673C45.5627 18.1621 49.9006 21.7328 49.9006 27.5167C49.9006 31.2349 48.0907 33.9794 44.9528 35.4942L50.4023 43.4422H42.7494L38.1558 36.7238ZM38.2344 23.7985H34.2605V31.2054H38.2344C41.1953 31.2054 42.6806 29.8382 42.6806 27.5266C42.6708 25.1756 41.1953 23.7985 38.2344 23.7985Z" fill="black"/>
<path d="M72.5731 38.5337H61.8807L59.8937 43.4422H52.595L63.7497 18.1621H70.7927L81.9867 43.4422H74.5503L72.5731 38.5337ZM70.4779 33.2613L67.2318 25.1756L63.9858 33.2613H70.4779Z" fill="black"/>
<path d="M164.763 36.7238H160.858V43.4422H153.707V18.1621H165.265C172.16 18.1621 176.498 21.7328 176.498 27.5167C176.498 31.2349 174.688 33.9794 171.551 35.4942L177 43.4422H169.347L164.763 36.7238ZM164.842 23.7985H160.868V31.2054H164.842C167.803 31.2054 169.288 29.8382 169.288 27.5266C169.278 25.1756 167.803 23.7985 164.842 23.7985Z" fill="black"/>
<path d="M121.718 19.3081C119.328 19.4556 116.751 19.3081 114.872 18.9343C113.485 18.6589 112.482 18.2556 112.216 17.7539H121.305L121.718 19.3081Z" fill="black"/>
<path d="M38.036 54.2037H34.3374V51.4199H45.0199V54.2037H41.2919V63.4894H38.036V54.2037Z" fill="black"/>
<path d="M55.7226 63.6793C51.4339 63.6793 50.3617 62.6563 50.3617 58.5348V51.4131H53.6176V58.5348C53.6176 60.7972 53.834 61.0431 55.7226 61.0431C57.6113 61.0431 57.8277 60.7972 57.8277 58.5348V51.4131H61.0836V58.5348C61.0737 62.6563 60.0114 63.6793 55.7226 63.6793Z" fill="black"/>
<path d="M77.0285 51.4199V54.2037H70.3691V56.0628H76.4088V58.699H70.3691V60.7155H77.058V63.4993H67.1132V51.4199H77.0285Z" fill="black"/>
<path d="M90.7103 60.0774C90.7103 59.379 90.1103 59.0839 87.8282 58.6413C83.8837 57.8543 82.8902 57.1067 82.8902 54.864C82.8902 51.972 84.0313 51.2441 88.4479 51.2441C92.894 51.2441 94.0351 52.1294 94.0351 55.6608H90.6316C90.6316 54.0476 90.3955 53.8803 88.4479 53.8803C86.5298 53.8803 86.2937 53.9885 86.2937 54.9033C86.2937 55.5427 86.7462 55.769 88.3889 56.1133C92.9137 56.9985 94.1138 57.8347 94.1138 60.2643C94.1138 63.0185 92.9531 63.6973 88.4479 63.6973C83.8149 63.6973 82.6246 62.8415 82.6246 59.4577H86.0281C86.0281 60.9135 86.274 61.0709 88.3495 61.0709C90.4644 61.0512 90.7103 60.9529 90.7103 60.0774Z" fill="black"/>
<path d="M99.9962 51.4199H106.233C110.649 51.4199 111.741 52.6298 111.741 57.4596C111.741 62.2894 110.639 63.4993 106.233 63.4993H99.9962V51.4199ZM103.232 57.4498L103.252 60.7057H105.898C108.102 60.7057 108.347 60.3811 108.347 57.4498C108.347 54.5185 108.102 54.1938 105.898 54.1938H103.252L103.232 57.4498Z" fill="black"/>
<path d="M130.175 63.4924H126.456L125.807 61.1415H121.164L120.436 63.4924H116.935L120.918 51.4131H126.309L130.175 63.4924ZM125.01 58.5151L123.574 54.0591H123.486L122.01 58.5151H125.01Z" fill="black"/>
<path d="M141.154 58.8496H140.691V63.4924H137.435V58.8496H136.865L133.117 51.4131H136.767L139.029 56.3806H139.118L141.321 51.4131H144.774L141.154 58.8496Z" fill="black"/>
<path d="M121.718 19.312C119.328 19.4595 116.751 19.312 114.872 18.9382C113.485 18.6628 112.482 18.2595 112.216 17.7578H121.305L121.718 19.312Z" fill="black"/>
<path d="M121.718 19.3081C119.328 19.4556 116.751 19.3081 114.872 18.9343C113.485 18.6589 112.482 18.2556 112.216 17.7539H121.305L121.718 19.3081Z" fill="black"/>
<path d="M121.887 8.05732C121.061 8.05732 120.293 8.05732 119.428 8.05732C120.264 7.2999 121.12 7.2999 121.887 8.05732ZM121.247 8.618C121.247 9.3164 121.247 9.97546 121.247 10.664C120.854 10.664 120.51 10.664 120.116 10.664C120.116 9.98529 120.116 9.3164 120.116 8.618C120.49 8.618 120.844 8.618 121.247 8.618ZM115.1 11.6772C115.237 11.6575 115.385 11.6575 115.523 11.6575C124.08 11.6575 132.628 11.6674 141.186 11.6575C142.593 11.6575 143.832 11.9723 144.836 13.015C144.904 13.0838 144.964 13.1527 145.013 13.2314C145.042 13.2707 145.052 13.3199 145.091 13.4183C134.586 13.4183 124.11 13.4183 113.634 13.4183C113.604 12.4936 114.195 11.7952 115.1 11.6772Z" fill="black"/>
<path d="M101.535 8.59008H97.8071C96.6168 8.59008 96.6169 8.59007 96.2923 7.44902C96.0857 6.72111 95.6332 6.37684 95.043 6.50471C94.4135 6.63259 94.1282 7.15393 94.2659 7.92118C94.2954 8.10808 94.3446 8.28513 94.3938 8.53105H92.8691V5.70795H101.535V8.59008ZM142.032 10.7443C141.226 10.6754 140.4 10.7344 139.583 10.7344C139.544 10.518 139.514 10.4295 139.514 10.341C139.514 7.49821 139.504 4.65544 139.524 1.80283C139.524 1.58642 139.701 1.35033 139.839 1.1536C140.183 0.671607 140.006 0.101092 139.426 0.0420721C138.865 -0.0169475 138.295 -0.0169523 137.744 0.0617405C137.144 0.140433 137.016 0.681451 137.36 1.17328C137.527 1.4192 137.685 1.73396 137.694 2.01923C137.724 4.67511 137.714 7.33099 137.704 9.98687C137.704 10.2131 137.675 10.4295 137.665 10.6459H122.054V8.93436C123.008 8.53106 123.097 8.00971 122.32 7.34082C121.415 6.56373 120.018 6.53422 119.084 7.33099C118.828 7.54739 118.562 7.94085 118.582 8.23595C118.592 8.50154 118.995 8.74745 119.29 9.07206V10.6853C117.913 10.6853 116.595 10.6951 115.287 10.6754C115.149 10.6754 114.952 10.5869 114.883 10.4885C114.264 9.36716 113.644 8.24579 113.064 7.10474C112.995 6.96703 113.064 6.63259 113.192 6.52439C113.821 6.00305 114.47 5.50139 115.149 5.0489C115.542 4.78331 115.857 4.50788 115.631 4.03573C115.395 3.52422 114.962 3.53406 114.5 3.75046C112.405 4.74396 110.3 5.73746 108.195 6.73096C107.742 6.93753 107.516 7.27196 107.713 7.74412C107.929 8.24579 108.342 8.18677 108.795 8.0589C109.552 7.84249 110.329 7.65559 111.096 7.44902C111.46 7.35066 111.667 7.45886 111.805 7.82282C112.1 8.62942 112.365 9.4557 112.739 10.2131C113.113 10.9705 113.241 11.5706 112.857 12.4559C112.503 13.292 112.66 14.3838 112.729 15.3576C112.769 15.997 112.601 16.42 112.031 16.7741C110.624 14.492 109.247 12.2591 107.85 10.0262C107.368 9.25896 107.093 8.20644 105.765 8.58023C105.765 7.97036 105.775 7.47854 105.765 6.98671C105.735 5.61942 104.781 4.60626 103.404 4.60626C99.2432 4.58658 95.0823 4.58658 90.9116 4.60626C89.623 4.61609 88.6591 5.61942 88.6197 6.89818C88.6 7.42935 88.6197 7.97037 88.6197 8.26546C88.0098 8.58024 87.3901 8.69827 87.154 9.06223C85.3048 11.9443 83.5145 14.8757 81.7242 17.807C81.3308 18.4463 81.5177 18.771 82.2554 18.7906C83.544 18.8398 84.567 18.3086 85.413 17.3643C88.2164 14.2264 91.7281 12.4263 95.9185 12.0919C104.83 11.3738 111.47 18.0529 112.906 24.8008C113.123 25.7943 113.241 26.8173 113.408 27.8698C113.644 27.7911 113.87 27.7419 114.077 27.6337C115.051 27.1222 116.054 26.8665 117.116 26.7779C117.569 26.7386 118.031 26.7386 118.503 26.7681C119.743 26.837 120.992 26.8173 122.241 26.7681C122.753 26.7484 123.569 26.8665 124.268 26.9943V25.086L117.116 24.5942V23.827L117.697 22.2039L123.058 20.5022L123.412 20.5219C122.507 20.1776 121.907 19.9513 121.907 19.9513L121.848 19.7448C120.284 19.7448 118.72 19.7546 117.156 19.7743C116.182 19.7841 115.424 19.5185 114.893 18.948C114.628 18.6627 114.421 18.3086 114.274 17.8758C114.264 17.8365 114.254 17.807 114.234 17.7676C113.86 16.6167 113.693 15.3872 113.398 14.0592H114.372C116.359 14.0592 118.356 14.0592 120.343 14.0592C127.553 14.0592 134.773 14.0592 141.983 14.0592H144.915C145.682 14.0592 145.8 14.1969 145.869 15.2199C145.377 15.2199 144.875 15.1708 144.393 15.2396C144.147 15.279 143.931 15.5249 143.705 15.6724C143.921 15.8298 144.128 16.0659 144.374 16.1249C144.708 16.2036 145.082 16.1151 145.426 16.1643C145.633 16.1938 145.829 16.3413 146.026 16.4397C145.82 16.5479 145.613 16.7151 145.387 16.7446C145.042 16.7938 144.669 16.7053 144.334 16.7741C144.108 16.8233 143.911 17.0397 143.705 17.1873C143.921 17.3348 144.128 17.5807 144.364 17.6201C144.777 17.6889 145.21 17.6201 145.633 17.6496C145.751 17.6594 145.859 17.807 145.977 17.8955C145.869 18.0135 145.77 18.2299 145.652 18.2398C145.21 18.2791 144.757 18.2103 144.315 18.2791C144.098 18.3185 143.911 18.5545 143.714 18.7021C143.911 18.8496 144.098 19.0956 144.324 19.1251C144.806 19.1939 145.308 19.1447 145.829 19.1447C145.977 19.4989 146.006 19.7448 145.515 19.7349C145.092 19.7349 144.659 19.6956 144.246 19.7644C144.049 19.794 143.892 20.0497 143.714 20.1973C143.892 20.3546 144.059 20.6202 144.246 20.6399C144.747 20.7088 145.269 20.6596 145.79 20.6596C145.957 21.0924 145.859 21.2694 145.426 21.2596C145.052 21.2498 144.659 21.2006 144.305 21.2793C144.088 21.3285 143.901 21.5645 143.714 21.7219C143.921 21.8596 144.118 22.0957 144.334 22.1351C144.787 22.2039 145.259 22.1547 145.711 22.1547C145.888 22.6171 145.77 22.804 145.338 22.7843C144.964 22.7744 144.58 22.7449 144.206 22.804C144.019 22.8335 143.872 23.0597 143.705 23.1876C143.872 23.345 144.019 23.6204 144.206 23.6401C144.688 23.7089 145.18 23.6597 145.672 23.6597C145.839 24.1122 145.731 24.2794 145.298 24.2598C144.944 24.2401 144.58 24.2106 144.246 24.2893C144.039 24.3286 143.882 24.5745 143.705 24.7221C143.882 24.8795 144.039 25.1352 144.236 25.1647C144.688 25.2336 145.16 25.1844 145.721 25.1844C145.692 25.7844 145.662 26.3255 145.633 26.9452C145.623 27.0435 145.623 27.1419 145.613 27.2403C145.583 27.2206 145.564 27.2108 145.544 27.1911C145.515 27.8206 146.056 28.5387 146.744 28.2338C146.685 28.1059 146.646 27.9682 146.626 27.8206C146.606 27.6927 146.597 27.5452 146.597 27.3976C146.744 23.7089 146.892 20.0202 147 16.3315C147.098 13.3116 145.052 11.0099 142.032 10.7443ZM138.039 25.2238C137.931 25.2434 137.813 25.2729 137.704 25.3024C137.704 25.332 137.714 25.3516 137.714 25.3811C137.881 25.4795 138.019 25.6861 138.206 25.7549L138.039 25.2238Z" fill="black"/>
<path d="M113.634 13.418C113.604 12.4933 114.204 11.7851 115.1 11.6769C115.237 11.6572 115.385 11.6572 115.523 11.6572C124.08 11.6572 132.628 11.6671 141.186 11.6572C142.593 11.6572 143.832 11.972 144.836 13.0147C144.904 13.0835 144.963 13.1524 145.013 13.2311C145.042 13.2704 145.052 13.3196 145.091 13.418C134.586 13.418 124.11 13.418 113.634 13.418Z" fill="black"/>
<path d="M119.439 8.05559C120.275 7.29817 121.131 7.30801 121.898 8.05559C121.062 8.05559 120.304 8.05559 119.439 8.05559Z" fill="black"/>
<path d="M117.253 16.2506C117.017 16.2506 116.781 16.2407 116.555 16.2506C116.132 16.2702 115.984 16.0735 115.984 15.6604C115.984 15.2374 116.152 15.0603 116.565 15.0702C116.988 15.08 117.411 15.08 117.824 15.0702C118.247 15.0603 118.542 15.1292 118.542 15.6702C118.552 16.2407 118.208 16.2506 117.814 16.2506C117.627 16.2604 117.44 16.2604 117.253 16.2506Z" fill="black"/>
<path d="M139.974 31.5439C138.45 31.5439 137.21 32.7834 137.21 34.308C137.21 35.8327 138.45 37.0721 139.974 37.0721C141.499 37.0721 142.739 35.8327 142.739 34.308C142.739 32.7834 141.499 31.5439 139.974 31.5439ZM139.974 35.5966C139.256 35.5966 138.686 35.0163 138.686 34.308C138.686 33.59 139.266 33.0194 139.974 33.0194C140.693 33.0194 141.263 33.5998 141.263 34.308C141.263 35.0163 140.693 35.5966 139.974 35.5966Z" fill="black"/>
<path d="M146.633 27.8294C146.328 27.5147 145.994 27.2196 145.65 26.954C145.64 27.0523 145.64 27.1507 145.63 27.2491C145.601 27.2294 145.581 27.2196 145.561 27.1999C145.532 27.8294 146.073 28.5475 146.761 28.2426C146.692 28.1048 146.653 27.9671 146.633 27.8294ZM137.692 25.2916C137.692 25.3211 137.702 25.3408 137.702 25.3703C137.869 25.4686 138.007 25.6752 138.194 25.7441L138.026 25.2129C137.918 25.2424 137.81 25.2719 137.692 25.2916Z" fill="black"/>
<path d="M141.981 13.1826V14.0482C134.771 14.0482 127.551 14.0482 120.341 14.0482L120.173 13.4187L120.114 13.1826H141.981Z" fill="black"/>
<path d="M146.635 27.8269C146.655 27.9744 146.704 28.1023 146.753 28.24C146.064 28.545 145.523 27.8269 145.553 27.1974C145.582 27.217 145.602 27.2367 145.622 27.2465C145.632 27.1482 145.632 27.0498 145.642 26.9514C144.579 26.1252 143.34 25.535 141.982 25.2399V14.0557C134.772 14.0557 127.552 14.0557 120.342 14.0557L121.316 17.7641L121.719 19.3182L121.827 19.7412L121.886 19.9478C121.886 19.9478 122.486 20.174 123.391 20.5183L123.037 20.4986L117.676 22.2004L117.096 23.8234V24.5907L124.247 25.0825V28.0826L126.086 28.1122C127.119 28.1318 128.054 28.7319 128.506 29.6565L128.949 30.5811L130.326 30.6992L131.133 29.0958C132.401 26.9908 134.261 25.5448 136.641 24.7087C136.916 24.6103 137.212 24.5612 137.546 24.4726C137.595 24.7874 137.644 25.0431 137.684 25.2989C133.661 26.3121 130.68 29.9614 130.68 34.2994C130.68 39.4242 134.841 43.5851 139.966 43.5851C145.091 43.5851 149.252 39.4242 149.252 34.2994C149.261 31.7812 148.258 29.4991 146.635 27.8269ZM139.976 39.7882C136.936 39.7882 134.477 37.329 134.477 34.2895C134.477 31.25 136.936 28.7909 139.976 28.7909C143.015 28.7909 145.474 31.25 145.474 34.2895C145.474 37.329 143.015 39.7882 139.976 39.7882Z" fill="black"/>
<path d="M97.0284 25.8556C94.8447 25.836 93.1331 27.5082 93.1135 29.7017C93.0938 31.8068 94.7758 33.5282 96.8809 33.5577C99.0449 33.5872 100.796 31.8855 100.816 29.7214C100.845 27.6459 99.1039 25.8753 97.0284 25.8556ZM99.704 28.6984C99.8122 28.6984 99.9007 28.7869 99.9105 28.8951C99.9105 29.0132 99.822 29.1017 99.7138 29.1017C99.5958 29.1017 99.5072 29.0132 99.5171 28.8951C99.5072 28.7869 99.5958 28.6984 99.704 28.6984ZM97.3924 26.6721C97.5006 26.6721 97.5891 26.7606 97.5891 26.8786C97.5891 26.9868 97.5006 27.0754 97.3924 27.0754C97.2743 27.0754 97.1858 26.9868 97.1858 26.8688C97.1858 26.7606 97.2743 26.6721 97.3924 26.6721ZM95.7988 26.8983C95.9071 26.8983 95.9956 26.9967 95.9956 27.1049C95.9956 27.2131 95.907 27.3016 95.789 27.3016C95.6808 27.3016 95.5923 27.2131 95.5923 27.1049C95.5923 26.9868 95.6906 26.8885 95.7988 26.8983ZM94.1266 29.8886C94.0086 29.8886 93.92 29.8001 93.92 29.6821C93.92 29.564 94.0086 29.4755 94.1266 29.4755C94.2447 29.4755 94.3234 29.564 94.3234 29.6821C94.3234 29.8001 94.2348 29.8886 94.1266 29.8886ZM94.5594 31.433C94.4512 31.4231 94.3725 31.3346 94.3725 31.2264C94.3824 31.1182 94.4709 31.0297 94.5791 31.0395C94.6873 31.0395 94.7758 31.1379 94.7758 31.2559C94.766 31.3543 94.6775 31.433 94.5594 31.433ZM94.5791 28.3443C94.4611 28.3443 94.3824 28.2656 94.3824 28.1476C94.3824 28.0295 94.4709 27.941 94.5889 27.941C94.6971 27.941 94.7857 28.0295 94.7857 28.1476C94.7758 28.2558 94.6873 28.3443 94.5791 28.3443ZM95.7792 32.4855C95.671 32.4855 95.5824 32.397 95.5824 32.2888C95.5824 32.1806 95.671 32.092 95.789 32.092C95.907 32.092 95.9857 32.1806 95.9857 32.2986C95.9759 32.397 95.8874 32.4855 95.7792 32.4855ZM97.3629 32.7117C97.2547 32.7019 97.1661 32.6134 97.1661 32.5052C97.1661 32.3871 97.2547 32.3084 97.3727 32.3084C97.4809 32.3084 97.5694 32.397 97.5694 32.5052C97.5694 32.6232 97.4711 32.7216 97.3629 32.7117ZM96.9989 31.6002C95.9366 31.6199 95.0709 30.7936 95.0611 29.7411C95.0513 28.6689 95.8677 27.8131 96.9104 27.7934C97.9629 27.7836 98.8285 28.6099 98.858 29.6526C98.8974 30.6952 98.0416 31.5904 96.9989 31.6002ZM98.8285 32.0429C98.7105 32.0429 98.6219 31.9543 98.6318 31.8363C98.6318 31.7281 98.7203 31.6396 98.8383 31.6396C98.9564 31.6396 99.0351 31.7281 99.0351 31.8461C99.0252 31.9642 98.9367 32.0527 98.8285 32.0429ZM98.8383 27.7443C98.7301 27.7443 98.6416 27.6557 98.6416 27.5475C98.6416 27.4393 98.74 27.341 98.8482 27.3508C98.9564 27.3508 99.0449 27.4492 99.0449 27.5574C99.0351 27.6656 98.9465 27.7443 98.8383 27.7443ZM99.6941 30.7051C99.5859 30.7051 99.4974 30.6165 99.4974 30.5083C99.4974 30.3903 99.5859 30.3116 99.704 30.3116C99.822 30.3116 99.9007 30.4001 99.9007 30.5083C99.9007 30.6165 99.8023 30.7051 99.6941 30.7051Z" fill="black"/>
<path d="M96.92 36.2535C93.2313 36.2043 90.3393 33.2632 90.3885 29.5941C90.4377 26.0136 93.428 23.1118 97.0381 23.161C99.7333 23.2003 101.986 24.8037 102.96 27.1251C103.058 27.3514 103.284 27.4989 103.53 27.4989H110.042C110.495 27.4989 110.799 27.0268 110.613 26.6235C110.504 26.4071 110.357 26.2103 110.17 26.0923C110.003 25.9841 109.865 25.5808 109.934 25.4037C110.229 24.6562 109.904 23.9184 109.147 23.5938C108.98 23.525 108.793 23.161 108.832 22.9741C108.999 22.138 108.557 21.4888 107.701 21.3412C107.524 21.3117 107.288 20.9674 107.288 20.7707C107.307 19.9838 106.678 19.3641 105.891 19.3837C105.704 19.3837 105.379 19.1378 105.34 18.9608C105.183 18.2427 104.642 17.8001 103.983 17.8001C103.619 17.8001 103.166 17.5541 102.96 17.2492C102.655 16.7967 102.084 16.5606 101.533 16.659C101.169 16.7279 100.678 16.5705 100.412 16.3049C99.9497 15.8524 99.1726 15.7344 98.6808 16.1475C98.366 16.4131 98.1496 16.4033 97.8938 16.0491C97.5004 15.4983 96.4183 15.4983 96.0249 16.0393C95.779 16.3836 95.5527 16.4131 95.238 16.1475C94.7461 15.7344 93.9789 15.8524 93.5067 16.3147C93.2411 16.5705 92.7493 16.7279 92.3952 16.6492C91.7558 16.5213 91.1066 16.8459 90.841 17.4656C90.7623 17.6525 90.3885 17.8492 90.1918 17.8099C89.454 17.682 88.6671 18.164 88.5884 18.8919C88.5491 19.2854 88.3917 19.4526 87.9589 19.3837C87.2998 19.2755 86.5522 20.0428 86.6506 20.7215C86.7096 21.1543 86.5621 21.3019 86.1489 21.3314C85.4702 21.3707 84.88 22.2265 85.0866 22.8856C85.2145 23.3085 85.1259 23.5151 84.6833 23.6332C84.0636 23.7905 83.6406 24.7742 83.975 25.3349C84.2111 25.7284 84.1521 25.9349 83.7488 26.1316C83.1488 26.4169 82.9619 27.4596 83.4045 27.9809C83.68 28.2957 83.6504 28.5121 83.316 28.7679C82.8242 29.1515 82.8143 29.9778 83.1783 30.5188C83.3849 30.8139 83.434 31.3057 83.2865 31.6401C83.0307 32.2303 83.2078 33.0271 83.7685 33.3124C84.1128 33.4894 84.221 33.696 84.0046 34.0796C83.6504 34.6895 84.0439 35.6141 84.7128 35.8109C85.1063 35.9289 85.2341 36.106 85.0964 36.5191C84.8702 37.2273 85.4604 38.0339 86.1883 38.0929C86.5916 38.1225 86.7195 38.3192 86.6506 38.7323C86.5424 39.4012 87.3097 40.1291 87.9982 40.0504C88.3917 39.9914 88.5589 40.1488 88.5982 40.5718C88.6573 41.2603 89.5032 41.821 90.1721 41.6145C90.5656 41.4964 90.7721 41.5948 90.8902 41.9883C91.0771 42.6473 92.0312 43.0506 92.6214 42.7161C92.9952 42.5096 93.2018 42.5686 93.3887 42.9326C93.6838 43.4834 94.451 43.6605 95.0412 43.4146C95.3658 43.2867 95.897 43.326 96.1823 43.5228C96.7036 43.8965 97.4905 43.8474 97.9528 43.3752C98.0906 43.2375 98.5135 43.1686 98.6611 43.2768C99.3201 43.7195 100.156 43.5523 100.609 42.8932C100.717 42.7358 101.13 42.6473 101.317 42.726C101.956 42.9916 102.901 42.6571 103.068 41.9981C103.186 41.5456 103.412 41.4866 103.825 41.6145C104.484 41.821 105.232 41.221 105.37 40.5226C105.409 40.3259 105.734 40.0504 105.93 40.0504C106.698 40.0701 107.317 39.4504 107.317 38.6536C107.317 38.4667 107.603 38.152 107.799 38.1225C108.449 38.0143 109.108 37.1781 108.881 36.5683C108.724 36.1355 108.822 35.9289 109.255 35.8109C109.914 35.624 110.308 34.6797 109.973 34.0895C109.865 33.8829 109.658 33.755 109.422 33.755H102.458C102.271 33.755 102.094 33.8435 101.976 33.9813C100.727 35.3781 98.9168 36.2732 96.92 36.2535Z" fill="black"/>
<path d="M124.256 25.0849V28.0752L117.104 27.9572L113.396 27.8982L116.455 24.5537L117.104 24.5931L124.256 25.0849Z" fill="black"/>
<path d="M279.156 206.127V226.551H312.31C310.802 220.709 307.396 215.533 302.627 211.836C297.859 208.14 291.998 206.131 285.964 206.127H279.156Z" fill="#DADCE0"/>
<path d="M272.351 240.165C270.545 240.165 268.814 239.447 267.537 238.171C266.26 236.894 265.543 235.162 265.543 233.357V206.125C180.649 206.125 191.473 207.147 190.248 203.743L152.736 104.007C156.348 103.619 159.657 101.812 161.936 98.9843C164.214 96.1564 165.277 92.5389 164.888 88.9278C164.5 85.3167 162.693 82.0077 159.866 79.7287C157.038 77.4498 153.42 76.3876 149.809 76.7758H13.6516C10.6801 76.8061 7.80017 77.8077 5.45115 79.6278C3.10214 81.4478 1.41305 83.9864 0.641612 86.8561C-0.129823 89.7259 0.0587572 92.7692 1.17858 95.5217C2.2984 98.2743 4.28797 100.585 6.84372 102.101V219.741C6.84372 221.547 7.56097 223.278 8.8377 224.555C10.1144 225.832 11.846 226.549 13.6516 226.549C13.6516 227.434 13.6516 227.57 14.6728 226.549C15.9168 226.381 17.0903 225.873 18.0635 225.08C19.0366 224.287 19.7716 223.24 20.1872 222.056C84.6577 174.605 172.071 240.165 145.112 315.051H160.293C164.424 301.297 165.393 286.787 163.128 272.606C160.864 258.424 155.424 244.938 147.214 233.155C139.005 221.371 128.239 211.595 115.721 204.557C103.203 197.519 89.2559 193.4 74.9225 192.51C74.9225 190.603 74.9225 198.501 74.9225 104.007H138.304L176.564 206.125H140.823C155.943 219.403 167.089 236.61 173.026 255.837C178.962 275.065 179.456 295.56 174.454 315.051H197.464C197.464 300.607 203.202 286.754 213.416 276.54C223.63 266.326 237.483 260.588 251.927 260.588C266.372 260.588 280.225 266.326 290.438 276.54C300.652 286.754 306.39 300.607 306.39 315.051H313.198V240.165H272.351ZM61.3067 192.51C46.8306 193.873 32.8584 198.53 20.4595 206.125V104.007H61.3067V192.51ZM211.08 260.588H197.464C195.659 260.588 193.927 259.871 192.65 258.594C191.374 257.318 190.656 255.586 190.656 253.78C190.656 251.975 191.374 250.243 192.65 248.967C193.927 247.69 195.659 246.973 197.464 246.973H211.08C212.885 246.973 214.617 247.69 215.894 248.967C217.171 250.243 217.888 251.975 217.888 253.78C217.888 255.586 217.171 257.318 215.894 258.594C214.617 259.871 212.885 260.588 211.08 260.588ZM211.08 233.357H197.464C195.659 233.357 193.927 232.64 192.65 231.363C191.374 230.086 190.656 228.355 190.656 226.549C190.656 224.743 191.374 223.012 192.65 221.735C193.927 220.458 195.659 219.741 197.464 219.741H211.08C212.885 219.741 214.617 220.458 215.894 221.735C217.171 223.012 217.888 224.743 217.888 226.549C217.888 228.355 217.171 230.086 215.894 231.363C214.617 232.64 212.885 233.357 211.08 233.357Z" fill="#DADCE0"/>
<path d="M265.54 124.43H258.732C258.732 119.013 260.884 113.818 264.714 109.988C268.545 106.158 273.739 104.006 279.156 104.006C280.962 104.006 282.693 103.289 283.97 102.012C285.247 100.736 285.964 99.0041 285.964 97.1985C285.964 95.3929 285.247 93.6613 283.97 92.3846C282.693 91.1079 280.962 90.3906 279.156 90.3906C270.128 90.3906 261.47 93.9769 255.087 100.361C248.703 106.744 245.117 115.402 245.117 124.43H238.309V192.509H265.54V124.43Z" fill="#DADCE0"/>
<path d="M251.924 308.249C250.119 308.249 248.387 308.966 247.11 310.243C245.834 311.52 245.116 313.251 245.116 315.057C245.116 316.862 245.834 318.594 247.11 319.871C248.387 321.148 250.119 321.865 251.924 321.865C253.73 321.865 255.461 321.148 256.738 319.871C258.015 318.594 258.732 316.862 258.732 315.057C258.732 313.251 258.015 311.52 256.738 310.243C255.461 308.966 253.73 308.249 251.924 308.249Z" fill="#DADCE0"/>
<path d="M251.926 274.202C243.847 274.202 235.95 276.598 229.232 281.086C222.515 285.574 217.28 291.954 214.188 299.418C211.096 306.882 210.288 315.095 211.864 323.018C213.44 330.942 217.33 338.22 223.043 343.933C228.755 349.645 236.033 353.536 243.957 355.112C251.881 356.688 260.094 355.879 267.558 352.787C275.021 349.696 281.401 344.46 285.889 337.743C290.378 331.026 292.773 323.128 292.773 315.049C292.773 304.216 288.47 293.826 280.809 286.166C273.149 278.506 262.759 274.202 251.926 274.202ZM251.926 335.473C247.887 335.473 243.938 334.275 240.579 332.031C237.221 329.787 234.603 326.597 233.057 322.865C231.511 319.133 231.107 315.027 231.895 311.065C232.683 307.103 234.628 303.464 237.484 300.608C240.341 297.751 243.98 295.806 247.942 295.018C251.903 294.23 256.01 294.635 259.742 296.18C263.474 297.726 266.663 300.344 268.908 303.703C271.152 307.061 272.35 311.01 272.35 315.049C272.35 320.466 270.198 325.661 266.368 329.491C262.537 333.321 257.343 335.473 251.926 335.473Z" fill="#DADCE0"/>
<path d="M68.113 301.434C75.6328 301.434 81.7287 295.338 81.7287 287.818C81.7287 280.298 75.6328 274.202 68.113 274.202C60.5932 274.202 54.4973 280.298 54.4973 287.818C54.4973 295.338 60.5932 301.434 68.113 301.434Z" fill="#DADCE0"/>
<path d="M68.1138 219.742C55.8384 219.736 43.7897 223.049 33.2431 229.33C22.6965 235.611 14.0444 244.627 8.20281 255.424C2.3612 266.22 -0.452624 278.395 0.0592186 290.66C0.571061 302.924 4.38952 314.822 11.1104 325.094C17.8312 335.367 27.2044 343.63 38.2377 349.011C49.271 354.392 61.5539 356.689 73.7861 355.66C86.0182 354.631 97.7446 350.314 107.724 343.165C117.703 336.017 125.564 326.303 130.474 315.052C134.994 304.695 136.865 293.375 135.918 282.114C134.97 270.852 131.234 260.004 125.047 250.547C118.86 241.091 110.415 233.323 100.476 227.945C90.5367 222.567 79.4148 219.748 68.1138 219.742ZM68.1138 315.052C62.7279 315.052 57.463 313.455 52.9848 310.463C48.5066 307.471 45.0163 303.218 42.9552 298.242C40.8941 293.266 40.3548 287.791 41.4056 282.508C42.4563 277.226 45.0498 272.374 48.8582 268.565C52.6666 264.757 57.5188 262.163 62.8012 261.113C68.0836 260.062 73.5589 260.601 78.5349 262.662C83.5108 264.723 87.7637 268.214 90.756 272.692C93.7482 277.17 95.3453 282.435 95.3453 287.821C95.3453 295.043 92.4763 301.97 87.3694 307.076C82.2625 312.183 75.336 315.052 68.1138 315.052Z" fill="#DADCE0"/>
</svg>
