<svg width="45" height="46" viewBox="0 0 45 46" fill="none" xmlns="http://www.w3.org/2000/svg">
<rect y="0.457031" width="45" height="45" rx="8" fill="#AC5FC8"/>
<path d="M22.16 21.327C22.06 21.317 21.94 21.317 21.83 21.327C19.45 21.247 17.56 19.297 17.56 16.897C17.56 14.447 19.54 12.457 22 12.457C24.45 12.457 26.44 14.447 26.44 16.897C26.43 19.297 24.54 21.247 22.16 21.327Z" stroke="white" stroke-width="1.5" stroke-linecap="round" stroke-linejoin="round"/>
<path d="M17.16 25.017C14.74 26.637 14.74 29.277 17.16 30.887C19.91 32.727 24.42 32.727 27.17 30.887C29.59 29.267 29.59 26.627 27.17 25.017C24.43 23.187 19.92 23.187 17.16 25.017Z" stroke="white" stroke-width="1.5" stroke-linecap="round" stroke-linejoin="round"/>
</svg>
