<svg width="42" height="42" viewBox="0 0 42 42" fill="none" xmlns="http://www.w3.org/2000/svg">
<path d="M35.5656 5.88768C35.5491 5.86929 35.5334 5.85033 35.5158 5.83272C35.4779 5.7948 35.438 5.75976 35.3971 5.72701C31.6352 2.17863 26.5677 0 21.0005 0C9.42128 0 0.000732422 9.42074 0.000732422 21.0008C0.00111541 26.5654 2.17783 31.6306 5.72334 35.3919C5.75723 35.4348 5.79323 35.4764 5.83287 35.5158C5.85336 35.5361 5.875 35.5541 5.89626 35.5731C9.71791 39.533 15.0765 42 21.0007 42C32.5796 42 41.9998 32.5798 41.9998 21.0006C41.9996 15.0719 39.5297 9.7099 35.5656 5.88768ZM21.0005 2.87241C25.3164 2.87241 29.2838 4.38962 32.4002 6.91734L6.91788 32.3996C4.39054 29.2835 2.87353 25.3161 2.87314 21.0006C2.87314 11.0048 11.0051 2.87241 21.0005 2.87241ZM21.0005 39.1276C16.3532 39.1276 12.1091 37.3685 8.89735 34.4823L34.4829 8.897C37.3687 12.1087 39.1272 16.353 39.1272 21.0006C39.1272 30.9958 30.9956 39.1276 21.0005 39.1276Z" fill="black"/>
</svg>
