<svg width="45" height="46" viewBox="0 0 45 46" fill="none" xmlns="http://www.w3.org/2000/svg">
<rect y="0.457031" width="45" height="45" rx="8" fill="#43DADA"/>
<path d="M16.76 32H27.24C30 32 31.1 30.31 31.23 28.25L31.75 19.99C31.89 17.83 30.17 16 28 16C27.39 16 26.83 15.65 26.55 15.11L25.83 13.66C25.37 12.75 24.17 12 23.15 12H20.86C19.83 12 18.63 12.75 18.17 13.66L17.45 15.11C17.17 15.65 16.61 16 16 16C13.83 16 12.11 17.83 12.25 19.99L12.77 28.25C12.89 30.31 14 32 16.76 32Z" stroke="white" stroke-width="2" stroke-linecap="round" stroke-linejoin="round"/>
<path d="M20.5 18H23.5" stroke="white" stroke-width="2" stroke-linecap="round" stroke-linejoin="round"/>
<path d="M22 28C23.79 28 25.25 26.54 25.25 24.75C25.25 22.96 23.79 21.5 22 21.5C20.21 21.5 18.75 22.96 18.75 24.75C18.75 26.54 20.21 28 22 28Z" stroke="white" stroke-width="2" stroke-linecap="round" stroke-linejoin="round"/>
</svg>
