<svg xmlns="http://www.w3.org/2000/svg" width="42" height="42" viewBox="0 0 42 42" fill="none">
  <g clip-path="url(#clip0_1516_31518)">
    <path d="M12.25 42H8.75C3.92525 42 0 38.0747 0 33.25V29.75C0 28.7822 0.78225 28 1.75 28C2.71775 28 3.5 28.7822 3.5 29.75V33.25C3.5 36.1445 5.8555 38.5 8.75 38.5H12.25C13.2177 38.5 14 39.2822 14 40.25C14 41.2178 13.2177 42 12.25 42ZM42 33.25V29.75C42 28.7822 41.2178 28 40.25 28C39.2822 28 38.5 28.7822 38.5 29.75V33.25C38.5 36.1445 36.1445 38.5 33.25 38.5H29.75C28.7822 38.5 28 39.2822 28 40.25C28 41.2178 28.7822 42 29.75 42H33.25C38.0747 42 42 38.0747 42 33.25ZM42 12.25V8.75C42 3.92525 38.0747 0 33.25 0H29.75C28.7822 0 28 0.78225 28 1.75C28 2.71775 28.7822 3.5 29.75 3.5H33.25C36.1445 3.5 38.5 5.8555 38.5 8.75V12.25C38.5 13.2177 39.2822 14 40.25 14C41.2178 14 42 13.2177 42 12.25ZM3.5 12.25V8.75C3.5 5.8555 5.8555 3.5 8.75 3.5H12.25C13.2177 3.5 14 2.71775 14 1.75C14 0.78225 13.2177 0 12.25 0H8.75C3.92525 0 0 3.92525 0 8.75V12.25C0 13.2177 0.78225 14 1.75 14C2.71775 14 3.5 13.2177 3.5 12.25ZM31.5 17.5V24.5C31.5 27.3945 29.1445 29.75 26.25 29.75H15.75C12.8555 29.75 10.5 27.3945 10.5 24.5V17.5C10.5 14.6318 12.8118 12.2955 15.6678 12.2517L16.8857 10.3565C17.5298 9.352 18.6305 8.75 19.8293 8.75H22.1707C23.3695 8.75 24.4685 9.352 25.116 10.3583L26.3323 12.2517C29.19 12.2955 31.5 14.6318 31.5 17.5ZM24.5 21C24.5 19.0662 22.9338 17.5 21 17.5C19.0662 17.5 17.5 19.0662 17.5 21C17.5 22.9338 19.0662 24.5 21 24.5C22.9338 24.5 24.5 22.9338 24.5 21Z" fill="#377E7F"/>
  </g>
  <defs>
    <clipPath id="clip0_1516_31518">
      <rect width="42" height="42" fill="white"/>
    </clipPath>
  </defs>
</svg>