<svg width="20" height="20" viewBox="0 0 20 20" fill="none" xmlns="http://www.w3.org/2000/svg">
<path d="M10.0833 19.1C15.1091 19.1 19.1833 15.0258 19.1833 10C19.1833 4.97421 15.1091 0.9 10.0833 0.9C5.05754 0.9 0.983328 4.97421 0.983328 10C0.983328 15.0258 5.05754 19.1 10.0833 19.1Z" stroke="#5C5C5C" stroke-width="0.2"/>
<path d="M10.0833 10.7929L7.81495 8.14645C7.64758 7.95118 7.37622 7.95118 7.20885 8.14645C7.04149 8.34171 7.04149 8.65829 7.20885 8.85355L9.78028 11.8536C9.94765 12.0488 10.219 12.0488 10.3864 11.8536L12.9578 8.85355C13.1252 8.65829 13.1252 8.34171 12.9578 8.14645C12.7904 7.95118 12.5191 7.95118 12.3517 8.14645L10.0833 10.7929Z" fill="#565656"/>
<mask id="mask0_2358_16740" style="mask-type:luminance" maskUnits="userSpaceOnUse" x="7" y="8" width="7" height="4">
<path d="M10.0833 10.7929L7.81495 8.14645C7.64758 7.95118 7.37622 7.95118 7.20885 8.14645C7.04149 8.34171 7.04149 8.65829 7.20885 8.85355L9.78028 11.8536C9.94765 12.0488 10.219 12.0488 10.3864 11.8536L12.9578 8.85355C13.1252 8.65829 13.1252 8.34171 12.9578 8.14645C12.7904 7.95118 12.5191 7.95118 12.3517 8.14645L10.0833 10.7929Z" fill="white"/>
</mask>
<g mask="url(#mask0_2358_16740)">
</g>
</svg>
