<svg xmlns="http://www.w3.org/2000/svg" width="21" height="20" viewBox="0 0 21 20" fill="none">
<path d="M10.0833 19.5C15.33 19.5 19.5833 15.2467 19.5833 10C19.5833 4.75329 15.33 0.5 10.0833 0.5C4.83662 0.5 0.583328 4.75329 0.583328 10C0.583328 15.2467 4.83662 19.5 10.0833 19.5Z" stroke="#377E7F"/>
<path d="M10.0833 10.7929L7.81495 8.14645C7.64758 7.95118 7.37622 7.95118 7.20885 8.14645C7.04149 8.34171 7.04149 8.65829 7.20885 8.85355L9.78028 11.8536C9.94765 12.0488 10.219 12.0488 10.3864 11.8536L12.9578 8.85355C13.1252 8.65829 13.1252 8.34171 12.9578 8.14645C12.7904 7.95118 12.5191 7.95118 12.3517 8.14645L10.0833 10.7929Z" fill="#377E7F"/>
<mask id="mask0_4322_22940" style="mask-type:luminance" maskUnits="userSpaceOnUse" x="7" y="8" width="7" height="4">
<path d="M10.0833 10.7929L7.81495 8.14645C7.64758 7.95118 7.37622 7.95118 7.20885 8.14645C7.04149 8.34171 7.04149 8.65829 7.20885 8.85355L9.78028 11.8536C9.94765 12.0488 10.219 12.0488 10.3864 11.8536L12.9578 8.85355C13.1252 8.65829 13.1252 8.34171 12.9578 8.14645C12.7904 7.95118 12.5191 7.95118 12.3517 8.14645L10.0833 10.7929Z" fill="white"/>
</mask>
<g mask="url(#mask0_4322_22940)">
</g>
</svg>