<svg xmlns="http://www.w3.org/2000/svg" width="26" height="26" viewBox="0 0 26 26" fill="none">
  <path d="M24.5 0.5H1.5C0.946875 0.5 0.5 0.946875 0.5 1.5V24.5C0.5 25.0531 0.946875 25.5 1.5 25.5H24.5C25.0531 25.5 25.5 25.0531 25.5 24.5V1.5C25.5 0.946875 25.0531 0.5 24.5 0.5ZM23.25 23.25H2.75V2.75H23.25V23.25ZM12.375 9.5H18.125C18.2625 9.5 18.375 9.3875 18.375 9.25V7.75C18.375 7.6125 18.2625 7.5 18.125 7.5H12.375C12.2375 7.5 12.125 7.6125 12.125 7.75V9.25C12.125 9.3875 12.2375 9.5 12.375 9.5ZM12.375 14H18.125C18.2625 14 18.375 13.8875 18.375 13.75V12.25C18.375 12.1125 18.2625 12 18.125 12H12.375C12.2375 12 12.125 12.1125 12.125 12.25V13.75C12.125 13.8875 12.2375 14 12.375 14ZM12.375 18.5H18.125C18.2625 18.5 18.375 18.3875 18.375 18.25V16.75C18.375 16.6125 18.2625 16.5 18.125 16.5H12.375C12.2375 16.5 12.125 16.6125 12.125 16.75V18.25C12.125 18.3875 12.2375 18.5 12.375 18.5ZM7.625 8.5C7.625 8.83152 7.7567 9.14946 7.99112 9.38388C8.22554 9.6183 8.54348 9.75 8.875 9.75C9.20652 9.75 9.52446 9.6183 9.75888 9.38388C9.9933 9.14946 10.125 8.83152 10.125 8.5C10.125 8.16848 9.9933 7.85054 9.75888 7.61612C9.52446 7.3817 9.20652 7.25 8.875 7.25C8.54348 7.25 8.22554 7.3817 7.99112 7.61612C7.7567 7.85054 7.625 8.16848 7.625 8.5ZM7.625 13C7.625 13.3315 7.7567 13.6495 7.99112 13.8839C8.22554 14.1183 8.54348 14.25 8.875 14.25C9.20652 14.25 9.52446 14.1183 9.75888 13.8839C9.9933 13.6495 10.125 13.3315 10.125 13C10.125 12.6685 9.9933 12.3505 9.75888 12.1161C9.52446 11.8817 9.20652 11.75 8.875 11.75C8.54348 11.75 8.22554 11.8817 7.99112 12.1161C7.7567 12.3505 7.625 12.6685 7.625 13ZM7.625 17.5C7.625 17.8315 7.7567 18.1495 7.99112 18.3839C8.22554 18.6183 8.54348 18.75 8.875 18.75C9.20652 18.75 9.52446 18.6183 9.75888 18.3839C9.9933 18.1495 10.125 17.8315 10.125 17.5C10.125 17.1685 9.9933 16.8505 9.75888 16.6161C9.52446 16.3817 9.20652 16.25 8.875 16.25C8.54348 16.25 8.22554 16.3817 7.99112 16.6161C7.7567 16.8505 7.625 17.1685 7.625 17.5Z" fill="#377E7F"/>
</svg>