<svg xmlns="http://www.w3.org/2000/svg" width="28" height="28" viewBox="0 0 28 28" fill="none">
  <g clip-path="url(#clip0_5023_47145)">
    <path d="M27.4091 1.5H4.40906C3.85593 1.5 3.40906 1.94687 3.40906 2.5V25.5C3.40906 26.0531 3.85593 26.5 4.40906 26.5H27.4091C27.9622 26.5 28.4091 26.0531 28.4091 25.5V2.5C28.4091 1.94687 27.9622 1.5 27.4091 1.5ZM26.1591 24.25H5.65906V3.75H26.1591V24.25ZM15.2841 10.5H21.0341C21.1716 10.5 21.2841 10.3875 21.2841 10.25V8.75C21.2841 8.6125 21.1716 8.5 21.0341 8.5H15.2841C15.1466 8.5 15.0341 8.6125 15.0341 8.75V10.25C15.0341 10.3875 15.1466 10.5 15.2841 10.5ZM15.2841 15H21.0341C21.1716 15 21.2841 14.8875 21.2841 14.75V13.25C21.2841 13.1125 21.1716 13 21.0341 13H15.2841C15.1466 13 15.0341 13.1125 15.0341 13.25V14.75C15.0341 14.8875 15.1466 15 15.2841 15ZM15.2841 19.5H21.0341C21.1716 19.5 21.2841 19.3875 21.2841 19.25V17.75C21.2841 17.6125 21.1716 17.5 21.0341 17.5H15.2841C15.1466 17.5 15.0341 17.6125 15.0341 17.75V19.25C15.0341 19.3875 15.1466 19.5 15.2841 19.5ZM10.5341 9.5C10.5341 9.83152 10.6658 10.1495 10.9002 10.3839C11.1346 10.6183 11.4525 10.75 11.7841 10.75C12.1156 10.75 12.4335 10.6183 12.6679 10.3839C12.9024 10.1495 13.0341 9.83152 13.0341 9.5C13.0341 9.16848 12.9024 8.85054 12.6679 8.61612C12.4335 8.3817 12.1156 8.25 11.7841 8.25C11.4525 8.25 11.1346 8.3817 10.9002 8.61612C10.6658 8.85054 10.5341 9.16848 10.5341 9.5ZM10.5341 14C10.5341 14.3315 10.6658 14.6495 10.9002 14.8839C11.1346 15.1183 11.4525 15.25 11.7841 15.25C12.1156 15.25 12.4335 15.1183 12.6679 14.8839C12.9024 14.6495 13.0341 14.3315 13.0341 14C13.0341 13.6685 12.9024 13.3505 12.6679 13.1161C12.4335 12.8817 12.1156 12.75 11.7841 12.75C11.4525 12.75 11.1346 12.8817 10.9002 13.1161C10.6658 13.3505 10.5341 13.6685 10.5341 14ZM10.5341 18.5C10.5341 18.8315 10.6658 19.1495 10.9002 19.3839C11.1346 19.6183 11.4525 19.75 11.7841 19.75C12.1156 19.75 12.4335 19.6183 12.6679 19.3839C12.9024 19.1495 13.0341 18.8315 13.0341 18.5C13.0341 18.1685 12.9024 17.8505 12.6679 17.6161C12.4335 17.3817 12.1156 17.25 11.7841 17.25C11.4525 17.25 11.1346 17.3817 10.9002 17.6161C10.6658 17.8505 10.5341 18.1685 10.5341 18.5Z" fill="white"/>
  </g>
  <defs>
    <clipPath id="clip0_5023_47145">
      <rect width="28" height="28" fill="white"/>
    </clipPath>
  </defs>
</svg>