<svg width="45" height="46" viewBox="0 0 45 46" fill="none" xmlns="http://www.w3.org/2000/svg">
<rect y="0.457031" width="45" height="45" rx="8" fill="#27AE60"/>
<g clip-path="url(#clip0_4761_16626)">
<path d="M24.85 25.452L23.975 26.326C23.78 26.521 23.78 26.838 23.975 27.033C24.073 27.131 24.201 27.179 24.329 27.179C24.457 27.179 24.585 27.13 24.683 27.033L32.359 19.358C32.554 19.163 32.554 18.846 32.359 18.651C32.164 18.456 31.847 18.456 31.652 18.651L30.708 19.595L22.918 11.807L23.862 10.863C24.057 10.668 24.057 10.351 23.862 10.156C23.667 9.96102 23.35 9.96102 23.155 10.156L15.479 17.832C15.284 18.027 15.284 18.344 15.479 18.539C15.577 18.637 15.705 18.685 15.833 18.685C15.961 18.685 16.089 18.636 16.187 18.539L17.062 17.664L20.596 21.198L10.146 31.646C9.95101 31.841 9.95101 32.158 10.146 32.353C10.244 32.451 10.372 32.499 10.5 32.499C10.628 32.499 10.756 32.45 10.854 32.353L21.303 21.904L24.85 25.452ZM27.959 18.262L23.517 22.704L19.809 18.996L24.252 14.554L27.959 18.262ZM25.557 24.745L24.224 23.412L28.666 18.97L29.999 20.303L25.556 24.745H25.557ZM22.211 12.514L23.544 13.847L19.101 18.289L17.768 16.956L22.21 12.514H22.211ZM33.5 33H33C33 31.346 31.654 30 30 30H23C21.346 30 20 31.346 20 33H19.5C19.224 33 19 33.224 19 33.5C19 33.776 19.224 34 19.5 34H33.5C33.776 34 34 33.776 34 33.5C34 33.224 33.776 33 33.5 33ZM23 31H30C31.103 31 32 31.897 32 33H21C21 31.897 21.897 31 23 31Z" fill="white" stroke="white"/>
</g>
<defs>
<clipPath id="clip0_4761_16626">
<rect width="24" height="24" fill="white" transform="translate(10 10)"/>
</clipPath>
</defs>
</svg>
