<svg width="126" height="46" viewBox="0 0 126 46" fill="none" xmlns="http://www.w3.org/2000/svg">
<g id="logo">
<g id="Group">
<g id="Group_2">
<path id="Vector" d="M5.88956 17.3342H0.39978V13.3264H16.4169V17.3342H10.948V31.2013H5.88956V17.3342Z" fill="white"/>
<path id="Vector_2" d="M83.2335 17.8696V31.201H88.2919V18.2175L83.2335 17.8696Z" fill="white"/>
<path id="Vector_3" d="M27.3896 26.4487H24.6274V31.2009H19.5759V13.3191H27.7515C32.6289 13.3191 35.6974 15.8448 35.6974 19.9361C35.6974 22.5661 34.4171 24.5074 32.1976 25.5789L36.0522 31.2009H30.639L27.3896 26.4487ZM27.4453 17.306H24.6343V22.5453H27.4453C29.5396 22.5453 30.5903 21.5781 30.5903 19.943C30.5833 18.2801 29.5396 17.306 27.4453 17.306Z" fill="white"/>
<path id="Vector_4" d="M51.7345 27.7289H44.1712L42.7657 31.2009H37.603L45.4932 13.3191H50.4751L58.3932 31.2009H53.133L51.7345 27.7289ZM50.2524 23.9995L47.9563 18.2801L45.6602 23.9995H50.2524Z" fill="white"/>
<path id="Vector_5" d="M116.945 26.4487H114.182V31.2009H109.124V13.3191H117.299C122.177 13.3191 125.245 15.8448 125.245 19.9361C125.245 22.5661 123.965 24.5074 121.746 25.5789L125.6 31.2009H120.187L116.945 26.4487ZM117 17.306H114.189V22.5453H117C119.095 22.5453 120.145 21.5781 120.145 19.943C120.138 18.2801 119.095 17.306 117 17.306Z" fill="white"/>
</g>
<g id="Group_3">
<path id="Vector_6" d="M86.4971 14.1333C84.8063 14.2377 82.9833 14.1333 81.6544 13.8689C80.6733 13.6741 79.9636 13.3888 79.7758 13.0339H86.2049L86.4971 14.1333Z" fill="white"/>
</g>
<g id="Group_4">
<path id="Vector_7" d="M27.3053 38.8131H24.6891V36.844H32.2454V38.8131H29.6084V45.3813H27.3053V38.8131Z" fill="white"/>
<path id="Vector_8" d="M39.8155 45.5137C36.7818 45.5137 36.0234 44.79 36.0234 41.8747V36.8372H38.3265V41.8747C38.3265 43.475 38.4796 43.6489 39.8155 43.6489C41.1514 43.6489 41.3045 43.475 41.3045 41.8747V36.8372H43.6075V41.8747C43.6006 44.79 42.8491 45.5137 39.8155 45.5137Z" fill="white"/>
<path id="Vector_9" d="M54.8868 36.844V38.8131H50.1763V40.1281H54.4484V41.9928H50.1763V43.4192H54.9077V45.3883H47.8732V36.844H54.8868Z" fill="white"/>
<path id="Vector_10" d="M64.565 42.9669C64.565 42.4729 64.1405 42.2642 62.5263 41.9511C59.7362 41.3945 59.0334 40.8657 59.0334 39.2793C59.0334 37.2336 59.8406 36.7188 62.9647 36.7188C66.1096 36.7188 66.9167 37.345 66.9167 39.8428H64.5093C64.5093 38.7018 64.3423 38.5835 62.9647 38.5835C61.6079 38.5835 61.4409 38.66 61.4409 39.3071C61.4409 39.7593 61.7609 39.9194 62.9229 40.1629C66.1235 40.7891 66.9724 41.3805 66.9724 43.0991C66.9724 45.0474 66.1514 45.5275 62.9647 45.5275C59.6875 45.5275 58.8456 44.9221 58.8456 42.5286H61.253C61.253 43.5584 61.427 43.6697 62.8951 43.6697C64.391 43.6558 64.565 43.5862 64.565 42.9669Z" fill="white"/>
<path id="Vector_11" d="M71.1332 36.844H75.5446C78.6686 36.844 79.441 37.6998 79.441 41.1161C79.441 44.5325 78.6617 45.3883 75.5446 45.3883H71.1332V36.844ZM73.4224 41.1092L73.4363 43.4123H75.308C76.8666 43.4123 77.0405 43.1826 77.0405 41.1092C77.0405 39.0357 76.8666 38.8061 75.308 38.8061H73.4363L73.4224 41.1092Z" fill="white"/>
<path id="Vector_12" d="M92.4799 45.3815H89.8498L89.3906 43.7185H86.1065L85.5916 45.3815H83.1146L85.9325 36.8372H89.7454L92.4799 45.3815ZM88.827 41.8608L87.8111 38.7088H87.7485L86.7048 41.8608H88.827Z" fill="white"/>
<path id="Vector_13" d="M100.245 42.0973H99.9179V45.3815H97.6149V42.0973H97.2113L94.5604 36.8372H97.1418L98.7421 40.3509H98.8047L100.363 36.8372H102.805L100.245 42.0973Z" fill="white"/>
</g>
<path id="Vector_14" d="M86.4964 14.1333C84.8056 14.2377 82.9826 14.1333 81.6537 13.8689C80.6726 13.6741 79.9629 13.3888 79.775 13.0339H86.2041L86.4964 14.1333Z" fill="white"/>
<g id="Group_5">
<path id="Vector_15" d="M86.4971 14.1333C84.8063 14.2377 82.9833 14.1333 81.6544 13.8689C80.6733 13.6741 79.9636 13.3888 79.7758 13.0339H86.2049L86.4971 14.1333Z" fill="white"/>
</g>
<g id="Group_6">
<path id="Vector_16" d="M86.6163 6.1733C86.0318 6.1733 85.4891 6.1733 84.8768 6.1733C85.4682 5.63754 86.0735 5.63754 86.6163 6.1733ZM86.164 6.5699C86.164 7.06391 86.164 7.53009 86.164 8.01715C85.8857 8.01715 85.6422 8.01715 85.3638 8.01715C85.3638 7.53705 85.3638 7.06391 85.3638 6.5699C85.6282 6.5699 85.8787 6.5699 86.164 6.5699ZM81.8153 8.73381C81.9127 8.71989 82.0171 8.71989 82.1145 8.71989C88.1679 8.71989 94.2143 8.72685 100.268 8.71989C101.263 8.71989 102.139 8.94255 102.849 9.68009C102.898 9.72879 102.94 9.77749 102.974 9.83316C102.995 9.86099 103.002 9.89578 103.03 9.96536C95.5989 9.96536 88.1887 9.96536 80.7786 9.96536C80.7577 9.31132 81.1752 8.8173 81.8153 8.73381Z" fill="white"/>
<path id="Vector_17" d="M72.2202 6.54908H69.5831C68.7412 6.54908 68.7412 6.54907 68.5116 5.74195C68.3655 5.22707 68.0454 4.98354 67.628 5.074C67.1827 5.16445 66.9809 5.53322 67.0783 6.07594C67.0992 6.20814 67.134 6.33338 67.1688 6.50732H66.0903V4.51041H72.2202V6.54908ZM100.866 8.07285C100.295 8.02415 99.7109 8.06589 99.1334 8.06589C99.1055 7.91282 99.0846 7.8502 99.0846 7.78758C99.0846 5.77675 99.0777 3.76592 99.0916 1.74813C99.0916 1.59505 99.2168 1.42806 99.3143 1.2889C99.5578 0.947961 99.4325 0.544407 99.022 0.50266C98.6254 0.460913 98.2219 0.460909 97.8322 0.516572C97.4078 0.572236 97.3173 0.954924 97.5609 1.30282C97.6792 1.47677 97.7905 1.69942 97.7974 1.9012C97.8183 3.77983 97.8114 5.65846 97.8044 7.5371C97.8044 7.69713 97.7835 7.8502 97.7766 8.00327H86.7344V6.7926C87.4093 6.50733 87.4719 6.13856 86.9222 5.66542C86.2821 5.11574 85.2941 5.09487 84.6331 5.65846C84.4522 5.81154 84.2643 6.08985 84.2782 6.29859C84.2852 6.48645 84.5705 6.6604 84.7792 6.89001V8.03111C83.8051 8.03111 82.8727 8.03806 81.9473 8.02415C81.8499 8.02415 81.7108 7.96153 81.6621 7.89195C81.2237 7.09875 80.7854 6.30554 80.3749 5.49843C80.3261 5.40102 80.3748 5.16446 80.4653 5.08792C80.9106 4.71915 81.3698 4.3643 81.8499 4.04423C82.1282 3.85637 82.3509 3.66155 82.1909 3.32757C82.0239 2.96575 81.7177 2.97271 81.3907 3.12578C79.9087 3.82853 78.4197 4.53128 76.9307 5.23403C76.6106 5.38015 76.4506 5.61671 76.5898 5.95069C76.7428 6.30554 77.0351 6.2638 77.3551 6.17335C77.8909 6.02028 78.4406 5.88807 78.9833 5.74195C79.2407 5.67238 79.3868 5.74892 79.4842 6.00636C79.693 6.57691 79.8808 7.16137 80.1452 7.69713C80.4096 8.23289 80.5001 8.65732 80.2287 9.28353C79.9782 9.87495 80.0896 10.6473 80.1383 11.3361C80.1661 11.7884 80.0478 12.0876 79.6443 12.338C78.6493 10.7238 77.6752 9.14437 76.6872 7.56493C76.3462 7.02221 76.1514 6.27771 75.2121 6.54211C75.2121 6.11072 75.219 5.76283 75.2121 5.41494C75.1912 4.44779 74.5163 3.73113 73.5422 3.73113C70.599 3.71721 67.6558 3.71721 64.7057 3.73113C63.7942 3.73809 63.1123 4.44779 63.0845 5.35231C63.0706 5.72804 63.0845 6.11073 63.0845 6.31946C62.6531 6.54212 62.2147 6.62561 62.0477 6.88305C60.7397 8.92172 59.4733 10.9952 58.207 13.0686C57.9287 13.5209 58.0609 13.7505 58.5827 13.7644C59.4942 13.7992 60.2178 13.4235 60.8162 12.7555C62.7992 10.536 65.2832 9.26266 68.2472 9.02609C74.5511 8.51816 79.2477 13.2426 80.2635 18.0157C80.4166 18.7184 80.5001 19.4421 80.6184 20.1866C80.7854 20.1309 80.9454 20.0961 81.0915 20.0196C81.7803 19.6578 82.4901 19.4768 83.2415 19.4142C83.5616 19.3864 83.8886 19.3864 84.2226 19.4073C85.0993 19.456 85.9829 19.4421 86.8666 19.4073C87.2284 19.3934 87.8059 19.4769 88.2999 19.5673V18.2175L83.2415 17.8696V17.3269L83.652 16.1788L87.4441 14.9751L87.6946 14.989C87.0544 14.7455 86.63 14.5855 86.63 14.5855L86.5883 14.4393C85.4819 14.4393 84.3756 14.4463 83.2693 14.4602C82.5805 14.4672 82.0448 14.2793 81.669 13.8757C81.4812 13.674 81.335 13.4235 81.2307 13.1173C81.2237 13.0895 81.2168 13.0686 81.2028 13.0408C80.9384 12.2267 80.8202 11.357 80.6114 10.4177H81.3003C82.7057 10.4177 84.1182 10.4177 85.5237 10.4177C90.6238 10.4177 95.7309 10.4177 100.831 10.4177H102.905C103.447 10.4177 103.531 10.5151 103.579 11.2387C103.232 11.2387 102.877 11.2039 102.536 11.2526C102.362 11.2804 102.209 11.4544 102.049 11.5588C102.202 11.6701 102.348 11.8371 102.522 11.8788C102.758 11.9345 103.023 11.8719 103.266 11.9067C103.412 11.9275 103.552 12.0319 103.691 12.1015C103.545 12.178 103.399 12.2963 103.239 12.3172C102.995 12.352 102.731 12.2893 102.494 12.338C102.334 12.3728 102.195 12.5259 102.049 12.6303C102.202 12.7346 102.348 12.9086 102.515 12.9364C102.807 12.9851 103.113 12.9364 103.412 12.9573C103.496 12.9643 103.572 13.0686 103.656 13.1312C103.579 13.2147 103.51 13.3678 103.426 13.3748C103.113 13.4026 102.793 13.3539 102.48 13.4026C102.327 13.4304 102.195 13.5974 102.056 13.7018C102.195 13.8062 102.327 13.9801 102.487 14.001C102.828 14.0497 103.183 14.0149 103.552 14.0149C103.656 14.2654 103.677 14.4393 103.329 14.4324C103.03 14.4324 102.724 14.4045 102.431 14.4532C102.292 14.4741 102.181 14.655 102.056 14.7594C102.181 14.8707 102.299 15.0586 102.431 15.0725C102.786 15.1212 103.155 15.0864 103.524 15.0864C103.642 15.3926 103.572 15.5178 103.266 15.5108C103.002 15.5039 102.724 15.4691 102.473 15.5248C102.32 15.5596 102.188 15.7265 102.056 15.8379C102.202 15.9353 102.341 16.1023 102.494 16.1301C102.814 16.1788 103.148 16.144 103.468 16.144C103.593 16.471 103.51 16.6032 103.204 16.5893C102.939 16.5824 102.668 16.5615 102.404 16.6032C102.271 16.6241 102.167 16.7841 102.049 16.8746C102.167 16.9859 102.271 17.1807 102.404 17.1947C102.744 17.2434 103.092 17.2086 103.44 17.2086C103.559 17.5286 103.482 17.6469 103.176 17.633C102.925 17.6191 102.668 17.5982 102.431 17.6539C102.285 17.6817 102.174 17.8557 102.049 17.96C102.174 18.0714 102.285 18.2523 102.424 18.2731C102.744 18.3218 103.078 18.2871 103.475 18.2871C103.454 18.7115 103.433 19.0942 103.412 19.5325C103.405 19.6021 103.405 19.6717 103.399 19.7413C103.378 19.7273 103.364 19.7204 103.35 19.7065C103.329 20.1518 103.712 20.6597 104.199 20.444C104.157 20.3535 104.129 20.2561 104.115 20.1518C104.101 20.0613 104.094 19.9569 104.094 19.8526C104.199 17.2434 104.303 14.6342 104.38 12.0249C104.449 9.88887 103.002 8.26071 100.866 8.07285ZM98.041 18.3149C97.9644 18.3288 97.8809 18.3497 97.8044 18.3705C97.8044 18.3914 97.8114 18.4053 97.8114 18.4262C97.9296 18.4958 98.027 18.6419 98.1592 18.6906L98.041 18.3149Z" fill="white"/>
<path id="Vector_18" d="M80.7786 9.96544C80.7577 9.31139 81.1821 8.81042 81.8153 8.73388C81.9127 8.71997 82.0171 8.71997 82.1145 8.71997C88.1679 8.71997 94.2143 8.72693 100.268 8.71997C101.263 8.71997 102.139 8.94263 102.849 9.68016C102.898 9.72887 102.939 9.77757 102.974 9.83323C102.995 9.86107 103.002 9.89586 103.03 9.96544C95.5989 9.96544 88.1887 9.96544 80.7786 9.96544Z" fill="white"/>
<path id="Vector_19" d="M84.8842 6.17338C85.4756 5.63763 86.0809 5.64458 86.6236 6.17338C86.0322 6.17338 85.4965 6.17338 84.8842 6.17338Z" fill="white"/>
<path id="Vector_20" d="M83.3389 11.9693C83.1719 11.9693 83.0049 11.9624 82.8448 11.9693C82.5457 11.9832 82.4413 11.8441 82.4413 11.5519C82.4413 11.2527 82.5596 11.1274 82.8518 11.1344C83.151 11.1413 83.4502 11.1413 83.7424 11.1344C84.0416 11.1274 84.2503 11.1761 84.2503 11.5588C84.2573 11.9624 84.0138 11.9693 83.7355 11.9693C83.6033 11.9763 83.4711 11.9763 83.3389 11.9693Z" fill="white"/>
</g>
<g id="Group_7">
<path id="Vector_21" d="M99.4109 22.7817C98.3324 22.7817 97.4557 23.6584 97.4557 24.7369C97.4557 25.8154 98.3324 26.6921 99.4109 26.6921C100.489 26.6921 101.366 25.8154 101.366 24.7369C101.366 23.6584 100.489 22.7817 99.4109 22.7817ZM99.4109 25.6484C98.9029 25.6484 98.4994 25.2379 98.4994 24.7369C98.4994 24.229 98.9099 23.8254 99.4109 23.8254C99.9188 23.8254 100.322 24.2359 100.322 24.7369C100.322 25.2379 99.9188 25.6484 99.4109 25.6484Z" fill="white"/>
</g>
<g id="Group_8">
<path id="Vector_22" d="M104.121 20.1587C103.905 19.936 103.669 19.7273 103.425 19.5394C103.418 19.609 103.418 19.6786 103.411 19.7481C103.39 19.7342 103.376 19.7273 103.362 19.7134C103.342 20.1587 103.724 20.6666 104.211 20.4509C104.163 20.3535 104.135 20.2561 104.121 20.1587ZM97.7961 18.3635C97.7961 18.3844 97.8031 18.3983 97.8031 18.4192C97.9214 18.4888 98.0188 18.6349 98.151 18.6836L98.0327 18.3079C97.9562 18.3287 97.8796 18.3496 97.7961 18.3635Z" fill="white"/>
</g>
<path id="Vector_23" d="M100.83 9.79834V10.4106C95.7297 10.4106 90.6226 10.4106 85.5225 10.4106L85.4042 9.96533L85.3624 9.79834H100.83Z" fill="white"/>
<path id="Vector_24" d="M104.122 20.1588C104.136 20.2632 104.17 20.3536 104.205 20.451C103.718 20.6667 103.335 20.1588 103.356 19.7135C103.377 19.7274 103.391 19.7413 103.405 19.7483C103.412 19.6787 103.412 19.6091 103.419 19.5395C102.667 18.9551 101.791 18.5376 100.831 18.3289V10.4177C95.7304 10.4177 90.6233 10.4177 85.5232 10.4177L86.212 13.0408L86.4973 14.1402L86.5738 14.4394L86.6155 14.5855C86.6155 14.5855 87.04 14.7455 87.6801 14.9891L87.4296 14.9752L83.6376 16.1789L83.2271 17.3269V17.8696L88.2854 18.2175V20.3397L89.5866 20.3606C90.3171 20.3745 90.9782 20.7989 91.2982 21.453L91.6113 22.107L92.5854 22.1905L93.156 21.0564C94.0535 19.5674 95.3686 18.5445 97.0524 17.9531C97.2472 17.8835 97.456 17.8488 97.6925 17.7861C97.7273 18.0088 97.7621 18.1897 97.7899 18.3706C94.9442 19.0873 92.8359 21.6686 92.8359 24.7371C92.8359 28.3621 95.7791 31.3053 99.4042 31.3053C103.029 31.3053 105.972 28.3621 105.972 24.7371C105.979 22.9559 105.27 21.3416 104.122 20.1588ZM99.4111 28.6196C97.2611 28.6196 95.5217 26.8801 95.5217 24.7301C95.5217 22.5801 97.2611 20.8407 99.4111 20.8407C101.561 20.8407 103.301 22.5801 103.301 24.7301C103.301 26.8801 101.561 28.6196 99.4111 28.6196Z" fill="white"/>
<path id="Vector_25" d="M69.0324 18.7601C67.4878 18.7462 66.2771 19.9291 66.2632 21.4807C66.2493 22.9697 67.4391 24.1873 68.9281 24.2082C70.4588 24.229 71.6973 23.0253 71.7112 21.4946C71.7321 20.0265 70.5005 18.774 69.0324 18.7601ZM70.925 20.771C71.0015 20.771 71.0641 20.8336 71.0711 20.9101C71.0711 20.9936 71.0085 21.0562 70.9319 21.0562C70.8484 21.0562 70.7858 20.9936 70.7928 20.9101C70.7858 20.8336 70.8484 20.771 70.925 20.771ZM69.2899 19.3376C69.3664 19.3376 69.429 19.4003 69.429 19.4837C69.429 19.5603 69.3664 19.6229 69.2899 19.6229C69.2064 19.6229 69.1438 19.5603 69.1438 19.4768C69.1438 19.4003 69.2064 19.3376 69.2899 19.3376ZM68.1627 19.4977C68.2392 19.4977 68.3019 19.5672 68.3019 19.6438C68.3019 19.7203 68.2392 19.7829 68.1557 19.7829C68.0792 19.7829 68.0166 19.7203 68.0166 19.6438C68.0166 19.5603 68.0862 19.4907 68.1627 19.4977ZM66.9798 21.6129C66.8964 21.6129 66.8337 21.5502 66.8337 21.4667C66.8337 21.3833 66.8964 21.3206 66.9798 21.3206C67.0633 21.3206 67.119 21.3833 67.119 21.4667C67.119 21.5502 67.0564 21.6129 66.9798 21.6129ZM67.286 22.7053C67.2095 22.6983 67.1538 22.6357 67.1538 22.5591C67.1608 22.4826 67.2234 22.42 67.2999 22.4269C67.3764 22.4269 67.4391 22.4965 67.4391 22.58C67.4321 22.6496 67.3695 22.7053 67.286 22.7053ZM67.2999 20.5205C67.2164 20.5205 67.1608 20.4648 67.1608 20.3813C67.1608 20.2978 67.2234 20.2352 67.3069 20.2352C67.3834 20.2352 67.446 20.2978 67.446 20.3813C67.4391 20.4579 67.3764 20.5205 67.2999 20.5205ZM68.1488 23.4497C68.0722 23.4497 68.0096 23.3871 68.0096 23.3106C68.0096 23.2341 68.0722 23.1714 68.1557 23.1714C68.2392 23.1714 68.2949 23.2341 68.2949 23.3176C68.2879 23.3871 68.2253 23.4497 68.1488 23.4497ZM69.269 23.6098C69.1925 23.6028 69.1298 23.5402 69.1298 23.4637C69.1298 23.3802 69.1925 23.3245 69.276 23.3245C69.3525 23.3245 69.4151 23.3871 69.4151 23.4637C69.4151 23.5472 69.3455 23.6167 69.269 23.6098ZM69.0116 22.8235C68.2601 22.8375 67.6478 22.253 67.6408 21.5085C67.6339 20.7501 68.2114 20.1448 68.9489 20.1308C69.6934 20.1239 70.3057 20.7083 70.3266 21.4459C70.3544 22.1834 69.7491 22.8166 69.0116 22.8235ZM70.3057 23.1366C70.2222 23.1366 70.1596 23.074 70.1666 22.9905C70.1666 22.914 70.2292 22.8514 70.3127 22.8514C70.3962 22.8514 70.4518 22.914 70.4518 22.9975C70.4449 23.081 70.3823 23.1436 70.3057 23.1366ZM70.3127 20.096C70.2361 20.096 70.1735 20.0334 70.1735 19.9569C70.1735 19.8803 70.2431 19.8108 70.3196 19.8177C70.3962 19.8177 70.4588 19.8873 70.4588 19.9638C70.4518 20.0404 70.3892 20.096 70.3127 20.096ZM70.918 22.1904C70.8415 22.1904 70.7789 22.1278 70.7789 22.0512C70.7789 21.9677 70.8415 21.9121 70.925 21.9121C71.0085 21.9121 71.0641 21.9747 71.0641 22.0512C71.0641 22.1278 70.9946 22.1904 70.918 22.1904Z" fill="white"/>
<g id="Group_9">
<path id="Vector_26" d="M68.9558 26.1147C66.3466 26.0799 64.301 23.9995 64.3358 21.4042C64.3706 18.8715 66.4858 16.8189 69.0393 16.8537C70.9458 16.8815 72.5392 18.0157 73.228 19.6577C73.2976 19.8178 73.4576 19.9221 73.6316 19.9221H78.2377C78.5577 19.9221 78.7734 19.5882 78.6412 19.3029C78.5647 19.1498 78.4603 19.0106 78.3281 18.9272C78.2099 18.8506 78.1124 18.5653 78.1611 18.4401C78.3699 17.9113 78.1403 17.3895 77.6045 17.1599C77.4862 17.1111 77.354 16.8537 77.3819 16.7215C77.5001 16.1301 77.187 15.6709 76.5817 15.5665C76.4565 15.5456 76.2895 15.3021 76.2895 15.1629C76.3034 14.6063 75.8581 14.168 75.3014 14.1819C75.1692 14.1819 74.9396 14.0079 74.9118 13.8827C74.8005 13.3747 74.4178 13.0616 73.9516 13.0616C73.6942 13.0616 73.3741 12.8877 73.228 12.672C73.0123 12.3519 72.6087 12.185 72.2191 12.2545C71.9617 12.3032 71.6138 12.1919 71.4259 12.004C71.0989 11.684 70.5492 11.6005 70.2013 11.8927C69.9787 12.0806 69.8256 12.0736 69.6447 11.8231C69.3664 11.4335 68.601 11.4335 68.3227 11.8162C68.1487 12.0597 67.9887 12.0806 67.766 11.8927C67.4181 11.6005 66.8754 11.684 66.5414 12.011C66.3536 12.1919 66.0057 12.3032 65.7552 12.2476C65.3029 12.1571 64.8437 12.3867 64.6559 12.8251C64.6002 12.9573 64.3358 13.0964 64.1966 13.0686C63.6748 12.9781 63.1182 13.3191 63.0625 13.834C63.0347 14.1123 62.9233 14.2306 62.6172 14.1819C62.151 14.1053 61.6222 14.648 61.6918 15.1281C61.7335 15.4343 61.6292 15.5387 61.3369 15.5595C60.8568 15.5874 60.4394 16.1927 60.5855 16.6589C60.6759 16.9581 60.6133 17.1042 60.3002 17.1877C59.8619 17.299 59.5627 17.9948 59.7992 18.3914C59.9662 18.6697 59.9245 18.8158 59.6392 18.955C59.2148 19.1568 59.0826 19.8943 59.3957 20.2631C59.5905 20.4857 59.5696 20.6388 59.3331 20.8197C58.9852 21.0911 58.9782 21.6755 59.2357 22.0582C59.3818 22.2669 59.4166 22.6148 59.3122 22.8514C59.1313 23.2689 59.2565 23.8325 59.6531 24.0343C59.8967 24.1595 59.9732 24.3056 59.8201 24.577C59.5696 25.0084 59.8479 25.6624 60.3211 25.8016C60.5994 25.8851 60.6899 26.0103 60.5924 26.3025C60.4324 26.8035 60.8499 27.374 61.3648 27.4158C61.65 27.4367 61.7405 27.5758 61.6918 27.8681C61.6153 28.3412 62.158 28.8561 62.645 28.8004C62.9233 28.7587 63.0416 28.87 63.0695 29.1692C63.1112 29.6562 63.7096 30.0528 64.1827 29.9067C64.461 29.8232 64.6072 29.8928 64.6906 30.1711C64.8228 30.6373 65.4978 30.9226 65.9152 30.686C66.1796 30.5399 66.3258 30.5816 66.458 30.8391C66.6667 31.2287 67.2094 31.354 67.6269 31.18C67.8565 31.0896 68.2322 31.1174 68.434 31.2566C68.8028 31.521 69.3594 31.4862 69.6864 31.1522C69.7838 31.0548 70.083 31.0061 70.1874 31.0826C70.6536 31.3957 71.245 31.2774 71.5651 30.8112C71.6416 30.6999 71.9338 30.6373 72.066 30.693C72.5183 30.8808 73.1862 30.6443 73.3045 30.1781C73.388 29.858 73.5481 29.8163 73.8403 29.9067C74.3065 30.0528 74.8353 29.6284 74.9327 29.1344C74.9605 28.9952 75.1901 28.8004 75.3293 28.8004C75.872 28.8143 76.3103 28.376 76.3103 27.8124C76.3103 27.6802 76.5121 27.4575 76.6513 27.4367C77.1105 27.3601 77.5767 26.7687 77.4167 26.3373C77.3053 26.0312 77.3749 25.8851 77.681 25.8016C78.1472 25.6694 78.4255 25.0014 78.189 24.5839C78.1124 24.4378 77.9663 24.3474 77.7993 24.3474H72.8731C72.7409 24.3474 72.6157 24.41 72.5322 24.5074C71.6485 25.4954 70.3683 26.1286 68.9558 26.1147Z" fill="white"/>
</g>
<path id="Vector_27" d="M88.2921 18.2175V20.3327L83.2337 20.2492L80.6105 20.2075L82.7744 17.8418L83.2337 17.8696L88.2921 18.2175Z" fill="white"/>
</g>
</g>
</svg>
