<svg xmlns="http://www.w3.org/2000/svg" width="27" height="28" viewBox="0 0 27 28" fill="none">
  <path d="M7.49046 25.6668H19.7171C22.9371 25.6668 24.2205 23.6952 24.3721 21.2918L24.9788 11.6552C25.1421 9.13516 23.1355 7.00016 20.6038 7.00016C19.8921 7.00016 19.2388 6.59183 18.9121 5.96183L18.0721 4.27016C17.5355 3.2085 16.1355 2.3335 14.9455 2.3335H12.2738C11.0721 2.3335 9.67213 3.2085 9.13546 4.27016L8.29546 5.96183C7.96879 6.59183 7.31546 7.00016 6.60379 7.00016C4.07213 7.00016 2.06546 9.13516 2.22879 11.6552L2.83546 21.2918C2.97546 23.6952 4.27046 25.6668 7.49046 25.6668Z" stroke="white" stroke-width="1.5" stroke-linecap="round" stroke-linejoin="round"/>
  <path d="M11.8538 9.3335H15.3538" stroke="white" stroke-width="1.5" stroke-linecap="round" stroke-linejoin="round"/>
  <path d="M13.6038 20.9998C15.6921 20.9998 17.3955 19.2965 17.3955 17.2082C17.3955 15.1198 15.6921 13.4165 13.6038 13.4165C11.5155 13.4165 9.81213 15.1198 9.81213 17.2082C9.81213 19.2965 11.5155 20.9998 13.6038 20.9998Z" stroke="white" stroke-width="1.5" stroke-linecap="round" stroke-linejoin="round"/>
</svg>