<svg width="45" height="46" viewBox="0 0 45 46" fill="none" xmlns="http://www.w3.org/2000/svg">
<rect y="0.457031" width="45" height="45" rx="8" fill="#FF9065"/>
<path d="M19 33H25C30 33 32 31 32 26V20C32 15 30 13 25 13H19C14 13 12 15 12 20V26C12 31 14 33 19 33Z" stroke="white" stroke-width="1.5" stroke-linecap="round" stroke-linejoin="round"/>
<path d="M25.5 29.5C26.6 29.5 27.5 28.6 27.5 27.5V18.5C27.5 17.4 26.6 16.5 25.5 16.5C24.4 16.5 23.5 17.4 23.5 18.5V27.5C23.5 28.6 24.39 29.5 25.5 29.5Z" stroke="white" stroke-width="1.5" stroke-linecap="round" stroke-linejoin="round"/>
<path d="M18.5 29.5C19.6 29.5 20.5 28.6 20.5 27.5V24C20.5 22.9 19.6 22 18.5 22C17.4 22 16.5 22.9 16.5 24V27.5C16.5 28.6 17.39 29.5 18.5 29.5Z" stroke="white" stroke-width="1.5" stroke-linecap="round" stroke-linejoin="round"/>
</svg>
