<svg width="38" height="38" viewBox="0 0 38 38" fill="none" xmlns="http://www.w3.org/2000/svg">
<g id="Group 1000002755">
<path id="Vector" d="M19 37.37C8.6225 37.37 0.1875 29.0288 0.1875 18.7666C0.1875 8.50436 8.6225 0.163086 19 0.163086C29.3775 0.163086 37.8125 8.50436 37.8125 18.7666C37.8125 29.0288 29.3775 37.37 19 37.37ZM19 2.75892C10.075 2.75892 2.8125 9.94073 2.8125 18.7666C2.8125 27.5924 10.075 34.7742 19 34.7742C27.925 34.7742 35.1875 27.5924 35.1875 18.7666C35.1875 9.94073 27.925 2.75892 19 2.75892Z" fill="#292D32"/>
<path id="Vector_2" d="M16.8195 24C16.4121 24 16.0046 23.8599 15.683 23.5598L12.4664 20.5584C11.8445 19.9782 11.8445 19.0177 12.4664 18.4375C13.0883 17.8572 14.1176 17.8572 14.7395 18.4375L16.8195 20.3784L24.2605 13.4352C24.8824 12.8549 25.9117 12.8549 26.5336 13.4352C27.1555 14.0155 27.1555 14.9759 26.5336 15.5562L17.956 23.5598C17.6344 23.8599 17.2269 24 16.8195 24Z" fill="#292D32"/>
</g>
</svg>
