<svg xmlns="http://www.w3.org/2000/svg" width="28" height="28" viewBox="0 0 28 28" fill="none">
<path d="M11.0602 24.1385C10.4769 24.1385 10.0685 23.9402 9.82352 23.7535C9.35686 23.4152 8.63352 22.5402 9.08852 20.5802L9.75349 17.7101C9.81183 17.4651 9.6835 17.0218 9.5085 16.8351L7.18685 14.5135C5.96185 13.2885 6.06684 12.2268 6.23017 11.7018C6.3935 11.1768 6.93017 10.2551 8.6335 9.96348L11.6085 9.47348C11.8302 9.43848 12.1918 9.17016 12.2852 8.97182L13.9302 5.68181C14.7235 4.09515 15.7735 3.86182 16.3335 3.86182C16.8935 3.86182 17.9435 4.09515 18.7368 5.68181L20.3818 8.97182C20.4868 9.17016 20.8368 9.43848 21.0585 9.47348L24.0335 9.96348C25.7368 10.2435 26.2735 11.1768 26.4368 11.7018C26.6002 12.2268 26.7052 13.2885 25.4802 14.5135L23.1585 16.8351C22.9835 17.0101 22.8552 17.4651 22.9135 17.7101L23.5785 20.5802C24.0335 22.5518 23.3102 23.4152 22.8435 23.7535C22.3768 24.0918 21.3385 24.5235 19.5885 23.4852L16.8002 21.8285C16.5668 21.6885 16.0768 21.6885 15.8435 21.8285L13.0552 23.4852C12.2502 23.9752 11.5735 24.1385 11.0602 24.1385ZM16.3335 5.61182C16.1468 5.61182 15.8085 5.83348 15.4935 6.46348L13.8485 9.75349C13.4985 10.4652 12.6702 11.0718 11.8885 11.2002L8.91353 11.6902C8.24853 11.8068 7.94519 12.0518 7.88685 12.2385C7.82852 12.4252 7.9335 12.7985 8.41183 13.2768L10.7335 15.5985C11.3285 16.1935 11.6435 17.2785 11.4569 18.0951L10.7918 20.9652C10.5935 21.7935 10.7218 22.2368 10.8502 22.3418C10.9785 22.4351 11.4452 22.4235 12.1685 21.9801L14.9685 20.3235C15.7502 19.8568 16.9285 19.8568 17.6985 20.3235L20.4868 21.9801C21.2218 22.4118 21.6885 22.4351 21.8169 22.3418C21.9452 22.2485 22.0735 21.8052 21.8752 20.9652L21.2102 18.0951C21.0235 17.2668 21.3268 16.1935 21.9335 15.5985L24.2552 13.2768C24.7335 12.7985 24.8385 12.4135 24.7802 12.2385C24.7218 12.0635 24.4185 11.8068 23.7535 11.6902L20.7785 11.2002C19.9968 11.0718 19.1685 10.4652 18.8185 9.75349L17.1735 6.46348C16.8585 5.83348 16.5202 5.61182 16.3335 5.61182Z" fill="#377E7F"/>
<path d="M9.33337 6.7085H2.33337C1.85504 6.7085 1.45837 6.31183 1.45837 5.8335C1.45837 5.35516 1.85504 4.9585 2.33337 4.9585H9.33337C9.81171 4.9585 10.2084 5.35516 10.2084 5.8335C10.2084 6.31183 9.81171 6.7085 9.33337 6.7085Z" fill="#377E7F"/>
<path d="M5.83337 23.0415H2.33337C1.85504 23.0415 1.45837 22.6448 1.45837 22.1665C1.45837 21.6882 1.85504 21.2915 2.33337 21.2915H5.83337C6.31171 21.2915 6.70837 21.6882 6.70837 22.1665C6.70837 22.6448 6.31171 23.0415 5.83337 23.0415Z" fill="#377E7F"/>
<path d="M3.50004 14.875H2.33337C1.85504 14.875 1.45837 14.4783 1.45837 14C1.45837 13.5217 1.85504 13.125 2.33337 13.125H3.50004C3.97837 13.125 4.37504 13.5217 4.37504 14C4.37504 14.4783 3.97837 14.875 3.50004 14.875Z" fill="#377E7F"/>
</svg>