<svg width="45" height="46" viewBox="0 0 45 46" fill="none" xmlns="http://www.w3.org/2000/svg">
<rect y="0.457031" width="45" height="45" rx="8" fill="#8675FF"/>
<path d="M19.5 23.7502C19.5 24.7202 20.25 25.5002 21.17 25.5002H23.05C23.85 25.5002 24.5 24.8202 24.5 23.9702C24.5 23.0602 24.1 22.7302 23.51 22.5202L20.5 21.4702C19.91 21.2602 19.51 20.9402 19.51 20.0202C19.51 19.1802 20.16 18.4902 20.96 18.4902H22.84C23.76 18.4902 24.51 19.2702 24.51 20.2402" stroke="white" stroke-width="1.5" stroke-linecap="round" stroke-linejoin="round"/>
<path d="M22 17.5V26.5" stroke="white" stroke-width="1.5" stroke-linecap="round" stroke-linejoin="round"/>
<path d="M32 22C32 27.52 27.52 32 22 32C16.48 32 12 27.52 12 22C12 16.48 16.48 12 22 12" stroke="white" stroke-width="1.5" stroke-linecap="round" stroke-linejoin="round"/>
<path d="M32 16V12H28" stroke="white" stroke-width="1.5" stroke-linecap="round" stroke-linejoin="round"/>
<path d="M27 17L32 12" stroke="white" stroke-width="1.5" stroke-linecap="round" stroke-linejoin="round"/>
</svg>
