<svg width="28" height="25" viewBox="0 0 28 25" fill="none" xmlns="http://www.w3.org/2000/svg">
<g id="Tractor">
<path id="Vector" d="M24.6829 11.6211V13.3847H27.5457C27.4155 12.8802 27.1214 12.4333 26.7096 12.1141C26.2979 11.7949 25.7917 11.6215 25.2707 11.6211H24.6829Z" fill="black"/>
<path id="Vector_2" d="M24.0952 14.5608C23.9393 14.5608 23.7898 14.4988 23.6796 14.3886C23.5693 14.2783 23.5074 14.1288 23.5074 13.9729V11.6215C16.1767 11.6215 17.1114 11.7096 17.0056 11.4157L13.7665 2.80354C14.0783 2.77002 14.3641 2.614 14.5609 2.3698C14.7576 2.12561 14.8494 1.81325 14.8158 1.50142C14.7823 1.1896 14.6263 0.903869 14.3821 0.70708C14.1379 0.510292 13.8256 0.41857 13.5137 0.45209H1.7565C1.49991 0.454709 1.25123 0.541199 1.04839 0.698362C0.845549 0.855525 0.699696 1.07473 0.633082 1.32253C0.566469 1.57034 0.582753 1.83313 0.67945 2.07081C0.776146 2.30849 0.947947 2.50802 1.16864 2.63894V12.7972C1.16864 12.9531 1.23057 13.1026 1.34082 13.2129C1.45106 13.3231 1.60059 13.3851 1.7565 13.3851C1.7565 13.4615 1.7565 13.4732 1.84468 13.3851C1.9521 13.3706 2.05343 13.3267 2.13746 13.2582C2.2215 13.1897 2.28496 13.0993 2.32085 12.9971C7.8879 8.89966 15.436 14.5608 13.1081 21.0273H14.419C14.7757 19.8396 14.8594 18.5866 14.6639 17.3621C14.4683 16.1375 13.9985 14.973 13.2897 13.9554C12.5808 12.9379 11.6512 12.0938 10.5702 11.486C9.48927 10.8783 8.28495 10.5227 7.04725 10.4457C7.04725 10.2811 7.04725 10.9631 7.04725 2.80354H12.5202L15.824 11.6215H12.7378C14.0434 12.768 15.0059 14.2539 15.5185 15.9141C16.0311 17.5744 16.0738 19.3442 15.6418 21.0273H17.6288C17.6288 19.78 18.1243 18.5838 19.0062 17.7018C19.8882 16.8198 21.0844 16.3244 22.3317 16.3244C23.5789 16.3244 24.7751 16.8198 25.6571 17.7018C26.5391 18.5838 27.0346 19.78 27.0346 21.0273H27.6224V14.5608H24.0952ZM5.87153 10.4457C4.62152 10.5635 3.41501 10.9656 2.34436 11.6215V2.80354H5.87153V10.4457ZM18.8045 16.3244H17.6288C17.4729 16.3244 17.3233 16.2624 17.2131 16.1522C17.1028 16.0419 17.0409 15.8924 17.0409 15.7365C17.0409 15.5806 17.1028 15.4311 17.2131 15.3208C17.3233 15.2106 17.4729 15.1486 17.6288 15.1486H18.8045C18.9604 15.1486 19.1099 15.2106 19.2202 15.3208C19.3304 15.4311 19.3924 15.5806 19.3924 15.7365C19.3924 15.8924 19.3304 16.0419 19.2202 16.1522C19.1099 16.2624 18.9604 16.3244 18.8045 16.3244ZM18.8045 13.9729H17.6288C17.4729 13.9729 17.3233 13.911 17.2131 13.8007C17.1028 13.6905 17.0409 13.541 17.0409 13.3851C17.0409 13.2291 17.1028 13.0796 17.2131 12.9694C17.3233 12.8591 17.4729 12.7972 17.6288 12.7972H18.8045C18.9604 12.7972 19.1099 12.8591 19.2202 12.9694C19.3304 13.0796 19.3924 13.2291 19.3924 13.3851C19.3924 13.541 19.3304 13.6905 19.2202 13.8007C19.1099 13.911 18.9604 13.9729 18.8045 13.9729Z" fill="black"/>
<path id="Vector_3" d="M23.5072 4.56724H22.9193C22.9193 4.09951 23.1052 3.65093 23.4359 3.3202C23.7666 2.98946 24.2152 2.80365 24.6829 2.80365C24.8388 2.80365 24.9884 2.74172 25.0986 2.63147C25.2089 2.52123 25.2708 2.3717 25.2708 2.21579C25.2708 2.05988 25.2089 1.91036 25.0986 1.80011C24.9884 1.68987 24.8388 1.62793 24.6829 1.62793C23.9034 1.62793 23.1558 1.93761 22.6045 2.48883C22.0533 3.04006 21.7436 3.78769 21.7436 4.56724H21.1558V10.4459H23.5072V4.56724Z" fill="black"/>
<path id="Vector_4" d="M22.3315 20.4395C22.1756 20.4395 22.0261 20.5014 21.9158 20.6116C21.8056 20.7219 21.7437 20.8714 21.7437 21.0273C21.7437 21.1832 21.8056 21.3328 21.9158 21.443C22.0261 21.5532 22.1756 21.6152 22.3315 21.6152C22.4874 21.6152 22.637 21.5532 22.7472 21.443C22.8574 21.3328 22.9194 21.1832 22.9194 21.0273C22.9194 20.8714 22.8574 20.7219 22.7472 20.6116C22.637 20.5014 22.4874 20.4395 22.3315 20.4395Z" fill="black"/>
<path id="Vector_5" d="M22.3316 17.5C21.634 17.5 20.9521 17.7069 20.372 18.0944C19.792 18.482 19.3399 19.0329 19.0729 19.6774C18.806 20.3219 18.7361 21.0311 18.8722 21.7153C19.0083 22.3995 19.3442 23.028 19.8375 23.5213C20.3308 24.0145 20.9593 24.3505 21.6435 24.4866C22.3277 24.6227 23.0369 24.5528 23.6814 24.2859C24.3259 24.0189 24.8768 23.5668 25.2644 22.9868C25.6519 22.4067 25.8588 21.7248 25.8588 21.0272C25.8588 20.0917 25.4872 19.1946 24.8257 18.5331C24.1642 17.8716 23.2671 17.5 22.3316 17.5ZM22.3316 22.7908C21.9828 22.7908 21.6418 22.6873 21.3518 22.4935C21.0618 22.2998 20.8358 22.0243 20.7023 21.7021C20.5688 21.3798 20.5339 21.0252 20.6019 20.6831C20.67 20.341 20.8379 20.0268 21.0846 19.7801C21.3312 19.5335 21.6455 19.3655 21.9876 19.2975C22.3297 19.2294 22.6843 19.2643 23.0065 19.3978C23.3288 19.5313 23.6042 19.7574 23.798 20.0474C23.9918 20.3374 24.0952 20.6784 24.0952 21.0272C24.0952 21.4949 23.9094 21.9435 23.5787 22.2742C23.2479 22.6049 22.7993 22.7908 22.3316 22.7908Z" fill="black"/>
<path id="Vector_6" d="M6.45917 19.8514C7.10851 19.8514 7.63489 19.3251 7.63489 18.6757C7.63489 18.0264 7.10851 17.5 6.45917 17.5C5.80984 17.5 5.28345 18.0264 5.28345 18.6757C5.28345 19.3251 5.80984 19.8514 6.45917 19.8514Z" fill="black"/>
<path id="Vector_7" d="M6.45928 12.7969C5.3993 12.7963 4.35889 13.0824 3.44819 13.6248C2.53748 14.1672 1.79038 14.9457 1.28595 15.878C0.781527 16.8102 0.538552 17.8615 0.58275 18.9206C0.626948 19.9797 0.956673 21.0071 1.53702 21.8941C2.11737 22.7811 2.92675 23.4947 3.87948 23.9593C4.8322 24.4239 5.89283 24.6223 6.94908 24.5334C8.00534 24.4446 9.01791 24.0718 9.87962 23.4545C10.7413 22.8372 11.4201 21.9984 11.8441 21.0269C12.2344 20.1326 12.396 19.1551 12.3142 18.1827C12.2324 17.2103 11.9098 16.2735 11.3755 15.4569C10.8412 14.6403 10.112 13.9696 9.25377 13.5052C8.39551 13.0408 7.43513 12.7974 6.45928 12.7969ZM6.45928 21.0269C5.99421 21.0269 5.53958 20.889 5.15289 20.6307C4.7662 20.3723 4.46481 20.005 4.28683 19.5754C4.10885 19.1457 4.06229 18.6729 4.15302 18.2167C4.24375 17.7606 4.4677 17.3416 4.79656 17.0128C5.12542 16.6839 5.5444 16.46 6.00054 16.3692C6.45668 16.2785 6.92947 16.3251 7.35914 16.503C7.78882 16.681 8.15606 16.9824 8.41444 17.3691C8.67282 17.7558 8.81073 18.2104 8.81073 18.6755C8.81073 19.2991 8.56299 19.8972 8.12201 20.3382C7.68103 20.7792 7.08293 21.0269 6.45928 21.0269Z" fill="black"/>
</g>
</svg>
