<svg width="80" height="51" viewBox="0 0 80 51" fill="none" xmlns="http://www.w3.org/2000/svg">
<path d="M47.0633 22.5548C44.283 22.7265 41.2853 22.5548 39.1 22.1201C37.4867 21.7997 36.3197 21.3306 36.0107 20.7471H46.5828L47.0633 22.5548Z" fill="#fff"/>
<path d="M41.6968 28.6982V50.6203H50.0148V29.2703L41.6968 28.6982Z" fill="#fff"/>
<path d="M47.0619 22.5548C44.2816 22.7265 41.2839 22.5548 39.0985 22.1201C37.4852 21.7997 36.3182 21.3306 36.0093 20.7471H46.5813L47.0619 22.5548Z" fill="#fff"/>
<path d="M47.0633 22.5548C44.283 22.7265 41.2853 22.5548 39.1 22.1201C37.4867 21.7997 36.3197 21.3306 36.0107 20.7471H46.5828L47.0633 22.5548Z" fill="#fff"/>
<path d="M47.2585 9.46642C46.2974 9.46642 45.4049 9.46642 44.3981 9.46642C45.3706 8.58541 46.366 8.58541 47.2585 9.46642ZM46.5147 10.1186C46.5147 10.9309 46.5147 11.6975 46.5147 12.4984C46.0571 12.4984 45.6566 12.4984 45.199 12.4984C45.199 11.709 45.199 10.9309 45.199 10.1186C45.6337 10.1186 46.0456 10.1186 46.5147 10.1186ZM39.3637 13.6769C39.5239 13.654 39.6956 13.654 39.8557 13.654C49.8099 13.654 59.7527 13.6655 69.7069 13.654C71.343 13.654 72.7847 14.0202 73.9517 15.233C74.0318 15.3131 74.1005 15.3932 74.1577 15.4847C74.192 15.5305 74.2034 15.5877 74.2492 15.7021C62.0295 15.7021 49.8442 15.7021 37.6589 15.7021C37.6246 14.6266 38.3111 13.8142 39.3637 13.6769Z" fill="#fff"/>
<path d="M23.586 10.0835H19.2497C17.8652 10.0835 17.8653 10.0835 17.4877 8.75625C17.2474 7.90957 16.7211 7.50912 16.0346 7.65786C15.3023 7.8066 14.9705 8.41301 15.1307 9.30545C15.165 9.52284 15.2222 9.72879 15.2794 10.0148H13.506V6.73109H23.586V10.0835ZM70.6911 12.5892C69.7529 12.5091 68.7918 12.5777 67.8422 12.5777C67.7964 12.326 67.7621 12.2231 67.7621 12.1201C67.7621 8.81346 67.7506 5.50685 67.7735 2.18878C67.7735 1.93707 67.9794 1.66246 68.1396 1.43363C68.5401 0.872988 68.3341 0.209383 67.6591 0.140734C67.0069 0.0720841 66.3433 0.0720785 65.7026 0.163611C65.0046 0.255144 64.8559 0.884438 65.2564 1.45652C65.4509 1.74256 65.6339 2.10869 65.6454 2.44049C65.6797 5.52972 65.6683 8.61896 65.6568 11.7082C65.6568 11.9713 65.6225 12.2231 65.611 12.4748H47.4532V10.4839C48.5631 10.0148 48.666 9.40842 47.7621 8.63039C46.7095 7.72651 45.0848 7.69219 43.9979 8.61896C43.7004 8.87067 43.3915 9.32833 43.4143 9.67158C43.4258 9.9805 43.8949 10.2665 44.2381 10.6441V12.5205C42.6363 12.5205 41.1031 12.532 39.5814 12.5091C39.4212 12.5091 39.1924 12.4061 39.1123 12.2917C38.3915 10.9874 37.6707 9.68302 36.9956 8.35579C36.9155 8.19561 36.9956 7.80661 37.1443 7.68075C37.8766 7.07435 38.6318 6.49082 39.4212 5.96451C39.8789 5.65559 40.245 5.33522 39.9819 4.78602C39.7073 4.19106 39.2038 4.2025 38.6661 4.45421C36.229 5.60981 33.7805 6.76542 31.332 7.92102C30.8057 8.16129 30.5425 8.5503 30.7714 9.0995C31.0231 9.68302 31.5036 9.61438 32.03 9.46564C32.911 9.21392 33.8148 8.99652 34.7073 8.75625C35.1306 8.64183 35.3709 8.7677 35.5311 9.19104C35.8743 10.1292 36.1832 11.0903 36.618 11.9713C37.0528 12.8524 37.2015 13.5503 36.7553 14.58C36.3434 15.5526 36.5265 16.8226 36.6066 17.9553C36.6524 18.699 36.4579 19.191 35.7942 19.6029C34.1581 16.9484 32.5563 14.3512 30.9316 11.754C30.3709 10.8615 30.0505 9.63725 28.5059 10.072C28.5059 9.36265 28.5174 8.79058 28.5059 8.2185C28.4716 6.62812 27.3618 5.44964 25.7599 5.44964C20.9201 5.42675 16.0804 5.42675 11.2291 5.44964C9.73027 5.46108 8.609 6.62811 8.56323 8.11552C8.54035 8.73337 8.56323 9.36266 8.56323 9.70591C7.85385 10.072 7.13303 10.2093 6.85843 10.6327C4.70741 13.9851 2.62503 17.3947 0.542658 20.8043C0.0849941 21.548 0.302387 21.9255 1.16051 21.9484C2.65936 22.0056 3.84928 21.3878 4.83326 20.2894C8.09411 16.6395 12.1788 14.5457 17.0529 14.1567C27.419 13.3215 35.1421 21.0903 36.8125 28.9392C37.0642 30.0948 37.2016 31.2848 37.3961 32.509C37.6707 32.4175 37.9338 32.3603 38.1741 32.2344C39.3068 31.6395 40.4738 31.342 41.7095 31.239C42.2359 31.1932 42.7736 31.1932 43.3228 31.2276C44.7644 31.3076 46.2175 31.2848 47.6706 31.2276C48.2656 31.2047 49.2152 31.342 50.0276 31.4907V29.271L41.7095 28.699V27.8065L42.3846 25.9186L48.6203 23.9393L49.0322 23.9621C47.9795 23.5617 47.2816 23.2985 47.2816 23.2985L47.2129 23.0582C45.3937 23.0582 43.5745 23.0697 41.7553 23.0926C40.6226 23.104 39.7416 22.7951 39.1237 22.1315C38.8148 21.7997 38.5745 21.3878 38.4029 20.8843C38.3915 20.8386 38.38 20.8043 38.3571 20.7585C37.9224 19.4198 37.7279 17.9896 37.3846 16.445H38.5173C40.8285 16.445 43.1512 16.445 45.4624 16.445C53.8491 16.445 62.2472 16.445 70.6339 16.445H74.0435C74.936 16.445 75.0732 16.6052 75.1533 17.7951C74.5813 17.7951 73.9977 17.7379 73.4371 17.818C73.1511 17.8638 72.8993 18.1498 72.6362 18.3214C72.8879 18.5045 73.1282 18.7791 73.4142 18.8477C73.8032 18.9393 74.238 18.8363 74.6385 18.8935C74.8787 18.9278 75.1076 19.0995 75.3364 19.2139C75.0961 19.3397 74.8558 19.5342 74.5927 19.5686C74.1922 19.6258 73.7575 19.5228 73.3684 19.6029C73.1053 19.6601 72.8765 19.9118 72.6362 20.0834C72.8879 20.2551 73.1282 20.5411 73.4028 20.5869C73.8833 20.667 74.3867 20.5869 74.8787 20.6212C75.016 20.6326 75.1419 20.8043 75.2792 20.9072C75.1533 21.0445 75.0389 21.2962 74.9016 21.3077C74.3868 21.3535 73.8604 21.2734 73.3456 21.3535C73.0938 21.3992 72.8764 21.6738 72.6476 21.8454C72.8764 22.0171 73.0939 22.3031 73.357 22.3374C73.9177 22.4175 74.5012 22.3603 75.1076 22.3603C75.2792 22.7722 75.3135 23.0582 74.7414 23.0468C74.2494 23.0468 73.746 23.001 73.2655 23.0811C73.0366 23.1155 72.8536 23.4129 72.6476 23.5846C72.8536 23.7676 73.0481 24.0766 73.2655 24.0994C73.849 24.1795 74.4554 24.1223 75.0618 24.1223C75.2563 24.6258 75.1419 24.8317 74.6385 24.8203C74.2037 24.8088 73.746 24.7516 73.3341 24.8431C73.0824 24.9004 72.865 25.175 72.6476 25.358C72.8879 25.5182 73.1167 25.7928 73.3684 25.8386C73.8948 25.9187 74.4439 25.8614 74.9703 25.8614C75.1762 26.3992 75.0389 26.6166 74.5355 26.5937C74.1007 26.5823 73.6545 26.5479 73.2197 26.6166C73.0023 26.6509 72.8307 26.9141 72.6362 27.0628C72.8307 27.2459 73.0023 27.5662 73.2197 27.5891C73.7803 27.6692 74.3524 27.612 74.9245 27.612C75.119 28.1383 74.9932 28.3328 74.4897 28.3099C74.0778 28.2871 73.6545 28.2527 73.2655 28.3443C73.0252 28.39 72.8421 28.6761 72.6362 28.8477C72.8421 29.0308 73.0252 29.3283 73.254 29.3626C73.7803 29.4427 74.3295 29.3855 74.9817 29.3855C74.9474 30.0834 74.913 30.7127 74.8787 31.4335C74.8673 31.5479 74.8673 31.6623 74.8558 31.7768C74.8215 31.7539 74.7986 31.7424 74.7758 31.7195C74.7414 32.4518 75.3707 33.287 76.1716 32.9324C76.103 32.7836 76.0572 32.6234 76.0343 32.4518C76.0115 32.3031 76 32.1314 76 31.9598C76.1716 27.6692 76.3433 23.3786 76.4691 19.088C76.5835 15.5754 74.2037 12.8981 70.6911 12.5892ZM66.0458 29.4312C65.92 29.4541 65.7827 29.4884 65.6568 29.5228C65.6568 29.5571 65.6682 29.58 65.6682 29.6143C65.8628 29.7287 66.0229 29.969 66.2403 30.0491L66.0458 29.4312Z" fill="#fff"/>
<path d="M37.6589 15.7014C37.6246 14.6259 38.3225 13.8021 39.3637 13.6762C39.5239 13.6533 39.6955 13.6533 39.8557 13.6533C49.8099 13.6533 59.7527 13.6648 69.7068 13.6533C71.343 13.6533 72.7846 14.0195 73.9517 15.2323C74.0318 15.3124 74.1004 15.3924 74.1576 15.484C74.192 15.5297 74.2034 15.587 74.2492 15.7014C62.0295 15.7014 49.8442 15.7014 37.6589 15.7014Z" fill="#fff"/>
<path d="M44.4106 9.46604C45.3832 8.58504 46.3786 8.59648 47.271 9.46604C46.2985 9.46604 45.4175 9.46604 44.4106 9.46604Z" fill="#fff"/>
<path d="M41.8695 18.996C41.5949 18.996 41.3203 18.9846 41.0572 18.996C40.5652 19.0189 40.3936 18.7901 40.3936 18.3095C40.3936 17.8176 40.5881 17.6116 41.0686 17.6231C41.5606 17.6345 42.0526 17.6345 42.5331 17.6231C43.0251 17.6116 43.3684 17.6917 43.3684 18.321C43.3798 18.9846 42.9794 18.996 42.5217 18.996C42.3043 19.0075 42.0869 19.0075 41.8695 18.996Z" fill="#fff"/>
<path d="M68.2981 36.7764C66.5246 36.7764 65.083 38.218 65.083 39.9915C65.083 41.7649 66.5246 43.2066 68.2981 43.2066C70.0715 43.2066 71.5132 41.7649 71.5132 39.9915C71.5132 38.218 70.0715 36.7764 68.2981 36.7764ZM68.2981 41.4903C67.4629 41.4903 66.7992 40.8152 66.7992 39.9915C66.7992 39.1562 67.4743 38.4926 68.2981 38.4926C69.1333 38.4926 69.7969 39.1677 69.7969 39.9915C69.7969 40.8152 69.1333 41.4903 68.2981 41.4903Z" fill="#fff"/>
<path d="M76.044 32.4634C75.6893 32.0973 75.3003 31.754 74.8998 31.4451C74.8884 31.5595 74.8884 31.6739 74.8769 31.7883C74.8426 31.7654 74.8197 31.754 74.7968 31.7311C74.7625 32.4634 75.3918 33.2986 76.1927 32.9439C76.1126 32.7837 76.0669 32.6236 76.044 32.4634ZM65.6436 29.5114C65.6436 29.5458 65.655 29.5687 65.655 29.603C65.8495 29.7174 66.0097 29.9577 66.2271 30.0378L66.0326 29.4199C65.9067 29.4542 65.7809 29.4886 65.6436 29.5114Z" fill="#fff"/>
<path d="M70.632 15.4268V16.4336C62.2453 16.4336 53.8471 16.4336 45.4604 16.4336L45.2659 15.7014L45.1973 15.4268H70.632Z" fill="#fff"/>
<path d="M76.0447 32.4626C76.0676 32.6342 76.1248 32.7829 76.182 32.9431C75.3811 33.2978 74.7518 32.4626 74.7861 31.7303C74.8204 31.7532 74.8433 31.7761 74.8662 31.7875C74.8776 31.6731 74.8776 31.5587 74.8891 31.4443C73.6534 30.4832 72.2117 29.7967 70.6328 29.4534V16.4443C62.2461 16.4443 53.848 16.4443 45.4613 16.4443L46.594 20.7578L47.0631 22.5656L47.189 23.0576L47.2576 23.2979C47.2576 23.2979 47.9555 23.561 49.0082 23.9615L48.5963 23.9386L42.3606 25.918L41.6855 27.8058V28.6983L50.0036 29.2704V32.7601L52.1432 32.7944C53.3445 32.8173 54.4315 33.5152 54.9578 34.5907L55.4727 35.6662L57.0745 35.8035L58.0127 33.9385C59.4887 31.49 61.6511 29.8081 64.42 28.8356C64.7404 28.7212 65.0836 28.664 65.4726 28.561C65.5298 28.9271 65.587 29.2246 65.6328 29.5221C60.9532 30.7006 57.4864 34.9454 57.4864 39.9911C57.4864 45.9522 62.3262 50.792 68.2873 50.792C74.2483 50.792 79.0881 45.9522 79.0881 39.9911C79.0996 37.0621 77.9325 34.4076 76.0447 32.4626ZM68.2987 46.3756C64.7633 46.3756 61.9029 43.5152 61.9029 39.9797C61.9029 36.4442 64.7633 33.5838 68.2987 33.5838C71.8342 33.5838 74.6946 36.4442 74.6946 39.9797C74.6946 43.5152 71.8342 46.3756 68.2987 46.3756Z" fill="#fff"/>
<path d="M18.344 30.1633C15.804 30.1404 13.8131 32.0855 13.7902 34.6369C13.7674 37.0855 15.7239 39.0877 18.1724 39.1221C20.6895 39.1564 22.7261 37.177 22.749 34.6598C22.7833 32.2456 20.7582 30.1862 18.344 30.1633ZM21.4561 33.4699C21.582 33.4699 21.6849 33.5729 21.6964 33.6987C21.6964 33.836 21.5934 33.939 21.4675 33.939C21.3302 33.939 21.2273 33.836 21.2387 33.6987C21.2273 33.5729 21.3303 33.4699 21.4561 33.4699ZM18.7673 31.1129C18.8932 31.1129 18.9962 31.2159 18.9962 31.3532C18.9962 31.4791 18.8932 31.582 18.7673 31.582C18.63 31.582 18.5271 31.4791 18.5271 31.3418C18.5271 31.2159 18.63 31.1129 18.7673 31.1129ZM16.9138 31.3761C17.0397 31.3761 17.1426 31.4905 17.1426 31.6164C17.1426 31.7422 17.0396 31.8452 16.9023 31.8452C16.7765 31.8452 16.6735 31.7422 16.6735 31.6164C16.6735 31.4791 16.7879 31.3647 16.9138 31.3761ZM14.9687 34.8543C14.8314 34.8543 14.7284 34.7514 14.7284 34.6141C14.7284 34.4768 14.8314 34.3738 14.9687 34.3738C15.106 34.3738 15.1976 34.4768 15.1976 34.6141C15.1976 34.7514 15.0946 34.8543 14.9687 34.8543ZM15.4721 36.6507C15.3463 36.6392 15.2548 36.5363 15.2548 36.4104C15.2662 36.2845 15.3692 36.1816 15.495 36.193C15.6209 36.193 15.7239 36.3074 15.7239 36.4447C15.7124 36.5591 15.6094 36.6507 15.4721 36.6507ZM15.495 33.058C15.3577 33.058 15.2662 32.9665 15.2662 32.8292C15.2662 32.6919 15.3692 32.5889 15.5065 32.5889C15.6323 32.5889 15.7353 32.6919 15.7353 32.8292C15.7239 32.955 15.6209 33.058 15.495 33.058ZM16.8909 37.8749C16.7651 37.8749 16.6621 37.7719 16.6621 37.6461C16.6621 37.5202 16.765 37.4172 16.9023 37.4172C17.0396 37.4172 17.1312 37.5202 17.1312 37.6575C17.1197 37.772 17.0168 37.8749 16.8909 37.8749ZM18.733 38.1381C18.6071 38.1266 18.5042 38.0237 18.5042 37.8978C18.5042 37.7605 18.6072 37.669 18.7445 37.669C18.8703 37.669 18.9733 37.7719 18.9733 37.8978C18.9733 38.0351 18.8589 38.1495 18.733 38.1381ZM18.3097 36.8452C17.074 36.8681 16.0671 35.907 16.0557 34.6827C16.0442 33.4356 16.9939 32.4402 18.2067 32.4173C19.4309 32.4058 20.4378 33.3669 20.4721 34.5797C20.5179 35.7926 19.5225 36.8337 18.3097 36.8452ZM20.4378 37.36C20.3005 37.36 20.1975 37.2571 20.209 37.1198C20.209 36.9939 20.3119 36.8909 20.4492 36.8909C20.5865 36.8909 20.6781 36.9939 20.6781 37.1312C20.6666 37.2685 20.5637 37.3715 20.4378 37.36ZM20.4492 32.3601C20.3234 32.3601 20.2204 32.2571 20.2204 32.1312C20.2204 32.0054 20.3348 31.891 20.4607 31.9024C20.5866 31.9024 20.6895 32.0168 20.6895 32.1427C20.6781 32.2685 20.5751 32.3601 20.4492 32.3601ZM21.4447 35.804C21.3188 35.804 21.2158 35.701 21.2158 35.5752C21.2158 35.4379 21.3188 35.3463 21.4561 35.3463C21.5934 35.3463 21.6849 35.4493 21.6849 35.5752C21.6849 35.701 21.5705 35.804 21.4447 35.804Z" fill="#fff"/>
<path d="M18.2184 42.2565C13.9278 42.1993 10.5639 38.7782 10.6211 34.5105C10.6784 30.3458 14.1566 26.9705 18.3557 27.0277C21.4907 27.0735 24.1108 28.9384 25.2435 31.6387C25.3579 31.9018 25.6211 32.0734 25.9071 32.0734H33.4815C34.0078 32.0734 34.3625 31.5242 34.1451 31.0551C34.0192 30.8034 33.8476 30.5746 33.6302 30.4373C33.4357 30.3114 33.2755 29.8423 33.3556 29.6364C33.6989 28.7668 33.3213 27.9087 32.4403 27.5311C32.2458 27.451 32.0284 27.0277 32.0742 26.8103C32.2687 25.8378 31.7538 25.0826 30.7584 24.911C30.5524 24.8767 30.2778 24.4762 30.2778 24.2474C30.3007 23.3321 29.5684 22.6112 28.6531 22.6341C28.4357 22.6341 28.0581 22.3481 28.0124 22.1421C27.8293 21.3069 27.2 20.792 26.4334 20.792C26.0101 20.792 25.4838 20.506 25.2435 20.1513C24.8888 19.625 24.2252 19.3504 23.5845 19.4648C23.1611 19.5449 22.5891 19.3618 22.2801 19.0529C21.7424 18.5266 20.8385 18.3893 20.2664 18.8698C19.9003 19.1788 19.6486 19.1673 19.3511 18.7554C18.8934 18.1147 17.6348 18.1147 17.1772 18.744C16.8911 19.1444 16.628 19.1788 16.2619 18.8698C15.6898 18.3893 14.7973 18.5266 14.2481 19.0644C13.9392 19.3618 13.3671 19.5449 12.9552 19.4534C12.2115 19.3046 11.4564 19.6822 11.1475 20.403C11.0559 20.6204 10.6211 20.8492 10.3923 20.8035C9.5342 20.6547 8.61886 21.2154 8.52733 22.062C8.48156 22.5197 8.2985 22.7142 7.79507 22.6341C7.02848 22.5083 6.15893 23.4007 6.27334 24.1902C6.34199 24.6936 6.17036 24.8652 5.68981 24.8996C4.90034 24.9453 4.21385 25.9407 4.45412 26.7073C4.60286 27.1993 4.49989 27.4396 3.98502 27.5769C3.2642 27.76 2.7722 28.9041 3.16122 29.5563C3.43582 30.014 3.36717 30.2542 2.89807 30.4831C2.20013 30.8149 1.98274 32.0277 2.49761 32.6341C2.81798 33.0002 2.78365 33.2519 2.39464 33.5494C1.82256 33.9956 1.81111 34.9567 2.23445 35.586C2.47472 35.9293 2.53193 36.5013 2.36031 36.8904C2.06282 37.5769 2.26878 38.5036 2.92095 38.8354C3.3214 39.0414 3.44726 39.2817 3.19555 39.7279C2.78365 40.4373 3.24131 41.5128 4.01934 41.7416C4.477 41.8789 4.62575 42.0848 4.46556 42.5654C4.20241 43.3892 4.8889 44.3274 5.73558 44.396C6.20468 44.4304 6.35343 44.6592 6.27334 45.1397C6.14748 45.9178 7.03992 46.7645 7.84083 46.6729C8.2985 46.6043 8.493 46.7873 8.53877 47.2793C8.60742 48.0802 9.5914 48.7324 10.3694 48.4921C10.8271 48.3548 11.0674 48.4693 11.2047 48.9269C11.4221 49.6935 12.5319 50.1626 13.2184 49.7736C13.6532 49.5333 13.8934 49.602 14.1108 50.0253C14.4541 50.6661 15.3465 50.872 16.033 50.586C16.4106 50.4372 17.0284 50.483 17.3602 50.7118C17.9666 51.1466 18.882 51.0894 19.4197 50.5402C19.5799 50.38 20.0719 50.2999 20.2435 50.4258C21.0101 50.9406 21.9826 50.7461 22.509 49.9796C22.6348 49.7965 23.1154 49.6935 23.3328 49.7851C24.0765 50.094 25.1749 49.705 25.3694 48.9384C25.5067 48.4121 25.7698 48.3434 26.2504 48.4921C27.017 48.7324 27.8865 48.0345 28.0467 47.2221C28.0925 46.9933 28.47 46.6729 28.6989 46.6729C29.5913 46.6958 30.3121 45.975 30.3121 45.0482C30.3121 44.8308 30.644 44.4647 30.8728 44.4304C31.6279 44.3045 32.3945 43.332 32.1314 42.6226C31.9483 42.1192 32.0627 41.8789 32.5661 41.7416C33.3327 41.5242 33.7904 40.4258 33.4014 39.7393C33.2755 39.499 33.0352 39.3503 32.7606 39.3503H24.66C24.4426 39.3503 24.2366 39.4533 24.0993 39.6135C22.6463 41.2382 20.541 42.2794 18.2184 42.2565Z" fill="#fff"/>
<path d="M50.0148 29.2712V32.7494L41.6968 32.6121L37.3833 32.5435L40.9416 28.6533L41.6968 28.6991L50.0148 29.2712Z" fill="#fff"/>
</svg>
