<svg width="100" height="100" viewBox="0 0 100 100" fill="none" xmlns="http://www.w3.org/2000/svg">
<circle cx="50" cy="50" r="48" fill="white" stroke="black" stroke-width="4"/>
<path d="M69.1663 37.18C62.0747 36.4773 54.9404 36.1152 47.8275 36.1152C43.6108 36.1152 39.3941 36.3282 35.1775 36.7541L30.833 37.18" stroke="black" stroke-width="4" stroke-linecap="round" stroke-linejoin="round"/>
<path d="M42.5464 35.0301L43.0149 32.2403C43.3556 30.2171 43.6112 28.7051 47.2103 28.7051H52.7899C56.389 28.7051 56.6658 30.3023 56.9853 32.2616L57.4538 35.0301" stroke="black" stroke-width="4" stroke-linecap="round" stroke-linejoin="round"/>
<path d="M64.588 43.9102L63.2038 65.3555C62.9695 68.699 62.7778 71.2972 56.8362 71.2972H43.164C37.2223 71.2972 37.0306 68.699 36.7964 65.3555L35.4121 43.9102" stroke="black" stroke-width="4" stroke-linecap="round" stroke-linejoin="round"/>
<path d="M46.4434 59.584H53.535" stroke="black" stroke-width="4" stroke-linecap="round" stroke-linejoin="round"/>
<path d="M44.6758 51.0664H55.3239" stroke="black" stroke-width="4" stroke-linecap="round" stroke-linejoin="round"/>
</svg>
