<svg xmlns="http://www.w3.org/2000/svg" width="24" height="24" viewBox="0 0 24 24" fill="none">
<path d="M12 12.75C8.83 12.75 6.25 10.17 6.25 7C6.25 3.83 8.83 1.25 12 1.25C15.17 1.25 17.75 3.83 17.75 7C17.75 10.17 15.17 12.75 12 12.75ZM12 2.75C9.66 2.75 7.75 4.66 7.75 7C7.75 9.34 9.66 11.25 12 11.25C14.34 11.25 16.25 9.34 16.25 7C16.25 4.66 14.34 2.75 12 2.75Z" fill="#377E7F"/>
<path d="M15.8201 22.7513C15.4401 22.7513 15.0801 22.6113 14.8201 22.3513C14.5101 22.0413 14.3701 21.5913 14.4401 21.1213L14.6301 19.7714C14.6801 19.4214 14.8901 19.0113 15.1401 18.7513L18.68 15.2114C20.1 13.7914 21.3501 14.6014 21.9601 15.2114C22.4801 15.7314 22.7501 16.2913 22.7501 16.8513C22.7501 17.4213 22.4901 17.9513 21.9601 18.4813L18.42 22.0214C18.17 22.2714 17.7501 22.4814 17.4001 22.5314L16.05 22.7213C15.97 22.7413 15.9001 22.7513 15.8201 22.7513ZM20.31 15.9213C20.13 15.9213 19.97 16.0414 19.74 16.2714L16.2001 19.8113C16.1701 19.8413 16.12 19.9413 16.12 19.9813L15.9401 21.2313L17.1901 21.0513C17.2301 21.0413 17.33 20.9914 17.36 20.9614L20.9001 17.4213C21.0601 17.2613 21.2501 17.0313 21.2501 16.8513C21.2501 16.7013 21.1301 16.4914 20.9001 16.2714C20.6601 16.0314 20.48 15.9213 20.31 15.9213Z" fill="#377E7F"/>
<path d="M20.9201 19.2213C20.8501 19.2213 20.7801 19.2113 20.7201 19.1913C19.4001 18.8213 18.3501 17.7714 17.9801 16.4514C17.8701 16.0514 18.1001 15.6414 18.5001 15.5314C18.9001 15.4214 19.3101 15.6513 19.4201 16.0513C19.6501 16.8713 20.3001 17.5213 21.1201 17.7513C21.5201 17.8613 21.7501 18.2813 21.6401 18.6713C21.5501 19.0013 21.2501 19.2213 20.9201 19.2213Z" fill="#377E7F"/>
<path d="M3.41016 22.75C3.00016 22.75 2.66016 22.41 2.66016 22C2.66016 17.73 6.85018 14.25 12.0002 14.25C13.0902 14.25 14.1702 14.41 15.1802 14.71C15.5802 14.83 15.8002 15.25 15.6802 15.64C15.5602 16.04 15.1402 16.26 14.7502 16.14C13.8702 15.88 12.9502 15.74 12.0002 15.74C7.68018 15.74 4.16016 18.54 4.16016 21.99C4.16016 22.41 3.82016 22.75 3.41016 22.75Z" fill="#377E7F"/>
</svg>