<svg width="49" height="49" viewBox="0 0 49 49" fill="none" xmlns="http://www.w3.org/2000/svg">
<circle opacity="0.05" cx="24.4052" cy="24.4052" r="24.4052" fill="#79C551"/>
<g clip-path="url(#clip0_4137_49658)">
<path d="M26.5558 27.3333C32.0467 27.3108 34 24.4067 34 21.9167C33.9995 21.2506 33.771 20.6049 33.3526 20.0867C32.9341 19.5685 32.351 19.2091 31.7 19.0683C31.9408 18.3908 32.1357 17.6979 32.2833 16.9942C32.3573 16.6339 32.3499 16.2617 32.2615 15.9047C32.1731 15.5477 32.006 15.2149 31.7725 14.9308C31.536 14.6396 31.2375 14.4049 30.8986 14.2439C30.5598 14.0828 30.1893 13.9995 29.8142 14H18.1858C17.8105 13.9994 17.4399 14.0826 17.1009 14.2437C16.7619 14.4047 16.4632 14.6395 16.2267 14.9308C15.9931 15.2149 15.8261 15.5477 15.7377 15.9047C15.6493 16.2617 15.6418 16.6339 15.7158 16.9942C15.8631 17.698 16.058 18.3909 16.2992 19.0683C15.6484 19.2093 15.0654 19.5688 14.6471 20.0869C14.2289 20.6051 14.0005 21.2508 14 21.9167C14 24.4067 15.9533 27.3108 21.4442 27.3333C21.4753 27.5087 21.494 27.6861 21.5 27.8642V30.6667C21.5143 30.8892 21.481 31.1123 21.4023 31.321C21.3236 31.5297 21.2014 31.7193 21.0436 31.877C20.8859 32.0347 20.6964 32.157 20.4877 32.2357C20.279 32.3144 20.0559 32.3476 19.8333 32.3333H18.1667V34H29.8333V32.3333H28.1733C27.9503 32.3484 27.7266 32.3156 27.5172 32.2373C27.3078 32.1589 27.1176 32.0368 26.9592 31.879C26.8008 31.7212 26.6779 31.5315 26.5987 31.3224C26.5195 31.1133 26.4859 30.8898 26.5 30.6667V27.8642C26.506 27.6861 26.5247 27.5087 26.5558 27.3333ZM31.0833 20.6667C31.4149 20.6667 31.7328 20.7984 31.9672 21.0328C32.2016 21.2672 32.3333 21.5851 32.3333 21.9167C32.3333 23.6233 30.9742 25.4375 27.23 25.6458C27.3774 25.4523 27.5475 25.2771 27.7367 25.1242C29.1573 23.9051 30.285 22.3815 31.0358 20.6667H31.0833ZM15.6667 21.9167C15.6667 21.5851 15.7984 21.2672 16.0328 21.0328C16.2672 20.7984 16.5851 20.6667 16.9167 20.6667H16.9642C17.7144 22.3816 18.8418 23.9053 20.2625 25.1242C20.4519 25.2771 20.6223 25.4522 20.77 25.6458C17.0258 25.4375 15.6667 23.6233 15.6667 21.9167ZM24.8333 27.8642V30.6667C24.8239 31.2478 24.9637 31.8216 25.2392 32.3333H22.7608C23.0363 31.8216 23.1761 31.2478 23.1667 30.6667V27.8642C23.1808 27.0935 23.0205 26.3296 22.6979 25.6296C22.3752 24.9295 21.8985 24.3115 21.3033 23.8217C19.25 22.18 17.8333 19.0417 17.3483 16.6583C17.3234 16.5407 17.3255 16.4189 17.3543 16.3021C17.3832 16.1854 17.4381 16.0767 17.515 15.9842C17.5959 15.8844 17.6982 15.804 17.8143 15.7491C17.9304 15.6941 18.0574 15.666 18.1858 15.6667H29.8142C29.9419 15.6666 30.0681 15.695 30.1834 15.75C30.2988 15.8049 30.4004 15.8849 30.4808 15.9842C30.5575 16.0768 30.6123 16.1855 30.6411 16.3022C30.67 16.4189 30.6722 16.5407 30.6475 16.6583C30.1592 19.0417 28.7458 22.18 26.6917 23.825C26.098 24.3151 25.6225 24.9328 25.3008 25.6321C24.979 26.3315 24.8192 27.0945 24.8333 27.8642Z" fill="#79C551"/>
</g>
<defs>
<clipPath id="clip0_4137_49658">
<rect width="20" height="20" fill="white" transform="translate(14 14)"/>
</clipPath>
</defs>
</svg>
